<svg width="81" height="118" viewBox="0 0 81 118" fill="none" xmlns="http://www.w3.org/2000/svg">
<path d="M37.7901 77.8358C38.5501 78.3458 39.3701 78.9558 39.9401 79.6458C40.3901 79.9158 43.2401 74.6558 43.8801 73.7958C44.7101 72.6758 45.4601 72.2258 45.4101 70.7558C45.3601 69.4158 45.0901 67.8958 44.9001 66.5458C44.6801 65.0158 44.0501 62.9958 43.2401 61.6758C42.5101 60.4658 41.7701 60.5858 40.3601 60.8358C39.3701 61.0158 36.9401 61.2658 36.3501 62.0958C35.8001 62.8658 36.0601 65.3458 36.0701 66.3158C36.0701 69.1558 36.0001 71.9258 36.5001 74.6758C36.8001 76.3458 36.5301 76.9858 37.8001 77.8358H37.7901Z" fill="url(#paint0_linear_303_70932)"/>
<path d="M39.9503 79.6558C41.0003 79.2958 42.2403 78.9658 43.3103 78.7358C44.5603 78.4658 45.5003 78.6258 46.4203 77.8058C47.2503 77.0558 47.9603 75.8958 48.7303 75.0558C50.2303 73.4258 51.6603 71.7758 53.2403 70.1858C54.9903 68.4358 56.6303 66.5358 58.1903 64.5958C59.4603 63.0158 61.5103 60.5758 63.3403 59.8058L63.2003 59.3758C63.3903 59.3958 63.5503 59.3758 63.7203 59.4058C62.0903 58.9358 60.2203 59.0058 58.4803 58.7658C56.5603 58.5058 54.2503 57.7858 52.3903 58.3258C48.5003 59.4558 44.9103 62.1958 41.1603 63.5858C40.8103 66.4258 43.9703 68.9958 43.5503 71.6358C43.0803 74.5758 41.0803 76.9758 39.9603 79.6658L39.9503 79.6558Z" fill="url(#paint1_linear_303_70932)"/>
<path d="M63.71 59.3958C63.77 59.4158 63.84 59.4258 63.9 59.4458C63.83 59.4158 63.77 59.4058 63.71 59.3958Z" fill="url(#paint2_linear_303_70932)"/>
<path d="M58.4704 58.7558C56.5504 58.4958 54.2404 57.7758 52.3804 58.3158C48.4904 59.4458 44.9004 62.1858 41.1504 63.5758C40.9304 65.3658 42.1004 67.0458 42.8904 68.7158C43.1604 68.4658 43.4504 68.2358 43.7504 68.0258C44.2704 67.6558 44.8904 67.2558 45.5304 67.0558C45.9804 66.8158 46.4504 66.6058 46.9804 66.4558C47.7804 66.2158 48.4404 67.1358 48.0404 67.8358C47.3104 69.1058 46.2604 70.2358 45.6204 71.5558C44.7504 73.3458 45.0904 74.8158 45.4804 76.6558C45.6004 77.2058 45.6904 77.7358 45.7604 78.2658C45.9904 78.1658 46.2104 78.0258 46.4404 77.8258C47.2704 77.0758 47.9804 75.9158 48.7504 75.0758C50.2504 73.4458 51.6804 71.7958 53.2604 70.2058C55.0104 68.4558 56.6504 66.5558 58.2104 64.6158C59.4804 63.0358 61.5304 60.5958 63.3604 59.8258L63.2204 59.3958C63.4104 59.4158 63.5704 59.3958 63.7404 59.4258C62.1104 58.9558 60.2404 59.0258 58.5004 58.7858L58.4704 58.7558Z" fill="#753001"/>
<path d="M46.2408 72.9458C46.1708 73.0758 46.1008 73.2058 46.0508 73.3358C46.4008 74.7258 46.6208 76.1258 46.6808 77.5358C47.4008 76.7958 48.0408 75.8058 48.7308 75.0558C50.2308 73.4258 51.6608 71.7758 53.2408 70.1858C54.9908 68.4358 56.6308 66.5358 58.1908 64.5958C59.4608 63.0158 61.5108 60.5758 63.3408 59.8058L63.2008 59.3758C63.3908 59.3958 63.5508 59.3758 63.7208 59.4058C62.0908 58.9358 60.2208 59.0058 58.4808 58.7658C56.5608 58.5058 54.2508 57.7858 52.3908 58.3258C50.3708 58.9158 48.4308 59.9358 46.5108 60.9658C48.1508 63.1458 50.0308 66.0258 49.1008 68.4158C48.4208 70.1458 47.1508 71.3558 46.2508 72.9358L46.2408 72.9458Z" fill="#7C2D01"/>
<path opacity="0.32" d="M46.2408 72.9455C46.1708 73.0755 46.1008 73.2055 46.0508 73.3355C46.4008 74.7255 46.6208 76.1255 46.6808 77.5355C46.7408 77.4755 46.8008 77.3955 46.8608 77.3355C46.8408 77.2655 46.8208 77.2055 46.8108 77.1255C46.7108 74.9655 46.2608 72.9755 47.8908 71.2655C49.2508 69.8455 50.0308 68.6755 50.2208 66.6655C50.2208 66.6055 50.2408 66.5555 50.2408 66.4955C49.1708 64.5455 47.9508 62.6855 46.6008 60.9155C46.5608 60.9355 46.5308 60.9555 46.4908 60.9655C48.1308 63.1455 50.0108 66.0255 49.0808 68.4155C48.4008 70.1455 47.1308 71.3555 46.2308 72.9355L46.2408 72.9455Z" fill="#B05609"/>
<path opacity="0.64" d="M37.7608 77.8058C38.9508 73.4458 41.1108 69.5058 45.0008 67.1958C44.9708 66.9758 44.9408 66.7558 44.9108 66.5458C44.6908 65.0158 44.0608 62.9958 43.2508 61.6758C42.5208 60.4658 41.7808 60.5858 40.3708 60.8358C39.3808 61.0158 36.9508 61.2658 36.3608 62.0958C35.8108 62.8658 36.0708 65.3458 36.0808 66.3158C36.0808 69.1558 36.0108 71.9258 36.5108 74.6758C36.8108 76.3258 36.5508 76.9658 37.7708 77.7958L37.7608 77.8058Z" fill="#753001"/>
<path d="M37.0508 60.2557C35.0608 59.3957 32.3308 58.6757 30.1508 59.5057C28.9408 59.9657 29.0708 60.7057 29.2908 62.1057C29.4808 63.2657 29.7808 64.3957 30.0108 65.5657C30.4808 67.9957 30.7508 70.5757 31.4808 72.9257C31.8908 74.2457 33.3608 77.9657 34.1208 78.7057C34.9408 78.6357 36.5308 77.9057 37.3408 77.5057C36.0308 71.9557 38.9308 65.5857 37.0508 60.2557Z" fill="#7C2D01"/>
<path d="M20.3107 59.5959V59.5459C20.2807 59.5959 20.2707 59.6459 20.2607 59.6859C20.2807 59.6559 20.3007 59.6259 20.3107 59.5959Z" fill="url(#paint3_linear_303_70932)"/>
<path d="M20.2604 59.6858C20.1804 59.8058 20.1104 59.9358 20.0304 60.0658C20.2504 59.9458 20.2304 59.8358 20.2604 59.6858Z" fill="url(#paint4_linear_303_70932)"/>
<path d="M28.2403 60.5257C26.7703 59.3257 23.7903 56.6857 21.7703 56.9757C21.3303 57.8157 20.8303 58.7357 20.3103 59.6057L20.4403 60.2757C20.5703 61.6357 22.9003 64.5657 23.7903 65.9057C25.0003 67.7157 26.1303 69.4657 27.1203 71.3757C27.8403 72.7857 28.4203 75.3157 29.5603 76.4057C30.4703 77.2757 32.9203 78.3657 34.1203 78.7257C34.0203 76.5157 32.6903 73.8557 32.1603 71.6757C31.6703 69.6657 31.2803 67.6557 30.5103 65.6457C29.7903 63.7657 29.7103 61.7357 28.2403 60.5357V60.5257Z" fill="url(#paint5_linear_303_70932)"/>
<path opacity="0.64" d="M28.2403 60.5257C26.7703 59.3257 23.7903 56.6857 21.7703 56.9757C21.3303 57.8157 20.8303 58.7357 20.3103 59.6057L20.4403 60.2757C20.5203 61.0457 21.2903 62.3157 22.1103 63.5157C26.3203 62.0457 29.2603 64.5257 31.3003 68.1657C31.0803 67.3257 30.8303 66.4857 30.5103 65.6457C29.7903 63.7657 29.7103 61.7357 28.2403 60.5357V60.5257Z" fill="#753001"/>
<path d="M58.47 58.7555C56.55 58.4955 54.24 57.7755 52.38 58.3155C50.36 58.9055 48.42 59.9255 46.5 60.9555C48.14 63.1355 50.02 66.0155 49.09 68.4055C48.99 68.6755 48.87 68.9255 48.74 69.1655C51.36 67.2355 54.42 66.0455 57.61 65.2855C57.8 65.0455 58 64.8155 58.19 64.5855C59.46 63.0055 61.51 60.5655 63.34 59.7955L63.2 59.3655C63.39 59.3855 63.55 59.3655 63.72 59.3955C62.09 58.9255 60.22 58.9955 58.48 58.7555H58.47Z" fill="#682305"/>
<path d="M43.2603 37.7056C28.0903 31.7456 19.0003 43.1956 18.6903 43.9356C18.8803 48.0256 20.0703 47.3456 20.5103 49.1156C21.1203 51.5356 21.1103 62.1756 21.1103 62.1756L25.5903 57.6956C26.3503 59.2956 27.5503 61.1656 28.6003 62.0956C29.2703 61.8156 29.8003 61.4756 29.8003 61.4756C30.1603 62.5156 31.0203 64.0956 31.5503 65.3756C31.8803 66.1656 32.0403 67.0356 32.3003 67.8256C32.8203 68.1256 33.3803 68.3456 33.8503 68.7256C33.8903 68.7556 33.9303 68.7856 33.9703 68.8156C34.1103 68.8956 34.2003 68.9756 34.2003 68.9756C34.5103 69.6156 35.0703 70.2556 35.6303 70.7956C36.4303 71.0956 37.2203 71.4656 38.0003 71.7656C38.4703 71.5256 39.0103 71.3456 39.3203 70.9556C39.6703 70.5156 39.6203 69.1656 39.7803 68.6256C40.1403 67.3756 40.4503 65.7656 41.4703 64.8656C43.8103 65.5056 44.1003 67.3556 45.7503 64.5556C46.5703 63.1656 47.4403 61.7356 48.6403 60.9056C49.7703 60.1156 51.3903 61.1456 52.2303 59.9156C52.6103 59.3656 53.0703 58.0256 53.0703 58.0256C53.2603 58.0656 53.4503 58.1456 53.6403 58.2356C54.5103 55.4856 55.3003 52.6756 55.8803 49.8456C56.1703 48.4156 56.4803 46.9856 56.5703 45.5256C56.6403 44.3756 56.4903 43.2356 56.4603 42.0856C56.4403 41.2056 56.4503 39.9256 56.8103 38.9056C51.9303 38.7856 45.7203 38.6856 43.2603 37.7156V37.7056Z" fill="url(#paint6_linear_303_70932)"/>
<path d="M52.2804 60.5658C52.6104 60.6458 53.2104 61.5858 53.2104 61.5858C53.7404 62.2458 54.7704 62.2358 55.1604 62.1858C56.2004 62.0558 60.9704 46.9558 62.8604 41.4358C61.9204 41.6658 60.8804 41.6058 59.9604 41.7358C58.0604 42.0058 56.6604 43.8058 55.4204 45.1458C55.3904 45.1758 55.3604 45.2058 55.3404 45.2258C55.5904 45.5558 55.8704 45.7958 55.8904 46.3058C55.9704 48.2158 55.1004 50.5858 54.6004 52.4058C54.0504 54.4158 52.2804 60.5558 52.2804 60.5558V60.5658Z" fill="#9D5204"/>
<path d="M52.2804 60.5658C52.4804 60.6158 53.0404 59.9858 53.3304 59.2258C53.9504 56.4958 55.2204 52.3658 56.2304 49.7858C56.6104 48.7958 57.1704 47.0658 57.8104 46.2358C58.5604 44.8258 59.8104 44.7258 61.3004 45.2758C61.3704 45.2658 61.4504 45.2558 61.5304 45.2458C62.0604 43.7558 62.5304 42.4358 62.8604 41.4558C61.9204 41.6858 60.8804 41.6258 59.9604 41.7558C58.0604 42.0258 56.6604 43.8258 55.4204 45.1658C55.3904 45.1958 55.3604 45.2258 55.3404 45.2458C55.5904 45.5758 55.8704 45.8158 55.8904 46.3258C55.9704 48.2358 55.2204 50.6458 54.6004 52.4258C54.0504 53.9858 52.2804 60.5758 52.2804 60.5758V60.5658Z" fill="#7C2D01"/>
<path d="M41.5003 65.1157C43.0703 65.5457 43.7103 66.3857 44.4603 66.0657C44.9203 62.1357 45.4403 58.1057 43.6703 54.5657C42.2803 56.7457 41.1203 59.0757 41.1003 61.7257C41.1003 62.9057 41.1803 63.8257 41.3503 64.9857C41.4103 65.0657 41.4603 65.1557 41.5003 65.1257V65.1157Z" fill="#A54908"/>
<path d="M30.8808 47.7459C30.7408 46.8859 30.8208 45.9759 30.5908 45.1359C30.2108 43.7059 29.2208 42.5159 28.1608 41.5059C26.9508 40.3659 25.2108 39.2159 23.4608 39.6059C23.3708 39.6259 23.2908 39.6359 23.2108 39.6259C22.8908 39.8459 22.5908 40.0659 22.3008 40.2859C22.8008 41.8159 22.7808 43.5359 22.8208 45.1159C22.8508 46.5059 22.9708 47.8859 23.1308 49.2659C23.9908 52.2259 24.7408 55.2059 25.0308 58.2459L26.9108 62.7459C26.9108 63.2659 28.3208 63.6659 29.2708 63.7659C29.9408 63.4859 32.3308 62.5859 33.0908 61.9859C34.5608 60.8359 33.0208 57.5159 32.5108 55.9659C31.9008 54.1159 31.9008 52.1959 31.4608 50.3259C31.2608 49.4659 31.0208 48.6159 30.8808 47.7359V47.7459Z" fill="#B05609"/>
<path d="M30.88 47.7457C30.74 46.8857 30.82 45.9757 30.59 45.1357C30.21 43.7057 29.22 42.5156 28.16 41.5056C27.44 40.8256 26.53 40.1456 25.54 39.7856C25.77 42.7156 25.72 44.4857 25.83 47.4357C25.89 48.9457 25.98 52.1656 26.16 53.1656C26.24 53.6256 28.33 61.4457 28.39 61.8857C28.47 61.9557 29.21 63.7157 29.28 63.7757C29.95 63.4956 31.05 63.0556 31.05 63.0556C31.09 63.1756 31.27 60.7156 32.03 60.1156C33.5 58.9656 33.03 57.5356 32.52 55.9756C31.91 54.1256 31.91 52.2056 31.47 50.3356C31.27 49.4756 31.03 48.6257 30.89 47.7457H30.88Z" fill="url(#paint7_linear_303_70932)"/>
<path d="M28.3804 61.8857C28.4604 61.9557 29.2004 63.7156 29.2704 63.7757C29.9404 63.4957 31.0404 63.0556 31.0404 63.0556C31.0804 63.1756 31.2604 60.7156 32.0204 60.1156C33.4904 58.9656 33.0203 57.5356 32.5103 55.9756C32.2203 55.1056 32.0703 54.2156 31.9403 53.3156C30.7903 52.0956 29.5803 50.9357 28.3503 49.7957C29.0603 51.2157 29.7204 52.6756 29.9904 54.2256C30.3304 56.1656 28.8204 58.1456 27.8604 59.8456C28.1404 60.9256 28.3504 61.7456 28.3604 61.8756L28.3804 61.8857Z" fill="#893B00"/>
<path d="M9.17067 51.7456C9.73067 52.3956 10.1007 53.0956 10.5707 53.7856C11.5207 55.1656 12.2907 56.5256 12.9307 57.9456C13.4607 59.1056 13.7407 60.6456 14.5907 61.6556C15.4907 62.7256 19.0807 63.8356 20.3707 63.7656L25.9607 58.4456C25.9207 57.8156 24.5507 54.0656 24.3807 50.4956C24.3807 50.4456 24.3607 50.3956 24.3607 50.3556C23.3807 46.8856 22.4007 43.3856 23.0907 39.7756C23.0907 39.7056 23.0907 39.6456 23.1107 39.5956C19.7807 39.8156 18.2407 39.3856 14.8907 39.7756C13.1107 39.9856 10.5007 34.8756 8.69066 35.0156C7.83066 35.0856 3.19066 30.1056 2.18066 30.5256C3.45066 35.9856 9.55066 47.3756 8.84066 49.8056C8.53066 50.8756 8.36067 50.8056 9.17067 51.7456Z" fill="url(#paint8_linear_303_70932)"/>
<path opacity="0.64" d="M9.17036 51.7456C9.73036 52.3956 10.1004 53.0956 10.5704 53.7856C11.5204 55.1656 12.2904 56.5256 12.9304 57.9456C13.4604 59.1056 13.7404 60.6456 14.5904 61.6556C14.7004 61.7856 14.8504 61.9156 15.0404 62.0456C14.5804 59.7756 13.9104 57.5856 12.6404 55.4356C12.2304 54.7456 11.7504 53.5656 11.9404 52.8056C11.7004 52.4256 11.6404 52.0756 11.7004 51.7056C11.0504 51.4256 10.5104 51.0156 9.88036 50.6756C9.41036 50.4256 9.32036 49.8356 9.54036 49.3956C10.7504 46.9756 6.25036 43.6156 7.87036 41.2156C8.36036 40.4856 9.04036 40.0956 9.80036 39.9156C9.24036 39.1056 8.98036 38.1156 8.87036 37.1156C7.32036 35.5456 5.13036 34.3956 3.52036 33.1156C3.27036 32.9156 3.00036 32.6956 2.74036 32.4756C4.68036 38.3356 9.47036 47.6356 8.83036 49.8056C8.52036 50.8756 8.35036 50.8056 9.16036 51.7456H9.17036Z" fill="#753001"/>
<path opacity="0.64" d="M12.0604 40.2556C10.4204 39.7756 9.22039 39.0356 7.90039 38.2556C8.66039 41.9456 12.2304 41.8856 15.6604 43.0956C17.1304 43.6156 17.7304 44.6956 18.2704 46.0656C19.1704 48.3656 20.3904 50.0756 20.8304 52.5056C21.3804 54.0256 21.8004 55.6056 22.1104 57.2156C22.1104 56.5856 22.1104 55.9556 22.1304 55.3356C22.2604 51.7556 21.6004 47.9956 20.5004 44.5856C19.4804 41.4156 14.8304 41.0656 12.0604 40.2556Z" fill="#753001"/>
<path opacity="0.36" d="M18.5307 49.9358C17.3607 50.1858 16.3607 50.8858 15.2007 51.1558C14.0607 51.4158 12.9007 51.5058 11.7507 51.2058C10.7207 50.9358 9.70069 50.6158 8.69069 50.2658C8.49069 50.8858 8.50069 50.9658 9.17069 51.7458C9.73069 52.3958 10.1007 53.0958 10.5707 53.7858C11.5207 55.1658 12.2907 56.5258 12.9307 57.9458C13.4607 59.1058 13.7407 60.6458 14.5907 61.6558C15.4907 62.7258 19.0807 63.8358 20.3707 63.7658L22.6607 61.5858C22.2707 60.4458 21.7607 58.4258 21.2507 57.3358C20.6507 56.0558 19.8707 54.8458 19.3907 53.5158C18.9607 52.3458 18.7107 51.1458 18.5307 49.9258V49.9358Z" fill="#753001"/>
<path opacity="0.36" d="M18.6404 50.6158C18.6004 50.3958 18.5604 50.1658 18.5304 49.9458C17.3604 50.1958 16.3604 50.8958 15.2004 51.1658C14.9704 51.2158 14.7304 51.2658 14.4904 51.2958C16.1904 55.0558 18.4404 60.1258 20.3604 63.7758C20.4204 63.7258 20.4904 63.6458 20.5804 63.5658C20.0604 61.4158 19.5204 59.2658 18.7404 57.2058C17.6704 54.3758 17.4904 53.7058 18.5504 50.7758C18.5704 50.7158 18.6004 50.6658 18.6204 50.6158H18.6404Z" fill="#753001"/>
<path d="M18.6207 50.4758C18.5907 50.2958 18.5607 50.1258 18.5307 49.9458C17.3607 50.1958 16.3607 50.8958 15.2007 51.1658C14.0607 51.4258 12.9007 51.5158 11.7507 51.2158C10.7207 50.9458 9.70069 50.6258 8.69069 50.2758C8.49069 50.8958 8.50069 50.9758 9.17069 51.7558C9.23069 51.8258 9.29069 51.8958 9.34069 51.9658C10.6107 52.7158 12.1107 52.8358 13.4407 53.4558C14.8407 54.1058 15.7207 55.2558 16.5107 56.5558C17.7007 58.5058 18.8107 61.5158 20.1507 63.3758C20.1707 63.3758 19.5407 61.6158 19.5607 61.6158C18.3707 60.0258 18.5007 58.7458 17.7107 56.9458C17.2507 55.9058 16.3107 54.5358 16.6307 53.3458C16.9507 52.1358 17.8807 51.4458 18.6007 50.4958L18.6207 50.4758Z" fill="#753001"/>
<path d="M13.9504 50.2258C12.6004 49.8558 11.3404 49.2358 10.0904 48.6058C9.74038 48.4458 9.39038 48.2757 9.06038 48.0957C8.95038 48.0457 8.80038 47.9458 8.69038 47.8958C8.69038 47.8958 7.98038 49.4558 7.91038 49.6858C7.63038 50.6458 8.21038 50.9158 8.97038 51.5058C9.51038 51.6358 10.0504 51.7958 10.5904 51.9458C11.9604 52.3458 13.4404 52.8258 14.8804 52.5858C16.4204 52.3258 17.4704 51.1757 18.5504 49.9557C18.4304 49.8957 15.5804 50.6857 13.9604 50.2357L13.9504 50.2258Z" fill="url(#paint9_linear_303_70932)"/>
<path d="M12.7204 52.1758C11.3904 51.9858 9.35039 51.2858 8.15039 50.8458C8.34039 51.0558 8.96039 51.4858 8.96039 51.4858C9.50039 51.6158 10.0404 51.7758 10.5804 51.9258C11.9504 52.3258 13.4304 52.8058 14.8704 52.5658C16.4104 52.3058 17.4604 51.1558 18.5404 49.9358C18.5304 49.9358 18.4904 49.9358 18.4304 49.9358C16.9504 51.7558 15.0304 52.4958 12.7204 52.1658V52.1758Z" fill="#F99117"/>
<path d="M64.8299 59.6456C65.4899 58.8856 67.5499 54.7456 67.5499 54.7456L69.2099 55.3056C70.7999 54.6956 72.8799 51.4256 73.1999 50.0456C74.6799 43.6456 77.2199 37.3456 78.7699 31.0156C76.5599 30.0456 67.4799 32.4056 65.4399 33.3456C62.2299 34.8356 59.9499 36.2356 60.2699 39.9956C60.5399 43.1956 58.4899 60.2456 57.9199 61.4056C59.8799 61.0956 63.5299 60.7456 64.8399 59.6356L64.8299 59.6456Z" fill="url(#paint10_linear_303_70932)"/>
<path d="M71.5299 48.1557C72.1399 46.1057 72.5999 44.0057 73.2999 41.9857C74.0199 39.8957 74.9099 37.8757 75.8199 35.8557C75.3399 36.1057 74.8599 36.3457 74.3799 36.5857C74.2299 36.6657 74.0799 36.7457 73.9199 36.8257C73.1199 38.0857 72.6799 39.7057 72.1499 41.0757C71.7999 42.3057 71.3599 43.5057 70.9499 44.7257C70.3799 46.4057 69.9999 48.0557 69.7699 49.8057C69.5399 51.6157 69.2899 53.4257 68.8799 55.1957L69.2099 55.3057C69.5799 55.1657 69.9899 54.8757 70.3799 54.4957C70.3799 52.3257 70.9099 50.2157 71.5299 48.1557Z" fill="#C4660E"/>
<path d="M66.0803 48.9056C66.5103 48.1456 66.9503 47.3956 67.4103 46.6556C67.7803 45.6656 68.1803 44.6956 68.7303 43.7856C68.8203 43.4956 68.9203 43.2156 69.0203 42.9256C69.0903 42.7256 69.1703 42.5156 69.2403 42.3056C69.2803 41.5956 69.2403 40.8956 69.6203 40.2256C70.0103 39.5356 70.5203 38.9256 71.1003 38.3856C71.2503 38.2456 71.4103 38.1156 71.5603 37.9756C70.5403 38.2656 69.4603 38.4156 68.5403 38.5756C68.0303 38.8356 67.5303 39.1056 67.0503 39.3856C66.9003 39.4756 66.7603 39.5656 66.6303 39.6556C66.7103 39.7856 66.7603 39.9456 66.7503 40.1356C66.7203 43.1256 66.1303 45.9856 65.3103 48.7956C65.5603 48.8356 65.8203 48.8756 66.0803 48.9056Z" fill="#9A4802"/>
<path d="M67.3603 54.5957C67.3603 54.5957 67.3503 54.6457 67.3403 54.6757C67.3403 54.6857 67.3304 54.7057 67.3204 54.7157C67.2904 54.7957 67.2603 54.8757 67.2303 54.9657C67.4203 54.8358 67.5503 54.7557 67.5503 54.7557L69.2104 55.3157C69.2104 55.3157 69.3003 55.2757 69.3503 55.2557C70.3403 51.2557 71.1003 47.1757 72.2703 43.2257C73.1903 40.1157 75.0703 37.9658 77.3803 35.7658C77.4103 35.7358 77.4403 35.7157 77.4703 35.6957C77.9403 34.1457 78.3803 32.5857 78.7603 31.0257C77.4303 30.4357 73.5903 31.0657 70.3003 31.8657C70.5703 32.5257 70.9003 33.1557 71.1903 33.8157C71.5603 34.6757 71.7703 35.5657 71.9203 36.4857C72.2403 38.4957 71.9203 40.4257 71.3603 42.3657C70.1803 46.4857 68.8503 50.5757 67.3603 54.5957Z" fill="#AA4D06"/>
<path opacity="0.64" d="M70.7904 49.0258C70.9104 46.7058 71.6804 44.3658 72.4304 42.2158C72.8604 40.9858 73.1604 39.4958 73.9004 38.4058C74.4604 37.5858 75.1504 37.0758 76.0004 36.8058C76.2804 36.6258 76.5504 36.4458 76.8404 36.2858C77.0204 36.1158 77.1904 35.9458 77.3804 35.7658C77.4104 35.7358 77.4404 35.7158 77.4704 35.6958C77.7004 34.9458 77.9204 34.2058 78.1204 33.4558C77.8704 33.6258 77.6104 33.7858 77.3404 33.9358C76.3104 35.1958 74.9804 36.1058 73.4504 36.9558C73.4204 36.9758 73.3904 36.9858 73.3604 36.9958C73.2804 38.3958 72.9404 39.6858 72.4204 40.9858C71.8404 42.4358 71.2104 43.8358 70.9504 45.3858C70.7104 46.7958 70.4104 48.1758 70.1604 49.5858C69.8304 51.4058 69.7104 53.6158 68.4104 55.0458L69.2104 55.3158C69.2104 55.3158 69.3004 55.2758 69.3504 55.2558C69.8604 53.1858 70.3104 51.1058 70.7904 49.0258Z" fill="#753001"/>
<path opacity="0.64" d="M28.1608 41.5059C26.9508 40.3659 25.2108 39.2159 23.4608 39.6059C23.3708 39.6259 23.2908 39.6359 23.2108 39.6259C22.8908 39.8459 22.5908 40.0659 22.3008 40.2859C22.6108 41.2459 22.7208 42.2859 22.7708 43.3159C24.4908 43.1659 25.7708 43.9759 26.5108 45.6859C26.8708 46.5159 27.0808 47.4159 27.4808 48.2159C27.5808 48.4159 27.6808 48.6159 27.7908 48.8259C28.7808 48.3059 29.8108 47.9159 30.8508 47.5459C30.7508 46.7459 30.7908 45.9059 30.5908 45.1259C30.2108 43.6959 29.2208 42.5059 28.1608 41.4959V41.5059Z" fill="#753001"/>
<path d="M24.1803 49.6857C23.4303 46.9457 23.7003 44.1257 23.1403 41.3657C23.0503 40.9057 21.4203 41.3657 21.2503 41.1557C18.5103 43.0757 18.8203 43.6357 18.6903 43.9357C18.8803 48.0257 20.0703 47.3457 20.5103 49.1157C21.1203 51.5357 22.6703 61.5957 22.6703 61.5957L26.9203 62.7557C26.9503 62.5957 25.3103 55.0457 25.3703 53.9157C25.0503 52.4857 24.5703 51.0857 24.1903 49.6857H24.1803Z" fill="#A54908"/>
<path opacity="0.57" d="M23.1807 61.7358L26.9107 62.7558C26.9407 62.5958 25.3007 55.0458 25.3607 53.9158C25.0407 52.4858 24.5607 51.0858 24.1807 49.6858C23.4307 46.9458 23.7007 44.1258 23.1407 41.3658C23.0707 40.9958 22.0207 41.2158 21.5107 41.2158C21.8007 42.2158 22.4507 43.0758 22.6807 44.0958C22.9807 45.4058 23.0407 46.7458 23.2807 48.0658C23.5207 49.3858 23.9807 50.6658 24.1407 51.9858C24.2907 53.2558 24.2007 54.5658 23.9807 55.8158C23.6807 57.5258 23.8207 60.1458 23.1807 61.7358Z" fill="#9D4705"/>
<path opacity="0.64" d="M21.2503 41.1557C18.5103 43.0757 18.8203 43.6357 18.6903 43.9357C18.7003 44.1857 18.7203 44.4157 18.7303 44.6357C19.8403 43.8657 21.3203 43.3257 22.3003 44.5857C23.2103 45.7557 23.2603 47.5257 23.6003 48.9157C23.7603 49.5457 23.9203 50.1757 24.0803 50.7957C24.5503 51.9857 24.9903 53.1857 25.3503 54.3957C25.3503 54.2257 25.3503 54.0557 25.3503 53.9157C25.0303 52.4857 24.5503 51.0857 24.1703 49.6857C23.4203 46.9457 23.6903 44.1257 23.1303 41.3657C23.0403 40.9057 21.4103 41.3657 21.2403 41.1557H21.2503Z" fill="#753001"/>
<path d="M55.3008 61.8059C55.9408 62.6459 60.9708 46.9559 62.8608 41.4459C61.9208 41.6759 59.8608 40.6959 59.6508 41.5959C56.5808 54.8159 54.0508 58.4759 54.0508 58.4759V60.5759C54.5708 61.2359 55.0308 61.4759 55.3008 61.8159V61.8059Z" fill="#7F3803"/>
<path d="M32.0203 47.6358C32.6103 49.1958 33.3403 50.7258 34.2803 52.1158C34.7803 52.8458 35.5203 53.6058 36.0703 54.4358C36.2303 54.4558 36.4003 54.5458 36.5403 54.7058C36.8203 55.0158 37.0403 55.3458 37.2203 55.6958C38.2603 56.7258 38.4803 58.1858 38.7503 59.5858C39.7903 59.0358 40.0303 57.7358 40.1503 56.5558C40.2903 55.1458 40.5103 53.7458 40.6203 52.3458C40.8103 49.9058 41.1303 45.7258 38.0103 45.0158C36.5003 44.6758 34.8703 44.8058 33.3803 45.2058C32.9203 45.3258 31.9003 45.4858 31.7703 46.0558C31.6503 46.5958 31.8203 47.1358 32.0103 47.6458L32.0203 47.6358Z" fill="#7F3803"/>
<path d="M38.2903 46.0958C37.5103 45.5658 36.6303 45.2458 35.6403 45.2258C34.6903 45.2058 33.3603 45.3158 32.5503 45.8758C31.8203 46.3858 32.7903 48.3758 32.9503 49.1258C33.0303 49.4958 33.1003 49.8658 33.1803 50.2458C33.5103 50.8858 33.8803 51.5158 34.2803 52.1058C34.7803 52.8358 35.5203 53.5958 36.0703 54.4258C36.2303 54.4458 36.4003 54.5358 36.5403 54.6958C36.7103 54.8858 36.8603 55.0858 36.9903 55.2958C36.9003 54.7658 37.0903 53.4358 36.9703 52.9058C36.6303 51.3758 35.7103 50.6858 35.5503 49.1158C35.3303 47.0158 36.6603 46.2258 38.2803 46.0858L38.2903 46.0958Z" fill="#753001"/>
<path d="M44.5503 62.1257C44.8503 61.6857 45.0903 61.1557 45.2703 60.7357C45.7103 59.7357 46.0403 58.7057 46.3503 57.6557C47.2103 54.7057 48.4203 51.8157 49.0403 48.7957C49.1603 48.2057 50.1603 44.9457 50.0803 43.9157C49.8703 43.9157 49.6603 43.8957 49.4103 43.8457C49.3903 43.8457 49.3703 43.8357 49.3503 43.8257C48.4203 44.3057 47.6103 44.9957 46.7803 45.6457C46.8303 45.7457 46.8603 45.8457 46.8803 45.9657C47.3203 51.4757 44.3403 56.6657 44.5603 62.1057L44.5503 62.1257Z" fill="#893B00"/>
<path d="M44.6108 60.9857C44.8908 59.4757 45.3408 58.0557 45.7708 56.5857C46.6308 53.5857 47.1908 50.4257 47.5008 47.3257C47.5008 47.2857 47.5008 47.2557 47.5108 47.2257C47.5008 47.0157 47.5708 46.8057 47.7708 46.6057C48.4308 45.9757 49.1608 45.4257 49.9708 45.0257C50.0508 44.5757 50.1008 44.1857 50.0808 43.9257C49.8708 43.9257 49.6608 43.9057 49.4108 43.8557C49.3908 43.8557 49.3708 43.8457 49.3508 43.8357C48.4208 44.3157 47.6108 45.0057 46.7808 45.6557C46.8308 45.7557 46.8608 45.8557 46.8808 45.9757C47.3008 51.2257 44.6208 56.1857 44.5508 61.3657C44.5708 61.2457 44.5908 61.1157 44.6208 60.9857H44.6108Z" fill="#9D4705"/>
<path d="M46.2104 62.5558C45.5804 63.7758 44.9104 64.9758 44.1604 66.1358C44.6204 66.1058 45.0704 65.7058 45.7604 64.5358C46.5804 63.1458 48.5804 62.7458 48.5804 62.7458C50.2704 62.3258 50.7004 63.6858 51.5304 62.4558C51.8604 61.9658 52.2804 60.5158 52.4704 59.9158C52.4104 59.9558 53.3904 56.8458 53.3204 56.8958C52.0004 57.7958 49.2204 60.0758 52.1304 52.2058C52.1504 52.1558 46.7504 61.6758 46.2104 62.5458V62.5558Z" fill="#893B00"/>
<path d="M48.1503 56.4857C49.1903 55.7757 52.2303 47.9057 54.4403 45.2457C53.6203 45.0457 52.8103 44.7857 52.0603 44.6057C50.0903 49.6457 47.3303 57.0457 48.1503 56.4857Z" fill="#893B00"/>
<path d="M52.9208 44.6158C54.0608 43.1458 56.1408 42.6758 57.9208 42.5358C58.3808 42.4058 58.8408 42.3258 59.2808 42.2558C59.3008 41.9258 59.3208 41.6058 59.3308 41.3058C59.4408 39.2358 59.2608 37.8858 59.2308 37.3958C58.0108 37.9058 55.0408 39.4958 53.8608 40.0858C53.8408 40.0858 52.9108 42.3758 51.8008 45.2458C52.0708 45.2058 52.3308 45.1458 52.5608 45.0258C52.6108 44.9958 52.6708 44.9758 52.7208 44.9658C52.7508 44.8458 52.8108 44.7258 52.9008 44.6158H52.9208Z" fill="#562F15"/>
<path d="M50.6104 47.4656C50.6804 47.4356 50.7404 47.3856 50.7904 47.3456C50.7904 47.3256 50.7904 47.3056 50.7804 47.2756L50.6104 47.4656Z" fill="#845E42"/>
<path d="M29.6208 43.4656C28.8908 43.3256 27.6708 44.4056 27.1208 44.5856C27.0908 45.8456 26.5508 47.6356 26.9708 48.8856C27.2808 49.8056 28.5808 51.1356 29.2508 51.8856C29.9108 52.6156 31.5808 54.0156 32.5208 54.1756C33.9208 54.4156 35.2808 53.8256 36.6108 53.4956C36.0408 52.2756 35.1408 51.2356 34.4208 50.0556C33.7708 48.9956 33.6708 47.0956 33.9608 45.8456C32.6608 45.6256 30.9308 43.7156 29.6208 43.4656Z" fill="#C4660E"/>
<path d="M29.4701 43.4558C28.7401 43.4558 27.9301 44.2758 27.4101 44.4458C27.3801 45.7058 26.7301 48.3358 26.9701 48.8858C27.1701 49.3458 27.6301 49.8458 28.0401 50.3858C30.3901 51.1058 32.7201 51.2658 35.1801 51.1858C35.0201 50.9558 34.8601 50.7258 34.7101 50.4958C33.6201 50.4158 32.5401 50.2158 31.4701 50.0058C30.4801 49.8058 29.3301 49.7158 28.5801 48.9558C27.1001 47.4558 29.0401 45.1058 29.4401 43.5658C29.4501 43.5258 29.4701 43.4858 29.4801 43.4458L29.4701 43.4558Z" fill="#D87C12"/>
<path d="M26.9504 48.8157C27.2504 48.0657 27.6304 47.3657 28.0604 46.6957C28.4804 45.5557 28.9204 44.4257 29.5804 43.4657C28.8504 43.3757 27.5904 42.3457 27.0504 42.5257C27.0204 43.7557 26.5704 47.5757 26.9504 48.8257V48.8157Z" fill="#A85A05"/>
<path d="M32.0001 56.9855C33.8701 58.0555 35.1701 58.6055 36.4301 59.7155C36.4301 59.7155 37.2001 55.3955 36.6101 53.4955C36.1301 52.4755 35.4301 51.5855 34.7901 50.6355C32.1601 50.5655 29.4701 50.2255 27.0801 49.1655C27.4801 50.0555 28.4701 51.1355 29.0401 51.8455C30.5601 53.7355 32.0001 56.9955 32.0001 56.9955V56.9855Z" fill="url(#paint11_linear_303_70932)"/>
<path d="M28.8401 50.8158C30.8301 51.4058 32.6301 52.5158 33.7701 54.2958C34.6901 55.7358 35.1901 57.3458 35.5101 59.0058C35.8301 59.2258 36.1301 59.4558 36.4301 59.7258C36.4301 59.7258 37.2001 55.4058 36.6101 53.5058C36.1301 52.4858 35.4301 51.5958 34.7901 50.6458C32.1601 50.5758 29.4701 50.2358 27.0801 49.1758C27.3201 49.7158 27.7801 50.3158 28.2301 50.8758C28.4001 50.7858 28.6001 50.7558 28.8401 50.8358V50.8158Z" fill="#A64908"/>
<path opacity="0.48" d="M35.3601 52.3457C36.7001 54.2957 36.4401 56.8758 36.5001 59.2958C36.5501 57.8558 37.0501 54.8957 36.6101 53.4857C36.1301 52.4657 35.4301 51.5757 34.7901 50.6257C32.1601 50.5557 29.4701 50.2158 27.0801 49.1558C27.4801 50.0458 28.4701 51.1258 29.0401 51.8358C30.5601 53.7258 32.0001 56.9857 32.0001 56.9857C32.1301 57.0557 32.2601 57.1357 32.3801 57.2057C31.6401 55.6757 30.0101 53.1358 31.2301 51.6858C32.3701 50.3358 34.5101 51.1157 35.3501 52.3457H35.3601Z" fill="#A03F0B"/>
<path d="M38.8903 48.7557C38.8903 48.7557 38.0803 48.7957 37.7403 49.0557C37.7503 49.0557 37.7603 49.0757 37.7703 49.0857C38.4803 49.7457 40.0003 49.6657 40.8403 49.6257C41.6903 49.5857 42.5403 49.4957 43.3803 49.3457C42.7803 48.9157 42.1703 48.5257 42.1703 48.5257L46.5403 46.7857C47.4503 45.8457 49.3503 44.2757 49.5003 44.5057C49.5003 44.5057 49.6303 44.5057 49.8403 44.5057C47.9203 43.5457 45.8103 43.0457 43.5203 43.2357C42.0903 43.3557 40.6103 43.5057 39.2203 43.8857C38.2203 44.1457 37.2703 42.6157 37.3403 43.9557C37.3403 44.0357 36.3303 44.3757 36.3203 44.4457C37.5903 44.3557 38.7303 46.3557 38.8703 48.7657L38.8903 48.7557Z" fill="#C46E0C"/>
<path d="M39.9903 47.1556C40.7803 46.6556 41.7603 46.3456 42.6903 46.2756C43.9903 46.1656 45.3503 46.3156 46.6203 46.7156C46.8403 46.4956 48.5703 45.0556 48.8503 44.8056C47.6903 44.6956 45.4403 44.0356 44.2903 43.9256C42.0203 43.7056 38.6203 43.3456 36.6003 44.7956C37.6603 44.7756 38.6003 46.4856 38.8403 48.2956C39.2103 47.9456 39.4803 47.4856 39.9903 47.1756V47.1556Z" fill="#9E4D04"/>
<path d="M49.5508 43.7858C49.5508 43.7858 49.6008 43.7858 49.6308 43.7958C49.6308 43.7758 49.6408 43.7458 49.6508 43.7158L49.5608 43.7758L49.5508 43.7858Z" fill="#7A5739"/>
<path d="M51.6603 43.6857C50.3203 43.3957 50.4403 43.9457 49.6303 43.7957C49.0903 45.9657 48.3103 48.7357 47.7103 50.9157C47.1403 53.0157 46.3803 55.0857 45.8703 57.2057C45.1603 60.2057 43.8803 62.9057 43.9703 66.0857C45.7803 62.7157 46.8903 58.9757 48.5803 55.5457C50.1003 52.4657 52.2303 48.1257 53.3203 44.9157C53.3203 44.9157 52.4803 43.8657 51.6503 43.6857H51.6603Z" fill="#B25A10"/>
<path d="M49.9207 51.6057C49.0907 53.6557 48.2007 55.6557 47.5107 57.7557C47.4107 58.0457 47.3207 58.3457 47.2207 58.6357C47.6507 57.5957 48.1007 56.5557 48.5907 55.5557C50.1107 52.4757 52.2407 48.1357 53.3307 44.9257C53.3307 44.9257 52.4907 43.8757 51.6607 43.6957C50.3207 43.4057 50.4407 43.9557 49.6307 43.8057C49.5707 44.0457 49.5107 44.2857 49.4407 44.5357C50.2507 44.5557 51.0407 44.6757 51.8207 44.8857C52.3207 45.0157 52.8607 44.8357 52.6907 45.4157C51.4607 49.5157 50.6507 49.7657 49.9107 51.6057H49.9207Z" fill="#B95B13"/>
<path d="M20.9006 47.6557C20.9006 47.6557 20.9006 47.6057 20.8906 47.5757V47.6457H20.9006V47.6557Z" fill="#996D3C"/>
<path d="M59.3903 61.6057C61.6003 56.9257 65.4303 48.0656 67.9303 43.4856L67.8903 42.5856C67.4703 42.6256 64.2303 41.1657 62.7803 41.0257C59.6303 40.7157 60.9203 41.5956 60.2203 44.1256C59.1603 47.9456 57.3903 52.2456 56.6903 56.2356C56.4803 57.4356 54.8903 61.7157 54.4503 63.3557L55.5403 64.6957C56.6303 64.5056 59.0503 62.3357 59.4003 61.6057H59.3903Z" fill="url(#paint12_linear_303_70932)"/>
<path d="M56.2903 63.3356C57.4003 60.6456 57.5803 58.5056 58.4503 55.7356C59.1803 53.4156 59.7403 49.4257 60.5903 47.1357C61.7903 43.9257 64.4503 42.9257 67.9203 43.2957L67.8903 42.5856C67.4703 42.6256 64.2303 41.1657 62.7803 41.0257C59.6303 40.7157 60.9203 41.5956 60.2203 44.1256C59.1603 47.9456 57.3903 52.2456 56.6903 56.2356C56.4803 57.4356 54.8903 61.7157 54.4503 63.3557L55.5403 64.6957C55.6003 64.6957 55.6703 64.6656 55.7403 64.6456C55.9203 64.2056 56.1103 63.7656 56.3003 63.3356H56.2903Z" fill="#B65B0D"/>
<path opacity="0.4" d="M65.7799 47.7559C65.6499 47.7759 65.5099 47.7959 65.3799 47.8259C64.2999 48.0159 63.8099 48.2459 62.7799 48.6159C61.9799 48.9059 60.6899 49.7159 60.6899 49.7159C60.2399 51.5559 59.4199 53.9759 59.0999 55.8559C58.7399 57.9359 58.3699 60.0059 57.9199 62.0659C58.7799 61.7159 59.5599 61.2759 59.7499 60.8859C61.3699 57.4459 63.6799 52.1559 65.7899 47.7659L65.7799 47.7559Z" fill="#753001"/>
<path d="M61.0204 43.1157C61.8504 42.9057 62.7004 42.9057 63.5404 42.9557C64.0304 42.5257 64.5304 42.0857 65.0004 41.6257C64.1704 41.3357 63.3404 41.1257 62.7804 41.0357C61.9904 40.8957 60.6204 41.3457 60.3604 42.3457C59.6404 45.1357 55.8804 58.6757 55.5304 59.9857C56.2904 57.8657 57.2704 55.3757 57.8304 53.1957C58.5904 50.2257 60.0804 43.3557 61.0104 43.1257L61.0204 43.1157Z" fill="#9D5204"/>
<path opacity="0.64" d="M64.4706 48.5155C64.7806 48.5155 65.0906 48.5155 65.4006 48.5455C66.2906 46.6555 67.1606 44.9055 67.9406 43.4855L67.9006 42.5855C67.4806 42.6255 64.2406 41.1655 62.7906 41.0255C60.9806 40.8455 60.4206 41.1755 60.1406 41.9555C60.1906 41.9555 60.2306 41.9655 60.2906 41.9755C62.1706 42.4355 64.0906 42.7155 65.9306 43.3355C66.6206 43.5655 66.8006 44.2355 66.4006 44.8155C65.6106 45.9355 65.0306 47.2155 64.4906 48.5055L64.4706 48.5155Z" fill="#753001"/>
<path d="M4.23035 23.7456C4.26035 25.9656 7.36035 30.4056 7.94035 32.5156C8.21035 33.4956 8.65035 34.3756 8.85035 35.4256C9.05035 36.4956 8.81035 37.7656 9.17035 38.7056C13.4603 38.3756 15.0203 35.2156 13.9903 30.9556C13.0003 26.8556 7.37035 24.3956 4.24035 23.7556L4.23035 23.7456Z" fill="#77481E"/>
<path opacity="0.64" d="M6.21036 23.7456C4.23036 23.7456 4.42036 24.1856 4.37036 24.6656C5.72036 26.4756 9.41036 31.9056 9.71036 34.0156C10.0204 33.8956 10.3204 33.7456 10.6004 33.5656C11.2004 33.0056 11.8004 32.3556 11.9704 31.5856C12.4604 29.4656 10.3804 27.8456 8.61036 26.7056C8.39036 26.6656 6.44036 23.7956 6.20036 23.7456H6.21036Z" fill="#512405"/>
<path d="M78.8703 28.4357C78.8703 28.4357 78.1203 20.8857 68.8803 19.1357C68.5404 19.0757 65.0004 17.9657 65.0004 17.6857C65.0004 17.3957 57.9703 12.8557 46.7303 12.4657C43.8603 12.3657 35.9103 13.2057 31.6703 13.6657C30.1603 13.8357 29.1203 13.9457 28.9503 13.9557L24.8003 14.0457C21.0203 14.2957 17.8603 17.5057 17.8103 17.5157C16.2303 17.7157 16.0403 17.6057 11.4403 18.7957C7.41035 19.8357 4.76035 22.2657 4.22035 23.7357C3.76035 25.0057 7.85035 24.6257 7.89035 25.8657C7.89035 25.8657 2.90035 26.6957 2.05035 28.1457C2.05035 28.1457 1.06035 34.0057 7.86035 36.8457L7.69035 38.9557C10.4403 40.8257 17.7203 43.4457 19.0503 43.3957C19.0503 43.3957 22.6903 41.2657 23.1303 41.3457C25.4103 41.7657 30.4103 45.8057 31.4403 46.0157C33.5203 46.4357 36.0704 45.4457 37.9903 45.8957C39.4804 45.5757 40.9903 45.4757 42.5103 45.5057C47.0003 45.0257 51.5503 45.1057 55.8803 46.3257C57.7003 44.4857 60.4403 42.1457 60.6903 42.5557C60.6903 42.5557 66.2303 42.5257 67.8403 43.4157C68.2403 41.5657 66.4703 40.1557 66.4703 40.1557C66.4703 40.1557 73.6103 37.3557 76.2303 36.0457C76.7703 35.7757 79.2703 32.8957 78.8603 28.4557L78.8703 28.4357Z" fill="url(#paint13_linear_303_70932)"/>
<path d="M18.5508 43.3457C18.7608 43.3857 18.9408 43.4057 19.0608 43.4057C19.0608 43.4057 22.7008 41.2757 23.1408 41.3557C25.4208 41.7757 30.4208 45.8157 31.4508 46.0257C33.5308 46.4457 36.0808 45.4557 38.0008 45.9057C39.4908 45.5857 41.0008 45.4857 42.5208 45.5157C47.0108 45.0357 51.5608 45.1157 55.8908 46.3357C56.0908 46.1357 56.3008 45.9257 56.5208 45.7157C55.2208 45.3657 53.9208 45.0457 52.6108 44.7657C49.4208 45.0457 46.0908 44.7657 42.9608 45.0557C39.0708 45.4357 32.5508 45.8957 30.6008 45.1557C28.2408 44.2657 26.3008 42.3957 24.2208 40.9857C23.6008 40.5657 20.3608 42.0557 18.5508 43.3657V43.3457Z" fill="#FFCE31"/>
<path d="M13.1804 41.6157C12.0304 40.6957 10.8304 39.8657 9.39036 39.3657C8.65036 39.1057 8.06036 38.1557 8.60036 37.4157C9.33036 36.4157 9.09036 36.3457 7.99036 35.8557C7.06036 35.4457 6.24036 35.0057 5.39036 34.4457C4.32036 33.7357 3.63036 32.7257 3.03036 31.6157C2.32036 30.3057 2.09036 28.7957 2.67036 27.5557C2.40036 27.7357 2.18036 27.9357 2.06036 28.1457C2.06036 28.1457 1.07036 34.0057 7.87036 36.8457L7.70036 38.9557C8.93036 39.7957 11.0804 40.7857 13.1904 41.6157H13.1804Z" fill="#FFCE31"/>
<path d="M7.70031 20.4756C8.37031 19.9556 9.15031 19.6557 9.90031 19.2957C6.75031 20.4857 4.70031 22.4757 4.23031 23.7457C3.79031 24.9457 7.4303 24.6757 7.8503 25.6857C7.9703 25.6557 8.09031 25.6156 8.21031 25.5656C9.46031 25.0456 7.28031 24.3856 7.04031 24.3456C6.55031 24.2656 6.07031 24.2156 5.57031 24.2056C5.10031 24.2056 4.92031 23.6657 5.20031 23.3257C6.01031 22.3657 6.68031 21.2457 7.6903 20.4657L7.70031 20.4756Z" fill="#FFCE31"/>
<path d="M78.8704 28.4358C78.8704 28.4358 78.6204 30.3658 78.3704 31.6258C78.1204 32.8858 76.9904 35.5358 74.7404 36.4158C72.9504 37.1258 67.3004 38.5358 65.7804 40.1358C66.5704 41.0758 67.2704 42.0758 67.6304 43.2958C67.7104 43.3258 67.7804 43.3658 67.8404 43.3958C68.2404 41.5458 66.4704 40.1358 66.4704 40.1358C66.4704 40.1358 73.6104 37.3358 76.2304 36.0258C76.7704 35.7558 79.2704 32.8758 78.8604 28.4358H78.8704Z" fill="#FFCE31"/>
<path d="M67.0104 43.0958C65.0404 42.2458 60.1404 42.0258 59.8204 42.2558C58.8604 42.9558 57.3804 44.3758 56.5104 45.2258C56.3104 45.5858 56.1104 45.9358 55.9104 46.2958C57.7304 44.4558 60.4504 42.1358 60.7004 42.5458C60.7004 42.5458 64.8504 42.5258 67.0104 43.0958Z" fill="#FFCE31"/>
<path d="M62.4199 57.5158C63.2299 56.4958 64.0499 55.3858 65.3299 54.9458C66.3899 54.4258 67.7199 53.7758 67.7199 53.7758C67.7199 53.7758 69.0199 51.7157 69.2099 50.0957C68.8599 49.7157 68.4599 49.4058 68.0699 49.0758C67.9199 48.9558 67.8099 48.7958 67.7499 48.6358C67.7499 48.6358 67.7399 48.6357 67.7299 48.6257C67.4099 48.3557 67.0799 48.1158 66.7499 47.9058C66.5499 47.8158 66.3399 47.7258 66.1299 47.6458C64.3399 48.1258 62.2799 48.3058 60.9099 49.5058C60.6499 50.3358 60.5199 51.2158 60.3199 52.0358C59.9999 53.3258 59.6199 54.5557 59.4799 55.8757C59.3599 56.9657 59.1599 58.0458 58.9199 59.1158C59.1299 59.3258 59.3399 59.5458 59.5599 59.7458C60.0799 59.7058 60.6499 59.7458 61.0899 59.5058C61.5799 59.2358 62.0599 57.9658 62.4099 57.5258L62.4199 57.5158Z" fill="url(#paint14_linear_303_70932)"/>
<path d="M62.1103 56.1658C62.6303 55.3358 63.1903 54.5258 63.7403 53.7158C64.1603 53.0958 64.4503 52.4058 64.8303 51.7558C63.9403 51.1058 63.8403 50.2558 62.8603 49.7958C62.5303 49.6358 61.0303 49.8558 60.6903 49.7058C60.4703 50.4658 60.5303 51.2658 60.3403 52.0158C60.0203 53.3058 59.6403 54.5358 59.5003 55.8558C59.3803 56.9458 59.1803 58.0258 58.9403 59.0958C59.1503 59.3058 59.3603 59.5258 59.5803 59.7258C59.8703 59.7058 60.1803 59.7058 60.4703 59.6658C60.8703 58.4358 61.4203 57.2758 62.1103 56.1658Z" fill="#B8610F"/>
<path d="M63.3608 50.4055C63.3608 50.4055 62.7408 50.1955 62.2108 50.6155C62.2108 50.6155 62.0608 51.1355 61.8108 52.1755C61.5608 53.2155 61.3808 54.2455 61.0908 54.6655C60.8008 55.0855 60.5908 56.4655 60.5908 56.4655C60.5908 56.4655 61.8108 54.0155 62.0708 53.3255C62.3308 52.6455 62.6808 50.9955 62.6808 50.9955L63.3608 50.3955V50.4055Z" fill="#7F3803"/>
<path d="M61.3008 50.9759C61.3608 50.7159 61.3808 50.4459 61.4508 50.2159C61.5108 49.9859 62.0008 49.7859 61.9308 49.5359C61.6608 49.4159 61.1708 49.7359 61.0208 49.9559V49.8959C61.0408 50.4159 61.0208 50.9159 61.0508 51.4259C61.0708 51.8459 60.9108 52.2559 60.9508 52.6559C61.0108 52.1059 61.1808 51.5159 61.3108 50.9759H61.3008Z" fill="#7F3803"/>
<path d="M64.7007 52.1155C65.0807 52.0455 65.4707 51.9655 66.0607 51.8355C66.2907 51.7855 67.1407 51.6255 67.5907 51.3555C68.1907 51.0055 69.2407 50.3255 69.2207 50.0855C69.1607 49.4655 66.8707 48.1455 66.2807 47.8255C66.1907 47.7755 66.1007 47.7255 66.0007 47.6655C64.1007 48.1555 61.9907 48.2655 60.6807 49.7055C60.7407 49.7455 60.8607 49.8155 61.0107 49.8955C61.0907 49.9455 61.5307 49.6955 61.6207 49.7455C61.7107 49.8055 61.4507 50.1555 61.4507 50.1555C61.7607 50.3355 62.1407 50.5655 62.2107 50.6155L63.0307 50.4655L62.6807 50.9955C63.3407 51.3855 63.9907 51.7555 64.7007 52.1055V52.1155Z" fill="url(#paint15_linear_303_70932)"/>
<path d="M66.0507 51.8357C66.2807 51.7857 67.1307 51.6257 67.5807 51.3557C68.1607 51.0157 69.1707 50.3657 69.2007 50.1057C67.5807 51.3557 64.6907 52.1057 62.8107 50.7957L62.6807 50.9957C63.3407 51.3857 63.9907 51.7557 64.7007 52.1057C65.0807 52.0357 65.4707 51.9557 66.0607 51.8257L66.0507 51.8357Z" fill="#F99117"/>
<path d="M41.2504 61.3557C41.2504 61.3557 41.3204 61.3957 41.3504 61.4057C42.1204 59.0057 42.2704 56.4957 42.8704 54.0557C43.0004 53.5157 43.6504 51.7657 42.9604 51.4257C42.4804 51.1957 41.9104 51.1057 41.4604 50.8457C40.8104 50.4657 40.1404 50.0857 39.4604 49.7557C39.0404 49.5557 37.6704 48.8557 37.2604 49.3757C36.5404 50.3057 37.4504 52.3357 37.6804 53.3257C38.1604 55.4257 38.8004 57.6957 38.4104 59.8257C39.3604 60.3357 40.3004 60.8657 41.2604 61.3557H41.2504Z" fill="#B25A10"/>
<path d="M42.8707 54.0655C43.0007 53.5255 43.6507 51.7755 42.9607 51.4355C42.4807 51.2055 41.9107 51.1155 41.4607 50.8555C40.8107 50.4755 40.1407 50.0955 39.4607 49.7655C39.0607 49.5755 37.8207 48.9455 37.3407 49.3155C38.8607 50.7555 41.4007 50.7955 41.5607 53.3655C41.6607 54.8955 41.6807 56.4655 41.7407 57.9955C41.7607 58.6855 41.7707 59.3855 41.7407 60.0755C42.2107 58.0855 42.4007 56.0555 42.8907 54.0655H42.8707Z" fill="#BD5C14"/>
<path d="M42.0201 51.4356C42.0401 51.4956 42.0601 51.5656 42.0801 51.6556C42.4301 51.4456 42.8201 51.3256 43.2101 51.1656C43.6701 50.9756 44.1301 50.8056 44.6001 50.6356C44.6001 50.5656 44.6001 50.4956 44.6001 50.4256C44.5801 50.0656 42.1901 48.5156 42.1901 48.5156C42.1901 48.5156 38.9001 48.6956 38.9001 48.7556C38.9001 48.7556 36.6501 48.8656 38.1001 49.9156C38.0901 49.9656 41.7701 51.2656 42.0301 51.4256L42.0201 51.4356Z" fill="#D87C12"/>
<path d="M37.9504 48.9355C37.4904 49.0455 37.2404 49.3755 37.2404 49.3755C37.2304 49.4255 38.6804 50.5855 42.0104 51.4255C42.0304 51.4855 42.0504 51.5555 42.0704 51.6455C42.4204 51.4355 42.8104 51.3155 43.2004 51.1555C43.6604 50.9655 44.1204 50.7955 44.5904 50.6255C44.5904 50.5555 44.5904 50.4855 44.5904 50.4155C44.5904 50.3755 44.5604 50.3255 44.5104 50.2655C41.7504 51.8055 40.0004 50.6555 38.3004 49.8655C37.6204 49.5455 37.3304 49.2955 37.9604 48.9355H37.9504Z" fill="#F99117"/>
<path d="M44.5904 50.4257C44.5904 50.4257 44.5704 50.3557 44.5404 50.3157C43.7504 50.8257 42.8804 51.2057 41.9704 51.4057C41.9704 51.4057 41.9904 51.4657 42.0004 51.4657C42.4704 52.5557 41.7804 59.8857 41.2604 61.4557C42.1304 60.2257 44.7604 53.0657 44.5904 50.4157V50.4257Z" fill="#893B00"/>
<path d="M41.3301 61.3657C41.7601 59.9657 41.9501 58.5957 42.0801 57.1457C42.1501 56.2757 42.3002 55.4257 42.3902 54.5657C42.4402 54.0357 42.4701 53.4757 42.6101 52.9557C42.9001 51.9157 43.4702 51.2057 44.4902 50.8157C44.5302 50.8057 44.5701 50.7957 44.6101 50.7757C44.6101 50.6557 44.6101 50.5357 44.6101 50.4357C44.6101 50.4057 44.5902 50.3657 44.5602 50.3257C43.7702 50.8357 42.9002 51.2157 41.9902 51.4157C41.9902 51.4157 42.0101 51.4757 42.0201 51.4757C42.4901 52.5657 41.8002 59.8957 41.2802 61.4657C41.3002 61.4357 41.3201 61.4057 41.3401 61.3657H41.3301Z" fill="#7C3403"/>
<path d="M35.7107 64.2957C35.9107 65.5957 36.0307 66.8657 36.4007 68.1357C36.7007 69.1857 36.9307 70.2457 37.1207 71.3157C37.4007 71.4357 37.6707 71.5457 37.9507 71.6457C38.4207 71.4057 38.9507 71.2357 39.2607 70.8457C39.6107 70.4157 39.5607 69.0657 39.7207 68.5257C40.0807 67.2857 40.4007 65.9557 41.4107 65.0557C42.1807 64.1757 43.1507 63.0657 43.1507 63.0657C43.1507 63.0657 43.5507 60.6757 43.1207 59.1157C42.6607 58.9057 42.1807 58.7757 41.6807 58.6157C41.5007 58.5557 41.3407 58.4557 41.2207 58.3257C41.2207 58.3257 41.2107 58.3257 41.2007 58.3257C40.8007 58.2057 40.4107 58.1057 40.0307 58.0357C38.6807 57.9957 37.2407 58.1457 36.2207 58.8457C35.9007 59.1857 35.6107 59.5457 35.3307 59.9157C35.3507 60.0157 35.3507 60.1257 35.3307 60.2557C35.0907 61.5957 35.5107 62.9657 35.7107 64.2757V64.2957Z" fill="#7F3803"/>
<path d="M39.4803 64.5556C39.6303 63.8256 39.6403 63.0856 39.7303 62.3456C38.6703 62.0856 37.4903 62.0556 36.4103 61.9956C36.0403 61.9756 35.6803 61.9656 35.3103 61.9656C35.4003 62.7456 35.5903 63.5356 35.7103 64.2956C35.9103 65.5956 36.0303 66.8656 36.4003 68.1356C36.7003 69.1856 36.9303 70.2456 37.1203 71.3156C37.4003 71.4356 37.6703 71.5456 37.9503 71.6456C38.2103 71.5156 38.5003 71.3956 38.7503 71.2556C38.6503 69.9756 38.7103 68.6956 38.9203 67.4156C39.0803 66.4556 39.2903 65.5056 39.4803 64.5456V64.5556Z" fill="#B8610F"/>
<path opacity="0.75" d="M36.4103 61.9956C36.0403 61.9756 35.6803 61.9656 35.3103 61.9656C35.4003 62.7456 35.5903 63.5356 35.7103 64.2956C35.9103 65.5956 36.0303 66.8656 36.4003 68.1356C36.7003 69.1856 36.9303 70.2456 37.1203 71.3156C37.4003 71.4356 37.6703 71.5456 37.9503 71.6456C38.0803 71.5756 38.2303 71.5156 38.3703 71.4456C38.3103 71.0356 38.2803 70.6156 38.2403 70.2056C38.1403 69.1956 37.9103 68.2256 37.7103 67.2356C37.5503 66.4356 37.3903 65.6156 37.3503 64.8056C37.2103 63.8856 37.1703 62.9556 37.2603 62.0356C36.9703 62.0156 36.6903 62.0056 36.4203 61.9956H36.4103Z" fill="#9F5204"/>
<path d="M42.1199 60.9256C42.5299 60.3756 43.2399 59.3556 43.1299 59.1356C42.8399 58.5956 40.2299 58.2456 39.5799 58.1756C38.5899 58.0756 37.3599 57.7356 36.3499 57.8756C35.6799 59.2656 33.6899 60.2856 32.8399 61.5556L32.7399 61.7156C32.6899 61.7756 35.1799 62.1356 35.7799 62.2156C37.1399 62.3956 38.3999 62.6256 39.7699 62.7156C40.0899 62.5156 40.4199 62.2856 40.9099 61.9456C41.0999 61.8056 39.8299 61.9756 39.9499 61.8156C40.0699 61.6556 41.8199 61.3356 42.1299 60.9256H42.1199Z" fill="#CB7010"/>
<path opacity="0.69" d="M35.7603 62.2256C36.2603 62.2956 36.7403 62.3656 37.2203 62.4356C37.2503 62.4356 37.4903 61.8056 38.8803 60.4956C39.3603 60.0356 35.6703 59.5356 34.9403 59.2056C34.0603 60.1756 33.4703 60.5856 32.8203 61.5556L32.7203 61.7156C32.6703 61.7756 35.1603 62.1356 35.7603 62.2156V62.2256Z" fill="#A95708"/>
<path d="M39.6803 62.5257C39.6203 62.5657 38.9403 62.5257 38.8603 62.5457C38.7603 62.5757 38.6603 62.5857 38.5603 62.6057C38.9503 62.6457 39.3503 62.6857 39.7503 62.7157C40.0703 62.5157 40.4003 62.2857 40.8903 61.9457C41.0803 61.8057 39.8103 61.9757 39.9303 61.8157C40.0503 61.6557 41.8003 61.3357 42.1103 60.9257C42.2803 60.6957 42.5003 60.3957 42.6903 60.0957C42.1703 60.6657 41.6503 61.0757 40.9503 61.2257C40.7203 61.3657 39.4803 61.8457 39.3403 61.9157C39.0103 62.0757 40.7603 61.9757 40.4203 62.0957C40.2503 62.1557 39.9303 62.5157 39.6803 62.5257Z" fill="#E07D15"/>
<path d="M30.9899 57.5957C30.0299 57.5457 29.0799 57.4957 28.1299 57.3657C28.4399 58.0457 28.7199 58.7457 28.9899 59.4457C29.2399 60.1157 29.5699 60.7657 29.7699 61.4557C29.7899 61.4457 29.7999 61.4357 29.7999 61.4357C30.1599 62.4657 31.0099 64.0357 31.5399 65.3057C31.8599 66.0857 32.0299 66.9557 32.2799 67.7357C32.7999 68.0257 33.3599 68.2557 33.8199 68.6357C33.8599 68.6657 33.8999 68.6957 33.9399 68.7257C34.0799 68.8057 34.1699 68.8857 34.1699 68.8857C34.4799 69.5257 35.0399 70.1557 35.5899 70.6857C36.3899 70.9757 37.1699 71.3557 37.9499 71.6457C38.0599 70.7157 38.0099 69.8757 37.7399 68.8857C37.4199 67.7357 37.0399 66.5957 36.7399 65.4457C36.5499 64.7257 36.3699 63.9557 36.4599 63.2057C36.2399 61.5557 36.3699 59.6957 36.3699 59.6957C35.4499 59.0357 32.0699 57.6557 30.9799 57.5957H30.9899Z" fill="#B6510E"/>
<path d="M28.1304 57.3757C28.4404 58.0557 28.7204 58.7557 28.9904 59.4557C29.0804 59.6757 29.1703 59.9057 29.2603 60.1257C29.7703 60.0657 30.2404 60.2057 30.6504 60.4857C32.1504 61.3457 32.8604 63.6157 33.1504 65.1557C33.3604 66.2657 33.5304 67.3757 33.6304 68.4957C33.6804 68.5257 33.7303 68.5657 33.7803 68.6057C33.8303 68.6457 33.8904 68.6857 33.9304 68.7257C34.0704 68.8057 34.1504 68.8857 34.1504 68.8857C34.3104 69.2157 34.5403 69.5557 34.8004 69.8757C34.8104 67.9257 35.2203 65.9757 35.0303 64.0257C34.8503 62.2057 34.5804 60.1357 32.7704 59.2557C31.5304 58.6557 30.0604 58.2657 28.9104 57.4657C28.6404 57.4457 28.3704 57.4157 28.1104 57.3757H28.1304Z" fill="#AD4C09"/>
<path d="M36.1804 59.5657C34.9304 60.1357 33.5904 60.4857 32.4704 61.2857C32.4304 61.3057 32.4004 61.3257 32.3704 61.3457C32.3904 61.4057 32.4104 61.4657 32.4204 61.5357C33.1604 63.9357 33.8904 66.3657 34.1504 68.8657C34.1604 68.8657 34.1704 68.8857 34.1704 68.8857C34.4804 69.5257 35.0404 70.1557 35.5904 70.6857C36.3904 70.9757 37.1704 71.3557 37.9504 71.6457C38.0604 70.7157 38.0104 69.8757 37.7404 68.8857C37.4204 67.7357 37.0404 66.5957 36.7404 65.4457C36.5504 64.7257 36.3704 63.9557 36.4604 63.2057C36.2404 61.5557 36.3704 59.6957 36.3704 59.6957C36.3204 59.6557 36.2504 59.6057 36.1704 59.5657H36.1804Z" fill="#9F4907"/>
<path d="M36.2404 59.6057C36.2404 59.6057 36.2004 59.5757 36.1804 59.5657C34.9304 60.1357 33.5904 60.4857 32.4704 61.2857C32.4304 61.3057 32.4004 61.3257 32.3704 61.3457C32.3904 61.4057 32.4104 61.4657 32.4204 61.5357C33.1604 63.9357 33.8904 66.3657 34.1504 68.8657C34.1604 68.8657 34.1704 68.8857 34.1704 68.8857C34.3104 69.1757 34.5004 69.4557 34.7104 69.7357C34.7104 69.1557 34.7104 68.5657 34.6904 67.9857C34.6404 66.9657 34.5004 66.0157 34.1404 65.0557C33.8704 64.3157 33.6104 63.5857 33.4804 62.8157C33.2104 62.5057 33.1304 62.0557 33.5004 61.6657C34.3004 60.8257 35.2404 60.1657 36.2404 59.6157V59.6057Z" fill="#933C02"/>
<path d="M30.9299 59.9457C31.5599 60.6157 32.2199 60.9357 32.5599 61.6057C33.8099 60.7857 35.1899 60.4057 36.3699 59.6957C35.7899 58.9557 32.4199 56.6357 31.9099 57.0657C31.0499 57.1057 28.9799 57.2757 28.1299 57.3657C28.3899 57.9157 29.2499 58.5657 29.9999 59.1457C30.1899 59.2957 30.4699 59.3657 31.4299 59.3457C31.4299 59.3457 30.8299 59.8357 30.9399 59.9457H30.9299Z" fill="url(#paint16_linear_303_70932)"/>
<path d="M30.9304 59.9457C31.5604 60.6157 32.2204 60.9357 32.5604 61.6057C33.8104 60.7857 35.1904 60.4057 36.3703 59.6957C36.3503 59.6657 36.3303 59.6457 36.3004 59.6157C35.1804 60.0657 34.0404 60.4557 32.9204 60.9157C32.2604 61.1857 31.6504 60.4857 31.7704 59.8657C31.8304 59.5757 31.9304 59.2957 32.0604 59.0357C32.0704 59.0157 32.0803 58.9957 32.1003 58.9757C31.6303 59.0457 31.1204 59.1957 30.6404 59.0957C29.6204 58.8857 28.9604 58.1157 28.3404 57.3357C28.2504 57.3357 28.1804 57.3557 28.1104 57.3557C28.3704 57.9057 29.2304 58.5557 29.9804 59.1357C30.1704 59.2857 30.4504 59.3557 31.4104 59.3357C31.4104 59.3357 30.8104 59.8257 30.9204 59.9357L30.9304 59.9457Z" fill="#F99117"/>
<path opacity="0.64" d="M13.1401 25.7159C13.1501 25.5759 13.1501 25.4659 13.1401 25.3359C11.7301 25.2759 9.12008 25.0659 7.86008 25.6959C7.88008 25.7559 7.90008 25.8159 7.90008 25.8759C7.90008 25.8759 7.78008 25.8959 7.58008 25.9359C9.34008 26.1259 11.3601 25.8059 13.1401 25.7159Z" fill="#753001"/>
<path opacity="0.64" d="M14.1708 35.1258C12.2208 35.0558 9.82083 35.7858 8.10083 36.7358C10.2008 36.0958 12.3508 35.6858 14.5808 35.5358C15.2108 34.2358 16.3608 33.0158 17.3608 31.9458C16.9508 31.9958 16.4908 32.0758 16.0608 32.0558C15.6108 33.1958 14.6308 33.9858 14.1608 35.1258H14.1708Z" fill="#753001"/>
<path opacity="0.64" d="M8.10036 36.7358C8.10036 36.7358 8.05036 36.7458 8.03036 36.7558C8.03036 36.7658 8.01037 36.7758 8.00037 36.7858C8.03037 36.7658 8.07036 36.7458 8.10036 36.7358Z" fill="#753001"/>
<path opacity="0.64" d="M8.00033 36.7859C8.00033 36.7859 7.98033 36.7959 7.97033 36.8059C7.95033 36.8459 7.97033 36.8259 8.00033 36.7859Z" fill="#753001"/>
<path opacity="0.64" d="M8.08036 36.6958L7.87036 36.7958C7.92036 36.7758 7.97036 36.7658 8.03036 36.7558C8.05036 36.7358 8.07036 36.7058 8.08036 36.6958Z" fill="#753001"/>
<path opacity="0.64" d="M23.301 41.3856C23.301 41.3856 23.371 41.3056 23.401 41.2456H23.281C23.281 41.2456 23.261 41.3256 23.251 41.3656C23.271 41.3656 23.291 41.3656 23.301 41.3756V41.3856Z" fill="#753001"/>
<path opacity="0.64" d="M28.1506 37.9257C26.9606 38.2957 25.5706 38.6156 24.3406 38.8756C23.4906 39.0556 23.2806 38.7857 23.0706 39.5157C22.9306 40.0057 23.2306 40.9657 23.2006 41.2557H23.2906C23.4106 40.7557 23.5606 40.1857 23.5306 39.6157C24.8406 39.2757 27.6306 37.9657 28.8706 38.4457C29.2006 37.5657 29.5706 36.6857 30.1206 35.8957C29.7706 35.6557 29.3506 35.6157 28.9106 35.6757C28.6306 36.4157 28.2406 37.1457 28.1506 37.9157V37.9257Z" fill="#753001"/>
<path opacity="0.64" d="M57.52 40.4257C58.4 40.4957 59.29 42.2557 60.15 42.5957C59.65 41.5857 58.59 40.7557 58.16 39.7157C57.17 39.7757 56.08 40.2157 55.09 40.2057C54.82 38.8957 54.75 37.4057 54.33 36.0957C53.02 36.2357 53.89 37.7457 54.04 38.6657C54.17 39.4757 54.45 41.0057 54.45 41.0057C55.18 40.6757 57.08 40.3957 57.52 40.4257Z" fill="#753001"/>
<path opacity="0.64" d="M74.22 29.1157C75.74 28.6557 77.31 28.4957 78.84 28.2557C78.81 28.0757 78.75 27.7457 78.63 27.3257C77.11 27.4957 75.67 28.0757 74.22 28.5157C72.75 28.9657 70.68 27.9557 69.46 28.0957L69.77 28.3057C70.47 28.5457 71.39 28.9257 72.17 29.2157C73.08 29.5457 73.34 29.3857 74.22 29.1157Z" fill="#753001"/>
<path d="M13.1203 36.5656C14.9503 36.2656 15.8303 35.5756 16.5903 33.7756C15.9903 33.9956 15.6803 34.8656 15.1303 35.2756C14.5103 35.7356 13.8503 35.7056 13.0103 35.8256C11.8303 35.9956 9.46034 36.2456 8.53034 36.8456H8.63034C8.63034 36.8456 8.43034 37.4856 8.35034 37.7256C9.87034 37.0756 11.4103 36.8456 13.1103 36.5656H13.1203Z" fill="#FFCE31"/>
<path d="M28.2504 38.7357C27.5504 38.8957 26.9704 38.9058 26.2804 39.1558C25.2604 39.5458 23.0504 39.4058 23.6704 41.0158H23.7704C23.9104 41.1158 24.5104 41.3358 24.8504 41.5058C24.9104 41.1358 24.8804 40.7458 24.7604 40.4258C25.7304 39.4258 28.0804 38.9958 29.4304 39.0158C29.3904 38.5358 29.5104 38.0958 29.5204 37.6458C28.8604 38.2658 29.2104 38.5157 28.2504 38.7357Z" fill="#FFCE31"/>
<path d="M58.5399 39.6355C58.8199 39.8955 59.0699 40.6655 59.3299 41.0255C59.6399 41.4355 60.0399 41.8155 60.2999 42.2255H60.5999C60.6699 42.2155 61.3299 42.2455 61.5899 42.3055C60.8299 41.2055 59.6599 40.0155 59.5899 38.5455C58.9999 38.6755 57.0499 39.2255 56.5299 39.0455C55.9699 38.8455 55.4399 37.3355 55.2299 36.9355C55.2299 37.7755 55.1399 38.8655 55.4499 39.6155C56.3899 39.6455 57.8699 39.0155 58.5399 39.6355Z" fill="#FFCE31"/>
<path opacity="0.25" d="M19.6806 25.5559C19.0006 26.0459 18.9506 27.1959 18.7706 27.9259C18.3206 29.7159 18.3706 32.0959 18.5306 33.8559C20.0706 33.8559 21.2806 33.8559 23.0906 34.0559C28.6406 34.6859 39.2406 37.7759 39.4806 37.7359C39.6606 37.7059 41.2606 36.0759 42.8906 35.8659C45.9406 35.4859 46.6406 37.2359 47.6706 37.2859C49.5806 37.3859 61.5306 31.4759 64.3006 30.7959C65.7906 30.4359 66.8006 30.2559 68.6906 30.2559C69.0006 24.1059 62.5806 23.7159 57.8706 24.2059C52.8006 24.7259 47.9806 26.4459 42.8806 26.8659C36.7506 27.3659 30.5006 26.5759 24.4306 25.7659C23.3206 25.6159 20.6906 24.8459 19.6706 25.5759L19.6806 25.5559Z" fill="#753001"/>
<path d="M18.3009 26.2257C17.4009 27.3757 17.0009 33.2057 18.5409 33.8457C18.5909 33.7957 18.6109 33.7757 18.6309 33.7557L18.5309 33.7057C18.5309 33.7057 18.4809 33.6957 18.4609 33.6757C18.4709 33.6957 18.5009 33.7057 18.5309 33.7057C18.5909 33.7057 18.6609 33.7057 18.6309 33.7557H18.6609C19.8109 33.2557 20.8709 32.5757 22.1009 32.1657C22.2409 31.0657 22.1009 30.1757 22.5809 29.1057C23.0809 27.9857 23.7809 27.6857 24.6209 26.8457C23.9209 24.3057 19.7109 24.4357 18.3109 26.2357L18.3009 26.2257Z" fill="#753001"/>
<path d="M64.8003 27.0458C65.2103 27.5658 65.2003 28.9458 65.5403 29.2758C65.8903 29.5858 67.8003 29.8658 68.7003 30.2458C69.3003 29.4158 69.3003 27.7458 69.1503 27.1458C68.9203 26.2158 68.0603 25.2058 67.2103 24.6958C65.1103 23.4558 63.3803 24.8858 62.0703 26.4758C63.0603 26.5358 64.1503 26.2058 64.8103 27.0558L64.8003 27.0458Z" fill="#753001"/>
<path d="M46.2906 36.1658C46.5406 36.5958 47.3806 37.0358 47.6806 37.2758C48.1106 36.6958 48.4106 36.7358 48.6106 35.9158C48.8006 35.1458 48.7006 34.3258 48.5106 33.5858C48.1006 31.9158 47.3506 30.1958 45.8106 29.2758C44.1206 28.2658 42.1206 27.8658 40.3006 28.7558C38.5706 29.6058 38.1506 30.9158 38.1506 32.7458C38.1506 33.7158 38.1906 34.6758 38.5006 35.5458C38.6506 35.9658 38.8206 36.3758 38.9906 36.7558C39.0906 36.9958 39.4106 37.5358 39.4806 37.7258C39.9606 37.3958 40.5606 36.3958 40.5206 35.7158C39.9606 32.6858 40.3006 28.7558 43.4306 28.8258C46.2506 28.8858 46.3906 32.2158 46.1806 34.5158C46.1206 35.1458 46.0106 35.6858 46.2906 36.1658Z" fill="#753001"/>
<path d="M15.4106 7.69575L15.1206 7.98574C14.9106 8.86574 14.3406 10.1757 14.5906 10.9857C14.8006 11.6257 18.2706 10.9357 18.7806 10.6057C21.1306 9.04575 16.2806 7.02575 15.4106 7.69575Z" fill="#A54908"/>
<path d="M64.1106 26.0059C64.6906 25.2159 65.5506 24.9359 66.7606 25.7059C68.2906 26.6759 68.7306 28.3859 68.6906 30.2459C68.8006 30.1959 68.9006 30.1459 69.0006 30.0959C69.4206 29.8859 71.3706 27.6459 71.0506 24.1859C71.0506 24.1859 69.3406 16.3759 66.4006 9.19591C66.3006 8.94591 60.2606 16.0359 60.2606 15.8259C60.2606 15.5959 54.7906 12.0659 46.0506 11.7659C43.8206 11.6859 37.6306 12.3459 34.3306 12.7059C33.1506 12.8359 32.3506 12.9259 32.2106 12.9359L28.9806 13.0059C26.0406 13.1959 23.5806 15.6959 23.5406 15.7059C22.3106 15.8659 22.1606 15.7759 18.5806 16.6959C15.4506 17.5059 14.0106 10.6159 13.5906 11.7559C13.2306 12.7359 11.9406 22.8359 11.2706 23.9659C11.2706 23.9659 10.5006 28.5259 15.7906 30.7359L15.6606 32.3759C16.3506 32.8459 17.4106 33.3759 18.5606 33.8759C18.5306 31.5259 18.1806 28.6559 20.2406 27.2259C21.5206 26.3359 23.2106 26.4359 23.9606 27.9559C24.9806 30.0059 25.2506 33.1559 24.8006 35.8859C26.3406 36.2159 33.4206 37.7159 34.1406 37.8559C35.7606 38.1759 37.7406 37.4159 39.2406 37.7559C39.3206 37.7359 39.4006 37.7259 39.4806 37.7159C39.3806 35.6359 38.7106 32.6759 40.6106 31.2059C42.0406 30.0959 43.8106 29.4159 45.3906 30.6359C47.1406 31.9859 47.8006 34.7559 47.6706 37.2659C49.5306 37.3359 51.3706 37.5859 53.1606 38.0859C54.5706 36.6559 56.7106 34.8359 56.9006 35.1559L61.3906 33.2859C61.3906 33.2859 62.0806 33.0159 63.0606 32.6259C63.0106 32.5259 62.9606 32.4159 62.9306 32.2759C62.5306 30.2059 62.4306 28.1559 63.7406 26.3859C63.8406 26.2459 63.9606 26.1159 64.0906 25.9959L64.1106 26.0059Z" fill="url(#paint17_linear_303_70932)"/>
<path d="M44.0911 23.2358C46.9211 23.4158 49.5511 23.9158 50.0911 27.6458C50.4811 30.3058 50.2811 33.1259 51.0211 35.7159C51.2211 36.4059 51.4411 37.0758 51.6811 37.7458C52.1811 37.8458 52.6711 37.9558 53.1611 38.0958C53.3211 37.9358 53.4911 37.7658 53.6711 37.5958C53.7011 34.8158 52.4611 31.9558 52.2811 29.1358C52.1211 26.7558 52.1311 24.3758 52.1411 21.9858C49.3411 22.1258 46.7011 22.5558 44.0811 23.2258L44.0911 23.2358Z" fill="#A54908"/>
<path opacity="0.43" d="M33.2809 23.8059C34.7709 23.5059 35.2809 24.1959 34.8909 22.3059C34.8309 21.9859 34.7809 21.7259 34.7409 21.4759C32.7909 20.1559 30.5709 19.3559 28.1709 19.5359C28.0809 19.5359 28.0109 19.5359 27.9209 19.5359C27.8409 19.6659 27.7609 19.7859 27.6309 19.9159C27.5809 19.9659 27.5309 20.0259 27.4809 20.0759C27.6009 25.3859 27.3609 30.9159 26.4209 36.2459C27.5109 36.4759 28.9109 36.7759 30.2309 37.0459C28.9409 33.9259 28.5309 30.0759 29.6209 27.4259C30.3609 25.6259 31.2609 24.2159 33.2709 23.8159L33.2809 23.8059Z" fill="#9D4705"/>
<path d="M18.1806 33.7057C18.2406 32.6458 18.3806 31.5658 18.5906 30.4958C18.6506 29.9158 18.7606 29.3458 18.9706 28.8358C19.8306 25.6258 21.2806 22.5558 23.0406 20.0758C22.9306 20.0458 22.8306 20.0158 22.7206 19.9658C21.0506 19.1758 19.4906 18.1458 17.8306 17.3658C17.5506 17.2358 15.7006 22.8358 15.5606 23.4958C15.4206 24.1158 15.3006 24.7358 15.1806 25.3658C14.9606 26.9158 14.6706 28.4558 14.3506 29.9958C14.7806 30.2658 15.2406 30.5258 15.7906 30.7558L15.6606 32.3958C16.2706 32.8158 17.1806 33.2758 18.1706 33.7258L18.1806 33.7057Z" fill="url(#paint18_linear_303_70932)"/>
<path d="M51.4705 22.9759C50.6905 23.8559 51.3405 26.5059 51.5205 27.5459C52.1005 30.8859 53.3805 34.6059 53.2005 38.0559C54.6205 36.6259 56.7105 34.8459 56.9105 35.1559L57.5205 34.9059C57.0105 33.1959 56.6005 31.4559 56.2705 29.7059C56.2505 29.6559 56.2305 29.6159 56.2105 29.5559C55.5905 27.5659 55.4305 25.5559 55.3805 23.5359C55.3305 23.0059 55.2705 22.4759 55.2205 21.9459C55.2005 21.7059 55.2105 21.4759 55.2405 21.2559C53.7605 21.5159 52.3105 22.0259 51.4705 22.9559V22.9759Z" fill="#B25A10"/>
<path d="M40.6206 31.2159C41.0406 30.8859 41.5006 30.5959 41.9706 30.3759C43.1406 27.1559 45.1506 24.2059 47.7106 22.1259C45.0206 21.8859 42.3106 21.7259 39.6006 21.8259C38.2906 21.8759 35.9806 21.6459 34.4406 22.0959C34.4406 22.1959 34.4406 22.2859 34.4406 22.3959C34.2906 23.7359 34.2306 25.0659 34.2306 26.3959C34.4606 29.4259 34.5706 32.4659 34.7506 35.5059C34.8206 36.3159 34.8906 37.1259 34.9506 37.9359C36.3906 37.9659 37.9906 37.4759 39.2506 37.7659C39.3306 37.7459 39.4106 37.7359 39.4906 37.7259C39.3906 35.6459 38.7206 32.6859 40.6206 31.2159Z" fill="#B05609"/>
<path d="M64.1105 26.0059C64.3505 25.6859 64.6405 25.4459 64.9805 25.3259C63.6705 25.1159 62.3405 24.4759 61.1905 23.4859C60.4105 22.8259 59.7105 22.0759 59.0505 21.2859C59.1205 22.4559 59.2205 23.6159 59.3705 24.7759C60.0505 27.5459 61.0705 30.2759 62.0105 33.0459C62.2905 32.9359 62.6605 32.7859 63.0805 32.6159C63.0205 32.5159 62.9805 32.4059 62.9505 32.2659C62.5505 30.1959 62.4505 28.1459 63.7605 26.3759C63.8605 26.2359 63.9805 26.1059 64.1105 25.9859V26.0059Z" fill="#B05609"/>
<path d="M68.6902 30.2458C68.8002 30.1958 68.9002 30.1458 69.0002 30.0958C69.4202 29.8858 71.3702 27.6458 71.0502 24.1858C71.0502 24.1858 70.9102 23.5258 70.6402 22.4458C69.5702 24.4058 67.9202 25.3158 66.1602 25.3958C66.3502 25.4658 66.5502 25.5658 66.7702 25.7058C68.3002 26.6758 68.7402 28.3858 68.7002 30.2458H68.6902Z" fill="#B05609"/>
<path d="M58.6606 17.9959C58.4106 18.0159 58.1706 17.9959 57.9306 17.9459C57.0006 23.3159 58.4306 28.8059 58.9906 34.2959L61.4006 33.2859C61.4006 33.2859 62.0906 33.0159 63.0706 32.6259C63.0206 32.5259 62.9706 32.4159 62.9406 32.2759C62.7006 31.0259 62.5806 29.7859 62.8006 28.6059C61.2906 25.1359 61.3606 20.7159 62.6106 17.0359C61.2606 17.5259 59.9106 17.8559 58.6606 17.9959Z" fill="#A54908"/>
<path opacity="0.64" d="M41.5906 23.3759C41.5906 23.3759 41.6506 23.3559 41.6806 23.3459C41.9006 23.2659 42.1206 23.1859 42.3506 23.1059C39.5006 22.9859 36.6606 22.5959 33.8906 22.0559C34.4006 24.4259 34.2206 26.7559 34.0306 29.2359C33.9906 29.8259 33.9606 30.4159 33.9206 31.0059C34.1906 33.3059 34.2706 35.5759 33.9206 37.8159C34.0206 37.8359 34.1006 37.8559 34.1506 37.8659C35.7706 38.1859 37.7506 37.4259 39.2506 37.7659C39.3306 37.7459 39.4106 37.7359 39.4906 37.7259C39.4906 37.5659 39.4706 37.4059 39.4606 37.2359C37.5806 37.0359 36.0706 36.9359 35.5106 36.0059C34.2906 34.0159 34.9106 27.5959 36.3806 25.7959C37.4806 24.4559 39.9906 23.8159 41.6006 23.3659L41.5906 23.3759Z" fill="#753001"/>
<path opacity="0.64" d="M56.3602 19.5459C55.6402 19.5959 54.9302 19.6659 54.2402 19.7859C52.8802 20.1259 51.5902 20.7659 50.4102 21.5559C50.4502 21.7459 50.4802 21.9459 50.4802 22.1659C50.6302 22.5159 50.7502 22.8959 50.7802 23.3459C50.8302 24.0359 50.8502 24.6959 50.8502 25.3659C50.9602 27.7059 51.1902 30.1559 51.5702 32.5859C52.1102 34.3859 52.5402 36.2059 52.9202 38.0459C53.0002 38.0659 53.0902 38.0859 53.1702 38.1059C53.3402 37.9359 53.5102 37.7659 53.6902 37.5959C53.6602 37.4859 53.6202 37.3959 53.6002 37.2759C52.4502 30.9559 51.3602 26.1159 55.4602 20.7359C55.7602 20.3459 56.0702 19.9459 56.3702 19.5459H56.3602Z" fill="#753001"/>
<path d="M13.6003 11.7658C13.2403 12.7458 11.9503 22.8458 11.2803 23.9758C11.2803 23.9758 10.4703 28.4958 15.8003 30.7458C16.3603 29.9558 16.9203 25.8558 17.1103 24.0158C17.1603 23.4858 17.5003 21.8258 17.5403 18.4158C19.4003 13.1758 13.9903 10.7058 13.6003 11.7658Z" fill="#A54908"/>
<path opacity="0.64" d="M15.8106 30.7358C16.3706 29.9458 16.9306 25.8458 17.1206 24.0058C17.1706 23.4758 17.5106 21.8158 17.5506 18.4058C19.4106 13.1658 14.0006 10.6958 13.6106 11.7558C13.4706 12.1258 13.2106 13.7958 12.8906 15.7858C16.2806 18.5258 15.3206 25.0958 13.9006 29.6458C14.4306 30.0358 15.0606 30.4058 15.8206 30.7358H15.8106Z" fill="#753001"/>
<path d="M24.8105 35.8959C25.4305 36.0259 26.9705 36.3559 28.6505 36.7059C28.3005 33.5959 28.1605 30.4759 28.2105 27.1659C28.2505 24.6559 27.8005 21.8859 28.1305 19.3259C28.0305 19.3259 27.9405 19.3459 27.8405 19.3559C26.9505 19.4359 26.0805 19.4259 25.2005 19.3559C25.7805 24.4659 26.1405 29.7959 24.9405 34.8159C24.9105 35.1759 24.8605 35.5359 24.8105 35.8859V35.8959Z" fill="#A54908"/>
<path d="M54.2606 19.9459C54.4906 25.0359 55.9006 30.1059 56.9806 35.1359L61.4006 33.2859C61.4006 33.2859 61.4506 33.2659 61.5306 33.2359C58.5306 28.7859 58.3606 23.6859 58.6806 18.5159C57.2406 19.0559 55.7306 19.5059 54.2606 19.9459Z" fill="#C4660E"/>
<path opacity="0.64" d="M59.5602 18.1758C59.5102 18.8958 59.4702 19.6158 59.4502 20.3358C60.9802 19.6058 62.5802 19.0258 64.0802 18.2258C65.6802 17.3758 67.5202 17.8658 68.4902 19.3858C69.9502 21.6558 70.6702 24.4158 69.8802 27.0758C69.5802 28.0758 69.1602 29.0058 68.7002 29.9258C68.7002 30.0258 68.7002 30.1358 68.7002 30.2358C68.8102 30.1858 68.9102 30.1358 69.0102 30.0858C69.4302 29.8758 71.3802 27.6358 71.0602 24.1758C71.0602 24.1758 69.3502 16.3658 66.4102 9.18579C66.6702 14.1358 63.5102 16.5558 59.5802 18.1658L59.5602 18.1758Z" fill="#753001"/>
<path d="M25.4409 21.4958C25.4409 21.4958 27.9709 20.0158 28.2709 20.0658C29.8509 20.3558 33.3309 23.1658 34.0409 23.3058C35.4909 23.5958 37.2609 22.9058 38.5909 23.2158C39.6209 22.9958 40.6709 22.9158 41.7309 22.9458C44.8509 22.6058 48.0109 22.6658 51.0209 23.5158C52.2809 22.2358 54.1909 20.6158 54.3609 20.8958L58.3809 21.0458C58.3809 21.0458 63.3209 17.2758 65.1509 16.3658C65.5209 16.1758 67.2609 14.1758 66.9809 11.0958C66.9809 11.0958 66.4609 5.84581 60.0409 4.63581C59.8109 4.59581 57.3509 3.81581 57.3509 3.63581C57.3509 3.43581 52.4609 0.275803 44.6609 0.00580282C42.6709 -0.0641972 37.1409 0.515807 34.2009 0.845807C33.1509 0.955807 32.4309 1.0458 32.3109 1.0458L29.4309 1.1158C26.8009 1.2858 24.6109 3.52581 24.5809 3.52581C23.4809 3.66581 23.3509 3.58581 20.1509 4.41581C17.3509 5.13581 15.5109 6.8258 15.1409 7.8458C14.8209 8.7258 17.6609 8.46581 17.6909 9.32581C17.6909 9.32581 14.2309 9.90581 13.6309 10.9058C13.6309 10.9058 12.9409 14.9758 17.6709 16.9458L17.5509 18.4058C19.4609 19.7058 24.5209 21.5258 25.4409 21.4958Z" fill="url(#paint19_linear_303_70932)"/>
<path d="M25.4409 21.4958C25.4409 21.4958 27.9709 20.0158 28.2709 20.0658C29.8509 20.3558 33.3309 23.1658 34.0409 23.3058C35.4909 23.5958 37.2609 22.9058 38.5909 23.2158C39.6209 22.9958 40.6709 22.9158 41.7309 22.9458C44.8509 22.6058 48.0109 22.6658 51.0209 23.5158C52.2809 22.2358 54.1909 20.6158 54.3609 20.8958L58.3809 21.0458C58.3809 21.0458 63.3209 17.2758 65.1509 16.3658C65.5209 16.1758 67.2609 14.1758 66.9809 11.0958C66.9809 11.0958 66.4609 5.84581 60.0409 4.63581C59.8109 4.59581 57.3509 3.81581 57.3509 3.63581C57.3509 3.43581 52.4609 0.275803 44.6609 0.00580282C42.6709 -0.0641972 37.1409 0.515807 34.2009 0.845807C33.1509 0.955807 32.4309 1.0458 32.3109 1.0458L29.4309 1.1158C26.8009 1.2858 24.6109 3.52581 24.5809 3.52581C23.4809 3.66581 23.3509 3.58581 20.1509 4.41581C17.3509 5.13581 15.5109 6.8258 15.1409 7.8458C14.8209 8.7258 17.6609 8.46581 17.6909 9.32581C17.6909 9.32581 14.2309 9.90581 13.6309 10.9058C13.6309 10.9058 12.9409 14.9758 17.6709 16.9458L17.5509 18.4058C19.4609 19.7058 24.5209 21.5258 25.4409 21.4958Z" fill="url(#paint20_linear_303_70932)"/>
<path d="M25.4406 21.4958C25.4406 21.4958 27.9706 20.0158 28.2706 20.0658C29.8506 20.3558 33.3306 23.1658 34.0406 23.3058C35.4906 23.5958 37.2606 22.9059 38.5906 23.2159C39.6206 22.9959 40.6706 22.9158 41.7306 22.9458C44.8506 22.6058 48.0106 22.6659 51.0206 23.5159C52.2806 22.2359 54.1906 20.6158 54.3606 20.8958L58.3806 21.0459C58.3806 21.0459 63.3206 17.2758 65.1506 16.3658C65.5206 16.1758 67.2606 14.1758 66.9806 11.0958C66.9806 11.0958 66.9606 10.9658 66.9206 10.7458C66.7406 11.0358 66.3706 14.6859 65.2606 15.6059C62.7606 17.6859 60.2706 19.5058 57.8906 20.2358C56.5606 20.6458 55.4306 20.2559 53.9606 20.5159C52.4306 20.7859 52.8006 22.3858 50.8206 22.6258C48.8806 22.8658 43.5506 22.2958 40.9206 22.3559C38.9706 22.3959 35.5706 23.1958 33.8706 22.6258C31.9906 21.9958 30.0906 19.3858 28.1606 19.5258C27.1706 19.5958 26.3706 21.0658 25.3806 21.1158C23.8706 21.2058 19.2006 19.3159 18.2406 18.0759L18.3106 16.3058C17.1406 16.1558 15.7306 15.2858 14.8906 14.1158C13.7206 13.0258 13.7506 10.6558 13.6106 10.8758C13.6106 10.8758 12.9206 14.9458 17.6506 16.9158L17.5306 18.3758C19.4406 19.6758 24.5006 21.4959 25.4206 21.4659L25.4406 21.4958Z" fill="#FFCE31"/>
<path opacity="0.64" d="M28.0601 20.1159C28.0601 20.1159 28.0201 20.0959 28.0001 20.0759L28.0401 20.1159C28.0401 20.1159 28.0501 20.1159 28.0601 20.1159Z" fill="#753001"/>
<path opacity="0.64" d="M30.8006 15.4759C30.0506 14.6459 27.3906 16.4159 26.7306 17.0459C27.1506 18.0259 27.7406 19.0959 28.0706 20.1159C28.1706 20.0859 28.2406 20.0659 28.2706 20.0759C28.4006 20.0959 28.5506 20.1459 28.7006 20.1959C28.5306 19.7259 28.3506 19.2659 28.1606 18.8159C28.0206 18.4859 27.2706 17.4059 27.3006 17.1459C27.3906 16.4259 30.1306 15.5359 30.8006 15.4759Z" fill="#753001"/>
<path opacity="0.64" d="M21.6403 15.6858C22.2803 15.1758 22.2203 14.9158 23.0903 14.6858C23.8003 14.4958 24.6703 14.3158 25.4103 14.3658C25.0603 14.1058 24.6703 13.8858 24.2903 13.7058C23.8103 14.0958 22.8403 13.9558 22.2303 14.3058C21.6603 14.6358 21.5103 15.4058 20.9303 15.7558C20.4603 16.0458 19.3303 16.1058 18.7803 16.2558C18.1603 16.4258 17.4803 16.4658 16.8203 16.5258C17.0803 16.6658 17.3603 16.8058 17.6703 16.9358V16.9758C18.9403 16.5158 20.6503 16.4858 21.6503 15.6858H21.6403Z" fill="#753001"/>
<path opacity="0.64" d="M17.6906 9.31581C18.5406 9.15581 19.8606 9.13581 20.8306 9.17581C21.9206 9.22581 23.0106 9.84581 24.0506 10.1458C24.1806 9.83581 24.3006 9.61581 24.5306 9.36581C22.3306 8.94581 19.8406 8.51582 17.3906 8.91582C17.5306 8.99582 17.6606 9.19581 17.6906 9.31581Z" fill="#753001"/>
<path opacity="0.64" d="M24.6006 3.50583C25.5606 3.56583 26.5606 3.57582 27.5306 3.62582C27.8706 4.78582 27.9806 6.04583 28.4206 7.19583C28.7306 6.98583 29.0806 6.82584 29.4106 6.65584C28.6606 5.78584 28.2206 4.36583 28.2706 3.20583C27.5706 3.16583 25.4806 3.53583 25.9006 2.47583C25.1706 2.97583 24.7006 3.42584 24.6006 3.51584V3.50583Z" fill="#753001"/>
<path opacity="0.64" d="M40.4202 0.225761C40.2802 0.235761 38.8902 1.81577 38.4902 2.46577C38.2702 2.82577 37.4602 3.91577 37.6102 4.35577C37.7502 4.76577 38.9302 5.25576 39.2902 5.50576C39.5002 5.40576 39.8102 5.16577 39.9402 5.01577C39.2602 4.75577 38.6402 4.55576 38.1402 4.03576C39.1902 2.83576 40.2402 1.41576 41.3602 0.155762C41.0602 0.175762 40.7402 0.205764 40.4302 0.235764L40.4202 0.225761Z" fill="#753001"/>
<path opacity="0.64" d="M47.8603 5.92575C48.4603 5.01575 50.6603 5.37576 51.6803 5.07576C51.5903 4.75576 51.4803 4.36576 51.4003 4.04576C53.1403 4.60576 55.3603 3.51576 57.3503 3.63576C57.3503 3.58576 57.1103 3.40576 56.6903 3.15576C54.8103 3.31576 53.2403 3.55575 51.2103 3.67575C50.8503 4.32575 51.0503 4.01576 51.0403 4.79576C49.6203 4.82576 47.6403 5.26576 46.2803 5.40576C46.5903 5.50576 47.3903 5.76576 47.8603 5.91576V5.92575Z" fill="#753001"/>
<path opacity="0.64" d="M65.2006 9.00592C65.7206 8.93592 65.7806 8.80593 66.2406 8.88593C66.1006 8.62593 65.9306 8.34593 65.7406 8.07593C65.2606 8.39593 64.7206 8.87593 64.2406 8.99593C63.6606 9.14593 62.5806 8.91592 61.9406 8.91592C61.2106 8.91592 60.4406 8.77592 59.8506 9.20592C59.4506 9.49592 58.9406 10.1659 58.6006 10.5859L59.0506 10.7659C59.8006 10.1759 60.4506 9.46592 61.0806 9.39592C62.2806 9.24592 64.0406 10.1759 65.2006 9.02592V9.00592Z" fill="#753001"/>
<path opacity="0.64" d="M63.0802 17.6458C63.1902 17.5658 63.3002 17.4958 63.4102 17.4258C62.6902 17.2158 61.2902 16.9258 60.9202 16.5158C60.7302 16.3058 60.6002 15.5458 60.4502 15.2458C60.2402 14.8058 60.0102 14.3858 59.8602 13.9258C59.7102 13.9258 59.6202 13.9258 59.4902 14.0058C60.3202 15.0458 59.7702 16.5558 61.1502 17.0858C61.7802 17.3258 62.4602 17.5958 63.0902 17.6458H63.0802Z" fill="#753001"/>
<path opacity="0.64" d="M54.3606 20.8957H54.6306C54.6406 20.5857 54.6506 20.2757 54.7306 19.9657C54.7906 19.7557 55.2106 19.1657 55.1706 18.9757C55.1006 18.5457 54.1706 18.1157 53.7606 17.8657C53.1406 17.4857 52.5006 17.1157 51.9106 16.7157C51.6306 16.5257 51.2606 16.0957 50.9706 15.9757C50.5906 15.8257 50.4406 15.9457 49.9706 15.9757C51.3306 17.0457 52.7606 18.3457 54.4606 18.8557C54.5206 19.5857 54.0906 20.2057 54.0806 20.9457C54.2306 20.8757 54.3306 20.8557 54.3706 20.9057L54.3606 20.8957Z" fill="#753001"/>
<path opacity="0.64" d="M41.6906 15.1758C41.2806 16.0458 40.7306 17.2758 40.0906 18.2058C40.9006 18.9858 42.1306 19.5258 42.8706 20.3258C42.2806 20.8758 40.6306 22.1158 40.3206 22.9858C40.5506 22.9658 40.7806 22.9558 41.0006 22.9558C41.5906 22.0158 42.8406 21.2358 43.5206 20.4258C42.8006 19.5358 41.7506 18.9358 40.9006 18.1858C41.1106 17.7558 41.3006 17.2358 41.4406 16.7758C41.6006 16.2658 41.5306 15.6858 41.6806 15.1758H41.6906Z" fill="#753001"/>
<path d="M25.4509 7.30565C24.0709 8.21565 23.1209 9.20566 23.0509 10.6057C23.0109 11.3257 21.7509 11.5457 21.1309 11.9957C21.4809 12.4657 22.0109 12.4257 22.3609 12.9057C24.4709 12.5257 25.2909 11.2957 26.8709 9.97565C27.9509 9.07565 29.4009 8.49566 30.7409 8.15566C34.4709 7.20566 38.6009 6.66565 42.4209 6.28565C46.3109 5.89565 48.8809 8.51566 52.4509 9.54566C55.0409 10.2957 58.5809 11.5457 60.3809 13.7157C61.1609 13.4257 61.7109 12.3057 61.2609 11.6157C60.8709 11.0257 60.8509 10.2157 60.2609 9.85566C58.8509 8.99566 56.4009 9.51565 54.8709 8.89565C53.7809 8.45565 53.0609 7.22566 51.9709 6.77566C50.1409 6.02566 48.1109 4.93566 46.3109 4.13566C42.8509 2.59566 38.9309 5.28565 35.5409 5.92565C33.3509 6.33565 33.4709 5.03566 31.2609 5.27566C29.5909 5.45566 26.8709 6.35565 25.4409 7.30565H25.4509Z" fill="#FFCE31"/>
<path d="M21.3613 12.2856C23.2713 13.6956 24.5113 14.6656 26.9113 14.7456C29.4213 14.8256 31.1613 15.9356 33.5813 16.4556C36.9413 17.1756 39.9013 15.6656 43.2413 15.4856C46.7013 15.2956 49.5413 16.9356 52.7413 15.7156C54.7413 14.9556 60.0013 15.3756 60.9113 12.9356C62.1213 9.69559 56.5313 10.0856 54.9313 9.36558C53.5113 8.72558 52.5613 7.87559 51.0313 7.27559C49.4313 6.65559 48.2213 5.66558 46.8013 4.89558C43.8513 3.28558 40.3413 4.53558 37.4413 5.78558C35.8313 6.47558 35.2313 6.66558 33.4013 6.20558C31.5113 5.72558 30.8813 5.83558 28.9913 6.61558C26.6113 7.60558 22.3213 8.15559 23.9413 11.7656C23.0513 11.6456 21.9513 11.7556 21.3613 12.2756V12.2856Z" fill="url(#paint21_linear_303_70932)"/>
<path d="M21.3613 12.2855C23.2713 13.6955 24.5113 14.6655 26.9113 14.7455C27.7413 14.7755 28.4913 14.9155 29.2113 15.1155C29.5513 13.6255 29.8013 12.1255 29.4613 10.7255C29.1413 9.40548 28.6713 8.16548 28.3613 6.86548C25.9413 7.72548 22.4713 8.46548 23.9513 11.7755C23.0613 11.6555 21.9613 11.7655 21.3713 12.2855H21.3613Z" fill="#A54908"/>
<path d="M40.0213 4.79565C39.1313 5.08565 38.2613 5.43564 37.4413 5.78564C37.1213 5.92564 36.8413 6.03565 36.5713 6.13565C37.2513 7.36565 37.9113 8.60565 37.9613 10.0257C38.0413 12.1557 37.8913 14.2857 37.9013 16.4057C38.0513 16.3757 38.1913 16.3457 38.3413 16.3257C38.1813 14.7557 38.8013 12.9556 39.1513 11.5556C39.7513 9.13565 39.4013 7.03565 40.0113 4.79565H40.0213Z" fill="#A54908"/>
<path d="M42.4813 15.5556C42.7313 15.5256 42.9813 15.4956 43.2313 15.4856C43.6213 15.4656 44.0113 15.4656 44.3913 15.4856C44.7713 14.1456 45.3113 12.8056 45.6213 11.4856C46.1513 9.21564 45.6913 6.83564 46.3213 4.67564C44.9813 4.09564 43.5413 4.04564 42.1113 4.28564C42.7913 5.91564 43.3113 7.49564 43.0113 9.34564C42.6813 11.4056 42.5013 13.4856 42.4813 15.5656V15.5556Z" fill="#A54908"/>
<path d="M60.9013 12.9357C62.1113 9.69568 56.5213 10.0857 54.9213 9.36568C54.8913 9.35568 54.8613 9.33568 54.8313 9.32568C53.8813 11.5857 52.8613 13.8257 51.7413 16.0057C52.0713 15.9357 52.4013 15.8457 52.7313 15.7157C54.7313 14.9557 59.9913 15.3757 60.9013 12.9357Z" fill="#A54908"/>
<path opacity="0.64" d="M52.5311 8.01562C52.0711 7.75563 51.5911 7.49562 51.0311 7.27562C49.6711 6.74562 48.6011 5.96562 47.4411 5.26562C46.9911 8.77562 47.3911 12.3256 47.4411 15.8756C48.4611 16.0456 49.4711 16.1956 50.4811 16.1556C51.2111 13.4456 52.1111 10.7856 52.5411 8.01562H52.5311Z" fill="#753001"/>
<path opacity="0.64" d="M60.9016 12.9357C61.9716 10.0557 57.6716 10.0457 55.5816 9.57568C56.0916 11.5057 55.8816 13.3357 55.4316 15.2157C57.6716 14.9357 60.2816 14.5957 60.8916 12.9357H60.9016Z" fill="#753001"/>
<path opacity="0.64" d="M24.5713 14.2856C24.9113 14.4156 25.2613 14.5256 25.6413 14.5956C25.6113 13.5956 25.7613 12.6456 26.2713 11.9156C26.4213 11.6956 26.7013 11.5656 26.9013 11.4156C26.9813 11.3556 27.0413 11.2857 27.0913 11.2157C27.1513 10.7857 27.2313 10.3557 27.3113 9.93565C27.2313 9.50565 27.0913 9.06565 27.0213 8.71565C26.9213 8.22565 26.9713 7.75565 27.0613 7.29565C24.8913 8.03565 22.7013 9.01566 23.9313 11.7657C23.8813 11.7657 23.8313 11.7557 23.7713 11.7457C24.0713 12.5757 24.3413 13.4156 24.5613 14.2757L24.5713 14.2856Z" fill="#753001"/>
<path opacity="0.64" d="M31.9814 16.0157C32.5314 12.7657 33.2614 9.55565 34.0414 6.35565C33.8414 6.31565 33.6314 6.27565 33.3914 6.21565C31.5114 5.74565 30.8714 5.84564 29.0214 6.61564C30.4414 9.16564 30.6214 12.3956 30.2714 15.4456C30.8314 15.6356 31.3914 15.8356 31.9714 16.0256L31.9814 16.0157Z" fill="#753001"/>
<path d="M29.9409 15.7959C29.2209 15.9759 28.0309 16.6559 27.3809 17.0159C27.9509 17.8959 28.5009 18.8759 28.7409 19.8959L28.9809 20.0559C29.1009 20.0959 29.1909 20.0559 29.2909 20.1259C29.0209 19.7559 28.2009 18.0859 28.2509 17.6459C28.3409 16.9159 29.6609 16.4859 29.9409 15.8059V15.7959Z" fill="#FFCE31"/>
<path d="M21.4906 16.0258C20.6406 16.7258 19.0506 16.6258 18.0306 17.2358C17.8906 17.5358 18.1306 17.9958 18.2906 18.3558C18.9306 16.8558 20.5906 17.5158 21.7106 16.7358C22.2806 16.3458 22.4106 15.7858 23.0206 15.4758C23.5806 15.1858 24.2806 15.1258 24.7706 14.6458C24.1606 14.6158 23.2506 14.7058 22.7006 14.9158C22.0306 15.1658 21.9806 15.6358 21.4906 16.0358V16.0258Z" fill="#FFCE31"/>
<path d="M16.5003 10.0658C17.1303 9.9258 17.8003 9.71581 18.4303 9.65581C19.0403 9.59581 19.9603 9.85581 20.4403 9.51581C18.5103 9.39581 13.0103 9.06581 13.6803 12.0758H13.8403C13.6903 10.5858 15.4103 10.3158 16.5003 10.0658Z" fill="#FFCE31"/>
<path d="M43.2205 22.3758C43.3205 21.5258 44.0205 20.8258 44.3705 20.0558C43.8505 19.4258 43.1105 19.0258 42.5705 18.4658C41.9805 17.8558 42.0305 16.9058 41.9505 15.9758C41.6005 16.6458 41.5905 17.4458 41.3105 18.1258C41.7905 18.3558 42.2405 18.8958 42.6505 19.2658C43.0105 19.5958 43.5305 19.9058 43.8105 20.2958C43.1205 21.1658 42.4705 21.8658 41.6305 22.6358H41.9505C41.8905 22.5958 41.7405 22.6858 41.8805 22.5758C42.3705 22.5758 42.7305 22.3658 43.2205 22.3858V22.3758Z" fill="#FFCE31"/>
<path d="M55.3006 17.8757C54.2606 17.2257 53.1606 16.7757 52.0106 16.3857C53.2206 16.8957 54.2606 17.9557 55.4306 18.5957C55.0906 19.1757 54.6606 19.9857 54.8206 20.6157V20.6957C54.8906 20.6957 55.4506 20.6957 55.7006 20.6757C55.3106 20.1157 55.8106 19.5657 55.9506 18.9957C56.1206 18.2657 56.0006 18.3057 55.3106 17.8757H55.3006Z" fill="#FFCE31"/>
<path d="M64.3909 16.5159C63.7109 16.5559 62.2509 16.5359 61.6909 16.1659C61.1709 15.8259 60.7209 14.8259 60.4609 14.2759C60.6309 14.8359 60.9409 16.0659 61.3709 16.4059C61.8009 16.7459 63.0509 17.0159 63.6109 17.0659C63.9309 16.9059 64.4009 16.5259 64.4009 16.5159H64.3909Z" fill="#FFCE31"/>
<path opacity="0.59" d="M39.6506 2.77592C39.8406 2.51592 39.9906 2.23591 40.1806 1.97591C40.5806 1.42591 41.1506 0.915918 41.4506 0.315918C41.2706 0.475918 41.0906 0.745913 40.9206 0.935913C40.4806 1.41591 40.0406 1.90591 39.6306 2.42591C39.2006 2.97591 38.7306 3.50591 38.2706 4.03591C38.5206 4.35591 39.0206 4.70591 39.4106 4.78591C39.5006 4.74591 39.8006 4.75591 39.7806 4.64591C39.7606 4.53591 39.4506 4.38591 39.3706 4.33591C39.2506 4.26591 38.9906 4.15591 38.9106 4.03591C38.8206 3.88591 38.9606 3.70592 39.0406 3.57592C39.2206 3.29592 39.4406 3.04591 39.6406 2.78591L39.6506 2.77592Z" fill="#FFCE31"/>
<path opacity="0.59" d="M15.4406 7.76579C15.4706 8.00579 16.6806 8.32579 17.0106 8.49579C17.3806 8.68579 17.3806 8.66578 17.7806 8.56578C18.1106 8.48578 18.4706 8.46579 18.8206 8.44579C19.5006 8.40579 20.2406 8.46578 20.8906 8.56578C21.5406 8.66578 23.0906 9.05579 23.7106 9.13579C23.8506 8.99579 23.9306 8.57578 24.1306 8.37578C23.7206 8.27578 23.2306 8.29578 22.8106 8.23578C21.3606 8.01578 20.0406 8.10579 18.5706 8.19579C18.2206 8.21579 17.8406 8.35579 17.5006 8.32579C17.2106 8.29579 16.8606 8.09578 16.6006 7.97578C15.9106 7.63578 16.0806 6.87578 16.6006 6.42578C16.3206 6.61578 15.4106 7.39579 15.4606 7.77579L15.4406 7.76579Z" fill="#FFCE31"/>
<path opacity="0.59" d="M29.4009 4.79593C29.1009 4.38593 29.1209 3.85592 29.0309 3.36592C28.9609 2.98592 28.9909 2.93592 28.6509 2.80592C28.4309 2.72592 28.0709 2.69593 27.8209 2.68593C27.2609 2.65593 26.7209 2.70592 26.2109 2.56592C26.7709 3.16592 27.8009 2.84593 28.5009 3.07593C28.5509 4.16593 28.6809 4.97592 29.0209 5.98592L29.1109 6.02592C29.3209 6.09592 29.9709 5.70593 30.3509 5.71593C30.1909 5.33593 29.6609 5.13592 29.4009 4.78592V4.79593Z" fill="#FFCE31"/>
<path opacity="0.59" d="M48.751 5.6958C48.751 5.6958 48.791 5.7558 48.821 5.7858L48.841 5.73579C48.841 5.73579 48.781 5.7058 48.761 5.6958H48.751Z" fill="#FFCE31"/>
<path opacity="0.59" d="M50.8806 5.39578C50.2406 5.44578 49.5506 5.43579 48.9106 5.52579L48.8406 5.73578C49.0806 5.86578 49.3406 5.90578 49.5906 6.00578C49.9906 6.17578 50.0306 6.24578 50.4006 6.11578C50.8906 5.95578 51.8006 5.91578 52.2106 5.61578C52.5106 5.39578 52.3806 5.13579 52.7706 5.01579C53.0806 4.91579 53.7106 4.86578 54.0206 4.78578C54.6506 4.63578 56.5906 4.02579 57.1406 3.68579C56.4606 3.79579 54.3106 4.38579 53.6306 4.46579C53.0706 4.52579 52.3106 4.74579 51.7906 4.46579C51.8306 4.74579 52.1106 5.10579 51.8306 5.32579C51.6506 5.46579 51.1206 5.38579 50.8806 5.40579V5.39578Z" fill="#FFCE31"/>
<path opacity="0.59" d="M61.1706 10.0759C61.4906 9.8759 61.9906 9.98589 62.3306 9.84589C62.8706 10.0759 63.8106 9.86589 64.3806 9.80589C64.9006 9.74589 65.6006 9.6159 66.0406 9.2959C65.5806 9.2959 65.1106 9.56589 64.6406 9.64589C64.1306 9.72589 63.6406 9.7159 63.1406 9.6859C62.5106 9.6559 60.5906 9.3559 60.3506 10.0759L60.2706 10.2459C60.3506 10.2959 60.5906 10.5959 60.7906 10.5459C60.9506 10.5059 61.0306 10.1759 61.1906 10.0859L61.1706 10.0759Z" fill="#FFCE31"/>
<g filter="url(#filter0_d_303_70932)">
<circle cx="40.5" cy="77.5" r="27.5" fill="#FFE99E"/>
</g>
<path d="M31.2725 89.3369C29.6758 89.3369 28.5918 88.2969 28.5918 86.6855V72.6084H28.4893L25.8525 74.4395C25.3691 74.7764 25.0469 74.8936 24.5342 74.8936C23.4941 74.8936 22.7178 74.1172 22.7178 73.0332C22.7178 72.2568 23.0254 71.6562 23.7871 71.1289L27.7861 68.4043C28.9141 67.6426 29.8223 67.5254 30.877 67.5254C32.8105 67.5254 33.9385 68.6826 33.9385 70.5283V86.6855C33.9385 88.2969 32.8691 89.3369 31.2725 89.3369ZM47.2246 89.5273C41.6289 89.5273 38.1572 85.3086 38.1572 78.3945C38.1572 71.4512 41.6729 67.3203 47.2246 67.3203C52.791 67.3203 56.2773 71.4365 56.2773 78.3799C56.2773 85.2793 52.8203 89.5273 47.2246 89.5273ZM47.2246 85.3379C49.4658 85.3379 50.8135 83.0088 50.8135 78.3945C50.8135 73.7656 49.4512 71.5098 47.2246 71.5098C44.998 71.5098 43.6211 73.7803 43.6211 78.3799C43.6211 83.0088 44.998 85.3379 47.2246 85.3379Z" fill="black"/>
<defs>
<filter id="filter0_d_303_70932" x="0" y="37" width="81" height="81" filterUnits="userSpaceOnUse" color-interpolation-filters="sRGB">
<feFlood flood-opacity="0" result="BackgroundImageFix"/>
<feColorMatrix in="SourceAlpha" type="matrix" values="0 0 0 0 0 0 0 0 0 0 0 0 0 0 0 0 0 0 127 0" result="hardAlpha"/>
<feMorphology radius="3" operator="dilate" in="SourceAlpha" result="effect1_dropShadow_303_70932"/>
<feOffset/>
<feGaussianBlur stdDeviation="5"/>
<feComposite in2="hardAlpha" operator="out"/>
<feColorMatrix type="matrix" values="0 0 0 0 0 0 0 0 0 0 0 0 0 0 0 0 0 0 0.25 0"/>
<feBlend mode="normal" in2="BackgroundImageFix" result="effect1_dropShadow_303_70932"/>
<feBlend mode="normal" in="SourceGraphic" in2="effect1_dropShadow_303_70932" result="shape"/>
</filter>
<linearGradient id="paint0_linear_303_70932" x1="45.1901" y1="75.1958" x2="34.8901" y2="63.3358" gradientUnits="userSpaceOnUse">
<stop stop-color="#CB7010"/>
<stop offset="0.64" stop-color="#A24D03"/>
</linearGradient>
<linearGradient id="paint1_linear_303_70932" x1="43.9903" y1="81.3658" x2="54.9003" y2="55.6558" gradientUnits="userSpaceOnUse">
<stop offset="0.27" stop-color="#965009"/>
<stop offset="0.72" stop-color="#7D4102"/>
</linearGradient>
<linearGradient id="paint2_linear_303_70932" x1="63.8" y1="59.4358" x2="63.81" y2="59.4058" gradientUnits="userSpaceOnUse">
<stop offset="0.27" stop-color="#AE5E0B"/>
<stop offset="0.72" stop-color="#914B02"/>
</linearGradient>
<linearGradient id="paint3_linear_303_70932" x1="20.2607" y1="59.6159" x2="20.3107" y2="59.6159" gradientUnits="userSpaceOnUse">
<stop stop-color="#CB7010"/>
<stop offset="1" stop-color="#A24D03"/>
</linearGradient>
<linearGradient id="paint4_linear_303_70932" x1="20.0304" y1="59.8658" x2="20.2604" y2="59.8658" gradientUnits="userSpaceOnUse">
<stop stop-color="#CB7010"/>
<stop offset="1" stop-color="#A24D03"/>
</linearGradient>
<linearGradient id="paint5_linear_303_70932" x1="20.3103" y1="67.8257" x2="34.1303" y2="67.8257" gradientUnits="userSpaceOnUse">
<stop stop-color="#CB7010"/>
<stop offset="1" stop-color="#A24D03"/>
</linearGradient>
<linearGradient id="paint6_linear_303_70932" x1="43.3003" y1="33.4356" x2="29.2403" y2="68.2156" gradientUnits="userSpaceOnUse">
<stop stop-color="#CB7010"/>
<stop offset="1" stop-color="#A24D03"/>
</linearGradient>
<linearGradient id="paint7_linear_303_70932" x1="23.54" y1="51.0956" x2="33.99" y2="52.9356" gradientUnits="userSpaceOnUse">
<stop stop-color="#C5690D"/>
<stop offset="1" stop-color="#9E4D04"/>
</linearGradient>
<linearGradient id="paint8_linear_303_70932" x1="17.3007" y1="36.4956" x2="8.05066" y2="59.4056" gradientUnits="userSpaceOnUse">
<stop stop-color="#CB7010"/>
<stop offset="1" stop-color="#A24D03"/>
</linearGradient>
<linearGradient id="paint9_linear_303_70932" x1="10.6204" y1="46.5258" x2="15.0804" y2="52.8958" gradientUnits="userSpaceOnUse">
<stop stop-color="#CB7010"/>
<stop offset="1" stop-color="#D88114"/>
</linearGradient>
<linearGradient id="paint10_linear_303_70932" x1="71.7399" y1="28.7356" x2="60.8199" y2="62.3656" gradientUnits="userSpaceOnUse">
<stop stop-color="#CB7010"/>
<stop offset="1" stop-color="#A24D03"/>
</linearGradient>
<linearGradient id="paint11_linear_303_70932" x1="27.0801" y1="54.4355" x2="36.8301" y2="54.4355" gradientUnits="userSpaceOnUse">
<stop stop-color="#CB7010"/>
<stop offset="1" stop-color="#A24D03"/>
</linearGradient>
<linearGradient id="paint12_linear_303_70932" x1="64.7403" y1="41.3157" x2="55.3203" y2="64.6156" gradientUnits="userSpaceOnUse">
<stop stop-color="#CB7010"/>
<stop offset="1" stop-color="#A24D03"/>
</linearGradient>
<linearGradient id="paint13_linear_303_70932" x1="39.8603" y1="46.3757" x2="41.0503" y2="12.2757" gradientUnits="userSpaceOnUse">
<stop stop-color="#FFBB12"/>
<stop offset="0.72" stop-color="#FF8B00"/>
<stop offset="1" stop-color="#FF6D00"/>
</linearGradient>
<linearGradient id="paint14_linear_303_70932" x1="58.7099" y1="59.0858" x2="67.0199" y2="48.0558" gradientUnits="userSpaceOnUse">
<stop stop-color="#7F3F05"/>
<stop offset="0.72" stop-color="#924503"/>
</linearGradient>
<linearGradient id="paint15_linear_303_70932" x1="68.1907" y1="48.1755" x2="61.7907" y2="51.7155" gradientUnits="userSpaceOnUse">
<stop stop-color="#CB7010"/>
<stop offset="0.81" stop-color="#D88114"/>
</linearGradient>
<linearGradient id="paint16_linear_303_70932" x1="28.1299" y1="59.3157" x2="36.3799" y2="59.3157" gradientUnits="userSpaceOnUse">
<stop stop-color="#CB7010"/>
<stop offset="1" stop-color="#D88114"/>
</linearGradient>
<linearGradient id="paint17_linear_303_70932" x1="11.2406" y1="23.6459" x2="71.0806" y2="23.6459" gradientUnits="userSpaceOnUse">
<stop stop-color="#CB7010"/>
<stop offset="1" stop-color="#A24D03"/>
</linearGradient>
<linearGradient id="paint18_linear_303_70932" x1="14.3606" y1="25.5258" x2="23.0506" y2="25.5258" gradientUnits="userSpaceOnUse">
<stop stop-color="#CB7010"/>
<stop offset="1" stop-color="#D88114"/>
</linearGradient>
<linearGradient id="paint19_linear_303_70932" x1="40.7309" y1="23.8758" x2="39.9009" y2="0.145803" gradientUnits="userSpaceOnUse">
<stop stop-color="#FFBB12"/>
<stop offset="0.72" stop-color="#FF8B00"/>
<stop offset="1" stop-color="#FF6D00"/>
</linearGradient>
<linearGradient id="paint20_linear_303_70932" x1="40.7309" y1="23.8758" x2="39.9009" y2="0.145803" gradientUnits="userSpaceOnUse">
<stop stop-color="#FFBB12"/>
<stop offset="0.72" stop-color="#FF8B00"/>
<stop offset="1" stop-color="#FF6D00"/>
</linearGradient>
<linearGradient id="paint21_linear_303_70932" x1="41.2213" y1="4.13558" x2="41.2213" y2="16.6556" gradientUnits="userSpaceOnUse">
<stop stop-color="#CB7010"/>
<stop offset="1" stop-color="#A24D03"/>
</linearGradient>
</defs>
</svg>
