<svg width="81" height="123" viewBox="0 0 81 123" fill="none" xmlns="http://www.w3.org/2000/svg">
<path d="M40.3604 67.1991C39.3704 67.3791 36.9404 67.6291 36.3504 68.4591C35.8004 69.2291 36.0604 71.7091 36.0604 72.6791C36.0604 75.5191 35.9904 78.2891 36.4904 81.0391C36.7904 82.7091 36.5204 83.3491 37.7904 84.1991C38.5504 84.7091 39.3704 85.3191 39.9404 86.0091C40.3904 86.2791 43.2304 81.0191 43.8804 80.1591C44.7104 79.0391 45.4604 78.5891 45.4004 77.1191C45.3504 75.7791 45.0804 74.2591 44.8904 72.9091C44.6704 71.3791 44.0404 69.3591 43.2304 68.0391C42.5004 66.8291 41.7604 66.9491 40.3504 67.1991H40.3604Z" fill="#7F3022"/>
<path d="M58.4607 65.1093C56.5407 64.8493 54.2307 64.1293 52.3707 64.6693C48.4807 65.7993 44.8907 68.5393 41.1307 69.9293C40.7807 72.7693 43.9407 75.3393 43.5207 77.9793C43.0507 80.9193 41.0507 83.3193 39.9307 86.0093C40.9807 85.6493 42.2207 85.3193 43.2907 85.0893C44.5407 84.8193 45.4807 84.9793 46.4007 84.1593C47.2307 83.4093 47.9407 82.2493 48.7107 81.4093C50.2107 79.7793 51.6407 78.1293 53.2207 76.5393C54.9707 74.7893 56.6107 72.8893 58.1707 70.9493C59.4407 69.3693 61.4907 66.9293 63.3207 66.1593L63.1807 65.7293C63.3707 65.7493 63.5307 65.7293 63.7007 65.7593C62.0707 65.2893 60.2007 65.3593 58.4607 65.1193V65.1093Z" fill="url(#paint0_linear_309_79767)"/>
<path d="M63.7004 65.7493C63.7604 65.7693 63.8304 65.7793 63.8904 65.7993C63.8204 65.7693 63.7604 65.7593 63.7004 65.7493Z" fill="url(#paint1_linear_309_79767)"/>
<path d="M58.4606 65.1093C56.5406 64.8493 54.2306 64.1293 52.3706 64.6693C48.4806 65.7993 44.8906 68.5393 41.1306 69.9293C40.9106 71.7193 42.0806 73.3993 42.8706 75.0593C43.1406 74.8093 43.4306 74.5793 43.7306 74.3693C44.2506 73.9993 44.8706 73.5993 45.5106 73.3993C45.9606 73.1593 46.4306 72.9493 46.9606 72.7993C47.7606 72.5593 48.4206 73.4793 48.0206 74.1793C47.2906 75.4493 46.2406 76.5793 45.6006 77.8993C44.7306 79.6893 45.0706 81.1593 45.4606 82.9993C45.5806 83.5493 45.6706 84.0793 45.7406 84.6093C45.9706 84.5093 46.1906 84.3693 46.4206 84.1693C47.2506 83.4193 47.9606 82.2593 48.7306 81.4193C50.2306 79.7893 51.6606 78.1393 53.2406 76.5493C54.9906 74.7993 56.6306 72.8993 58.1906 70.9593C59.4606 69.3793 61.5106 66.9393 63.3406 66.1693L63.2006 65.7393C63.3906 65.7593 63.5506 65.7393 63.7206 65.7693C62.0906 65.2993 60.2206 65.3693 58.4806 65.1293L58.4606 65.1093Z" fill="#380801"/>
<path d="M58.46 65.1093C56.54 64.8493 54.23 64.1293 52.37 64.6693C50.35 65.2593 48.41 66.2793 46.49 67.3193C48.13 69.4993 50.01 72.3793 49.08 74.7693C48.4 76.4993 47.13 77.7093 46.23 79.2893C46.15 79.4193 46.09 79.5493 46.04 79.6793C46.39 81.0693 46.61 82.4693 46.67 83.8793C47.39 83.1393 48.03 82.1493 48.72 81.3993C50.22 79.7693 51.65 78.1193 53.23 76.5293C54.98 74.7793 56.62 72.8793 58.18 70.9393C59.45 69.3593 61.5 66.9193 63.33 66.1493L63.19 65.7193C63.38 65.7393 63.54 65.7193 63.71 65.7493C62.08 65.2793 60.21 65.3493 58.47 65.1093H58.46Z" fill="#330A04"/>
<path opacity="0.32" d="M50.21 73.0093C50.21 72.9493 50.23 72.8993 50.23 72.8393C49.16 70.8893 47.94 69.0293 46.59 67.2593C46.56 67.2793 46.52 67.2993 46.49 67.3193C48.13 69.4993 50.01 72.3793 49.08 74.7693C48.4 76.4993 47.13 77.7093 46.23 79.2893C46.15 79.4193 46.09 79.5493 46.04 79.6793C46.39 81.0693 46.61 82.4693 46.67 83.8793C46.73 83.8193 46.79 83.7393 46.85 83.6793C46.83 83.6093 46.81 83.5493 46.8 83.4693C46.7 81.3093 46.25 79.3193 47.88 77.6093C49.24 76.1893 50.02 75.0193 50.21 73.0093Z" fill="#7F3022"/>
<path opacity="0.64" d="M40.3604 67.1993C39.3704 67.3793 36.9404 67.6294 36.3504 68.4594C35.8004 69.2294 36.0604 71.7094 36.0604 72.6794C36.0604 75.5194 35.9904 78.2894 36.4904 81.0394C36.7904 82.6894 36.5304 83.3294 37.7504 84.1594C38.9404 79.7994 41.1004 75.8594 44.9904 73.5494C44.9604 73.3294 44.9204 73.1094 44.9004 72.8994C44.6804 71.3694 44.0504 69.3493 43.2404 68.0293C42.5104 66.8193 41.7704 66.9393 40.3604 67.1893V67.1993Z" fill="#380801"/>
<path d="M37.0401 66.6092C35.0501 65.7492 32.3301 65.0292 30.1401 65.8592C28.9301 66.3192 29.0601 67.0592 29.2801 68.4592C29.4701 69.6192 29.7701 70.7492 30.0001 71.9192C30.4701 74.3492 30.7401 76.9292 31.4701 79.2792C31.8801 80.5992 33.3401 84.3192 34.1101 85.0592C34.9301 84.9892 36.5201 84.2592 37.3301 83.8592C36.0201 78.3092 38.9201 71.9392 37.0401 66.6092Z" fill="#330A04"/>
<path d="M20.2503 66.0393C20.1703 66.1593 20.1003 66.2893 20.0203 66.4193C20.2403 66.2993 20.2203 66.1993 20.2503 66.0393Z" fill="url(#paint2_linear_309_79767)"/>
<path d="M28.2308 66.8792C26.7608 65.6792 23.7808 63.0392 21.7608 63.3292C21.3208 64.1692 20.8208 65.0892 20.3008 65.9592L20.4308 66.6292C20.5608 67.9892 22.8908 70.9192 23.7808 72.2592C24.9808 74.0692 26.1208 75.8192 27.1108 77.7292C27.8308 79.1392 28.4108 81.6692 29.5508 82.7592C30.4608 83.6292 32.9108 84.7192 34.1108 85.0792C34.0108 82.8692 32.6808 80.2092 32.1508 78.0292C31.6608 76.0292 31.2708 74.0092 30.5008 71.9992C29.7808 70.1192 29.7008 68.0892 28.2308 66.8892V66.8792Z" fill="url(#paint3_linear_309_79767)"/>
<path d="M20.25 66.0394C20.25 66.0394 20.28 65.9794 20.3 65.9494V65.8994C20.27 65.9494 20.26 65.9994 20.25 66.0394Z" fill="url(#paint4_linear_309_79767)"/>
<path opacity="0.64" d="M28.2308 66.8792C26.7608 65.6792 23.7808 63.0392 21.7608 63.3292C21.3208 64.1692 20.8208 65.0892 20.3008 65.9592L20.4308 66.6292C20.5108 67.3992 21.2808 68.6692 22.1008 69.8692C26.3108 68.3992 29.2508 70.8792 31.2908 74.5192C31.0608 73.6792 30.8208 72.8392 30.5008 71.9992C29.7808 70.1192 29.7008 68.0892 28.2308 66.8892V66.8792Z" fill="#380801"/>
<path d="M58.4602 65.1093C56.5402 64.8493 54.2302 64.1293 52.3702 64.6693C50.3502 65.2593 48.4102 66.2793 46.4902 67.3193C48.1302 69.4993 50.0102 72.3793 49.0802 74.7693C48.9802 75.0393 48.8502 75.2893 48.7302 75.5293C51.3502 73.5993 54.4102 72.4093 57.6002 71.6493C57.7902 71.4093 57.9902 71.1793 58.1802 70.9493C59.4502 69.3693 61.5002 66.9293 63.3302 66.1593L63.1902 65.7293C63.3802 65.7493 63.5402 65.7293 63.7102 65.7593C62.0802 65.2893 60.2102 65.3593 58.4702 65.1193L58.4602 65.1093Z" fill="#3F0E03"/>
<path d="M43.2507 44.0594C28.0807 38.0994 18.9907 49.5494 18.6807 50.2894C18.8707 54.3794 20.0607 53.6994 20.5007 55.4694C21.1107 57.8894 21.1007 68.5294 21.1007 68.5294L25.5807 64.0494C26.3407 65.6494 27.5307 67.5094 28.5907 68.4494C29.2507 68.1694 29.7907 67.8294 29.7907 67.8294C30.1607 68.8694 31.0107 70.4494 31.5407 71.7294C31.8607 72.5194 32.0307 73.3994 32.2807 74.1794C32.8007 74.4794 33.3607 74.6994 33.8307 75.0794C33.8707 75.1094 33.9107 75.1394 33.9507 75.1694C34.0907 75.2494 34.1807 75.3294 34.1807 75.3294C34.4907 75.9794 35.0507 76.6094 35.6107 77.1494C36.4107 77.4494 37.2007 77.8194 37.9907 78.1194C38.4607 77.8794 39.0007 77.6994 39.3107 77.3094C39.6607 76.8694 39.6107 75.5194 39.7707 74.9694C40.1407 73.7194 40.4407 72.1094 41.4607 71.2094C43.8007 71.8494 44.0907 73.6994 45.7407 70.8994C46.5607 69.5094 47.4307 68.0794 48.6307 67.2494C49.7607 66.4594 51.3807 67.4894 52.2207 66.2594C52.5907 65.7094 53.0607 64.3694 53.0607 64.3694C53.2507 64.4094 53.4407 64.4894 53.6207 64.5794C54.4907 61.8294 55.2807 59.0194 55.8607 56.1894C56.1507 54.7694 56.4607 53.3294 56.5507 51.8694C56.6207 50.7194 56.4807 49.5794 56.4507 48.4294C56.4307 47.5494 56.4407 46.2694 56.7907 45.2494C51.9107 45.1194 45.7007 45.0294 43.2407 44.0594H43.2507Z" fill="url(#paint5_linear_309_79767)"/>
<path d="M52.2703 66.9193C52.6003 66.9993 53.2003 67.9393 53.2003 67.9393C53.7303 68.5993 54.7603 68.5893 55.1503 68.5393C56.1903 68.4093 60.9603 53.3093 62.8503 47.7893C61.9103 48.0193 60.8703 47.9593 59.9503 48.0893C58.0403 48.3593 56.6503 50.1593 55.4103 51.4993C55.3803 51.5293 55.3503 51.5493 55.3303 51.5793C55.5803 51.9093 55.8603 52.1493 55.8803 52.6593C55.9603 54.5693 55.0903 56.9393 54.5903 58.7593C54.0403 60.7693 52.2703 66.9093 52.2703 66.9093V66.9193Z" fill="#541509"/>
<path d="M52.2703 66.9193C52.4703 66.9693 53.0303 66.3393 53.3203 65.5793C53.9503 62.8493 55.2103 58.7193 56.2203 56.1393C56.6003 55.1493 57.1603 53.4193 57.8003 52.5893C58.5503 51.1793 59.8003 51.0793 61.2903 51.6293C61.3703 51.6193 61.4403 51.6093 61.5203 51.5893C62.0503 50.0993 62.5103 48.7793 62.8503 47.7993C61.9103 48.0293 60.8703 47.9693 59.9503 48.0993C58.0403 48.3693 56.6503 50.1693 55.4103 51.5093C55.3803 51.5393 55.3503 51.5593 55.3303 51.5893C55.5803 51.9193 55.8603 52.1593 55.8803 52.6693C55.9603 54.5793 55.2103 56.9893 54.5903 58.7693C54.0403 60.3293 52.2703 66.9193 52.2703 66.9193Z" fill="#330A04"/>
<path d="M41.3408 71.3392C41.4008 71.4192 41.4508 71.5092 41.4908 71.4792C43.0608 71.9092 43.7008 72.7492 44.4508 72.4292C44.9108 68.4992 45.4308 64.4692 43.6608 60.9292C42.2608 63.1092 41.1108 65.4392 41.0908 68.0892C41.0908 69.2692 41.1708 70.1892 41.3408 71.3492V71.3392Z" fill="#5B1106"/>
<path d="M30.8808 54.0994C30.7408 53.2394 30.8208 52.3294 30.5908 51.4894C30.2108 50.0594 29.2208 48.8694 28.1608 47.8594C26.9508 46.7194 25.2108 45.5694 23.4608 45.9594C23.3708 45.9794 23.2908 45.9894 23.2108 45.9794C22.8908 46.1994 22.5908 46.4194 22.3008 46.6394C22.8008 48.1694 22.7808 49.8894 22.8208 51.4694C22.8508 52.8594 22.9708 54.2394 23.1308 55.6194C23.9908 58.5694 24.7408 61.5594 25.0308 64.5994L26.9108 69.0994C26.9108 69.6194 28.3208 70.0194 29.2708 70.1194C29.9408 69.8394 32.3308 68.9394 33.0908 68.3394C34.5608 67.1894 33.0208 63.8794 32.5108 62.3194C31.9008 60.4694 31.9008 58.5494 31.4608 56.6794C31.2608 55.8194 31.0208 54.9694 30.8808 54.0894V54.0994Z" fill="#7F3022"/>
<path d="M30.88 54.0992C30.74 53.2392 30.82 52.3292 30.59 51.4892C30.21 50.0592 29.22 48.8692 28.16 47.8592C27.44 47.1792 26.53 46.4992 25.54 46.1392C25.77 49.0692 25.72 50.8392 25.83 53.7892C25.88 55.2992 25.98 58.5192 26.16 59.5292C26.24 59.9892 28.32 67.8092 28.39 68.2492C28.47 68.3192 29.21 70.0792 29.28 70.1392C29.95 69.8592 31.05 69.4192 31.05 69.4192C31.09 69.5392 31.27 67.0792 32.03 66.4792C33.5 65.3292 33.03 63.8992 32.52 62.3392C31.91 60.4892 31.91 58.5692 31.47 56.6992C31.27 55.8392 31.03 54.9892 30.89 54.1092L30.88 54.0992Z" fill="url(#paint6_linear_309_79767)"/>
<path d="M28.3803 68.2392C28.4603 68.3092 29.2003 70.0692 29.2703 70.1292C29.9403 69.8492 31.0403 69.4092 31.0403 69.4092C31.0803 69.5292 31.2603 67.0692 32.0203 66.4692C33.4903 65.3192 33.0203 63.8892 32.5103 62.3292C32.2203 61.4592 32.0704 60.5692 31.9404 59.6692C30.7904 58.4492 29.5803 57.2892 28.3503 56.1492C29.0603 57.5692 29.7203 59.0292 29.9903 60.5792C30.3303 62.5192 28.8204 64.4992 27.8604 66.1992C28.1404 67.2792 28.3503 68.0992 28.3703 68.2292L28.3803 68.2392Z" fill="#56251E"/>
<path d="M9.15992 58.0992C9.71992 58.7392 10.0899 59.4492 10.5599 60.1392C11.5099 61.5191 12.2799 62.8792 12.9199 64.2892C13.4499 65.4492 13.7299 66.9892 14.5799 67.9992C15.4799 69.0692 19.0699 70.1791 20.3599 70.1091L25.9399 64.7992C25.8999 64.1592 24.5299 60.4192 24.3599 56.8492C24.3599 56.7992 24.3499 56.7492 24.3399 56.7092C23.3599 53.2392 22.3899 49.7392 23.0699 46.1292C23.0699 46.0592 23.0699 45.9991 23.0899 45.9491C19.7599 46.1691 18.2199 45.7392 14.8699 46.1292C13.0899 46.3292 10.4799 41.2292 8.66992 41.3692C7.80992 41.4392 3.16992 36.4592 2.16992 36.8792C3.43992 42.3392 9.53992 53.7192 8.81992 56.1592C8.49992 57.2292 8.34992 57.1592 9.14992 58.0992H9.15992Z" fill="url(#paint7_linear_309_79767)"/>
<path opacity="0.64" d="M9.16071 58.0993C9.72071 58.7393 10.0907 59.4493 10.5607 60.1393C11.5107 61.5193 12.2807 62.8793 12.9207 64.2893C13.4507 65.4493 13.7307 66.9893 14.5807 67.9993C14.6907 68.1293 14.8407 68.2593 15.0307 68.3893C14.5707 66.1193 13.9007 63.9293 12.6307 61.7793C12.2307 61.0893 11.7407 59.9093 11.9307 59.1493C11.6907 58.7693 11.6307 58.4193 11.6907 58.0493C11.0407 57.7693 10.5107 57.3593 9.8707 57.0193C9.4007 56.7693 9.31071 56.1793 9.53071 55.7393C10.7407 53.3193 6.2407 49.9593 7.8607 47.5593C8.3507 46.8293 9.0307 46.4393 9.8007 46.2593C9.24071 45.4493 8.9807 44.4593 8.8607 43.4593C7.3207 41.8893 5.1207 40.7393 3.5107 39.4593C3.2607 39.2593 2.9907 39.0393 2.7207 38.8193C4.6607 44.6793 9.45071 53.9793 8.81071 56.1593C8.49071 57.2293 8.3407 57.1593 9.1407 58.0993H9.16071Z" fill="#380801"/>
<path d="M15.8506 49.5293C17.1706 50.0793 17.7406 51.1093 18.2506 52.4093C19.1506 54.7093 20.3706 56.4193 20.8106 58.8493C21.3606 60.3693 21.7806 61.9493 22.0906 63.5593C22.0906 62.9293 22.0906 62.2993 22.1106 61.6793C22.2406 58.0993 21.5806 54.3393 20.4806 50.9293C19.8706 49.0393 17.9806 48.1593 15.9706 47.5793C15.6506 47.5593 15.3306 47.5393 15.0106 47.5093C14.3106 47.4893 13.6206 47.5093 12.9206 47.5993C12.9406 47.7093 12.9306 47.8193 12.8906 47.9193C13.9406 48.3493 14.9606 48.7793 15.8506 49.5293Z" fill="#996256"/>
<path opacity="0.36" d="M18.5307 56.2893C17.3607 56.5393 16.3607 57.2393 15.2007 57.5093C14.0607 57.7693 12.9007 57.8593 11.7507 57.5593C10.7207 57.2893 9.70069 56.9693 8.69069 56.6193C8.49069 57.2393 8.50069 57.3193 9.17069 58.0993C9.73069 58.7393 10.1007 59.4493 10.5707 60.1393C11.5207 61.5193 12.2907 62.8793 12.9307 64.2893C13.4607 65.4493 13.7407 66.9893 14.5907 67.9993C15.4907 69.0693 19.0807 70.1793 20.3707 70.1093L22.6607 67.9393C22.2707 66.7993 21.7607 64.7793 21.2507 63.6893C20.6507 62.4093 19.8707 61.1993 19.3907 59.8693C18.9607 58.6993 18.7107 57.4993 18.5307 56.2793V56.2893Z" fill="#380801"/>
<path opacity="0.36" d="M18.6402 56.9693C18.6002 56.7493 18.5602 56.5193 18.5302 56.2993C17.3602 56.5493 16.3602 57.2493 15.2002 57.5193C14.9602 57.5693 14.7302 57.6193 14.4902 57.6493C16.1902 61.4093 18.4402 66.4793 20.3602 70.1293C20.4202 70.0793 20.4902 69.9993 20.5802 69.9193C20.0602 67.7693 19.5202 65.6193 18.7402 63.5593C17.6702 60.7293 17.4902 60.0593 18.5502 57.1293C18.5702 57.0693 18.6002 57.0193 18.6302 56.9693H18.6402Z" fill="#380801"/>
<path d="M18.6107 56.8293C18.5807 56.6493 18.5507 56.4793 18.5307 56.2993C17.3607 56.5493 16.3607 57.2493 15.2007 57.5193C14.0607 57.7793 12.9007 57.8693 11.7507 57.5693C10.7207 57.2993 9.70069 56.9793 8.69069 56.6293C8.49069 57.2493 8.50069 57.3293 9.17069 58.1093C9.23069 58.1793 9.29069 58.2493 9.34069 58.3193C10.6107 59.0693 12.1107 59.1893 13.4407 59.8093C14.8407 60.4593 15.7207 61.6093 16.5107 62.9093C17.7007 64.8693 18.8107 67.8693 20.1507 69.7293C20.1707 69.7293 19.5407 67.9693 19.5607 67.9693C18.3707 66.3793 18.5007 65.0993 17.7107 63.2993C17.2507 62.2593 16.3207 60.8893 16.6307 59.6993C16.9507 58.4893 17.8807 57.7993 18.6007 56.8393L18.6107 56.8293Z" fill="#380801"/>
<path d="M13.94 56.5793C12.59 56.2093 11.33 55.5893 10.07 54.9593C9.72001 54.7993 9.37001 54.6293 9.03001 54.4493C8.92001 54.3993 8.77001 54.2993 8.66001 54.2493C8.66001 54.2493 7.95001 55.8093 7.88001 56.0393C7.60001 56.9993 8.17001 57.2693 8.94001 57.8593C9.48001 57.9893 10.02 58.1493 10.56 58.2993C11.93 58.6993 13.41 59.1793 14.85 58.9393C16.39 58.6793 17.44 57.5293 18.51 56.3093C18.39 56.2493 15.54 57.0393 13.93 56.5893L13.94 56.5793Z" fill="url(#paint8_linear_309_79767)"/>
<path d="M12.7106 58.5293C11.3706 58.3393 9.34063 57.6393 8.14062 57.1993C8.33062 57.4093 8.94063 57.8393 8.94063 57.8393C9.48063 57.9693 10.0206 58.1293 10.5606 58.2793C11.9306 58.6793 13.4106 59.1593 14.8506 58.9193C16.3906 58.6593 17.4406 57.5093 18.5106 56.2893C18.5006 56.2893 18.4606 56.2893 18.4006 56.2893C16.9206 58.1093 14.9906 58.8493 12.6906 58.5193L12.7106 58.5293Z" fill="#E08F89"/>
<path d="M64.8204 65.9991C65.4804 65.2391 67.5404 61.0992 67.5404 61.0992L69.2004 61.6592C70.7904 61.0492 72.8704 57.7792 73.1904 56.3992C74.6704 49.9992 77.2104 43.6992 78.7604 37.3692C76.5504 36.3992 67.4704 38.7591 65.4304 39.6991C62.2204 41.1891 59.9404 42.5992 60.2604 46.3492C60.5304 49.5492 58.4804 66.5992 57.9104 67.7592C59.8704 67.4492 63.5204 67.0992 64.8304 65.9892L64.8204 65.9991Z" fill="url(#paint9_linear_309_79767)"/>
<path d="M72.1404 47.4392C71.7904 48.6692 71.3504 49.8692 70.9404 51.0792C70.3704 52.7592 69.9904 54.4092 69.7604 56.1592C69.5204 57.9692 69.2804 59.7792 68.8704 61.5492L69.2004 61.6592C69.5704 61.5192 69.9804 61.2292 70.3704 60.8492C70.3704 58.6792 70.9004 56.5692 71.5204 54.5092C72.1304 52.4592 72.5904 50.3592 73.2904 48.3392C74.0104 46.2492 74.9004 44.2292 75.8104 42.2092C75.3304 42.4592 74.8504 42.6992 74.3704 42.9392C74.2204 43.0192 74.0704 43.0992 73.9104 43.1792C73.1104 44.4392 72.6704 46.0592 72.1404 47.4292V47.4392Z" fill="#A04D3D"/>
<path d="M66.07 55.2594C66.5 54.4994 66.93 53.7494 67.39 53.0094C67.76 52.0194 68.16 51.0494 68.71 50.1394C68.81 49.8494 68.9 49.5694 69 49.2794C69.07 49.0794 69.15 48.8694 69.22 48.6594C69.26 47.9494 69.22 47.2494 69.6 46.5894C69.99 45.8994 70.49 45.2894 71.08 44.7494C71.23 44.6094 71.39 44.4794 71.54 44.3394C70.52 44.6294 69.44 44.7794 68.52 44.9394C68.01 45.1994 67.51 45.4694 67.03 45.7494C66.88 45.8394 66.74 45.9294 66.61 46.0194C66.69 46.1494 66.74 46.3094 66.73 46.4994C66.7 49.4894 66.11 52.3494 65.29 55.1594C65.55 55.1994 65.8 55.2394 66.06 55.2694L66.07 55.2594Z" fill="#380801"/>
<path d="M67.3607 60.9493C67.3607 60.9493 67.3407 60.9993 67.3307 61.0293C67.3307 61.0493 67.3207 61.0593 67.3107 61.0693C67.2807 61.1493 67.2507 61.2293 67.2207 61.3193C67.4107 61.1893 67.5407 61.1093 67.5407 61.1093L69.2007 61.6693C69.2007 61.6693 69.2907 61.6293 69.3407 61.6093C70.3307 57.6093 71.0907 53.5293 72.2607 49.5793C73.1807 46.4693 75.0707 44.3193 77.3707 42.1193C77.4007 42.0893 77.4307 42.0693 77.4507 42.0493C77.9207 40.4993 78.3607 38.9393 78.7407 37.3793C77.4107 36.7893 73.5707 37.4193 70.2807 38.2193C70.5507 38.8793 70.8907 39.5093 71.1707 40.1793C71.5407 41.0393 71.7507 41.9193 71.9007 42.8493C72.2207 44.8593 71.9007 46.7893 71.3407 48.7293C70.1607 52.8493 68.8307 56.9393 67.3407 60.9593L67.3607 60.9493Z" fill="#5B1109"/>
<path opacity="0.64" d="M73.4504 43.2993C73.4504 43.2993 73.3904 43.3293 73.3604 43.3393C73.2804 44.7393 72.9404 46.0293 72.4204 47.3293C71.8404 48.7793 71.2104 50.1793 70.9504 51.7293C70.7104 53.1393 70.4104 54.5193 70.1604 55.9293C69.8304 57.7493 69.7104 59.9593 68.4004 61.3893L69.2004 61.6593C69.2004 61.6593 69.2904 61.6193 69.3404 61.5993C69.8504 59.5293 70.3004 57.4493 70.7804 55.3693C70.9004 53.0493 71.6704 50.7093 72.4204 48.5593C72.8504 47.3293 73.1504 45.8393 73.8904 44.7493C74.4504 43.9293 75.1404 43.4093 75.9904 43.1493C76.2604 42.9693 76.5404 42.7893 76.8304 42.6293C77.0004 42.4593 77.1804 42.2893 77.3704 42.1093C77.4004 42.0793 77.4304 42.0593 77.4504 42.0393C77.6804 41.2893 77.9004 40.5493 78.1004 39.7993C77.8504 39.9693 77.5904 40.1293 77.3204 40.2793C76.2904 41.5393 74.9604 42.4493 73.4404 43.2993H73.4504Z" fill="#380801"/>
<path opacity="0.64" d="M28.1608 47.8594C26.9508 46.7194 25.2108 45.5694 23.4608 45.9594C23.3708 45.9794 23.2908 45.9894 23.2108 45.9794C22.8908 46.1994 22.5908 46.4194 22.3008 46.6394C22.6108 47.5994 22.7208 48.6394 22.7708 49.6694C24.4908 49.5194 25.7708 50.3294 26.5108 52.0394C26.8708 52.8694 27.0708 53.7694 27.4808 54.5694C27.5808 54.7694 27.6908 54.9694 27.7908 55.1794C28.7808 54.6594 29.8108 54.2694 30.8508 53.8994C30.7508 53.0994 30.8008 52.2594 30.5908 51.4794C30.2108 50.0494 29.2208 48.8594 28.1608 47.8494V47.8594Z" fill="#380801"/>
<path d="M24.1707 56.0392C23.4307 53.2992 23.7007 50.4792 23.1307 47.7192C23.0407 47.2592 21.4007 47.7192 21.2407 47.5092C18.5007 49.4192 18.8107 49.9992 18.6807 50.2892C18.8707 54.3792 20.0607 53.6992 20.5007 55.4692C21.1107 57.8892 22.6607 67.9492 22.6607 67.9492L26.9107 69.1092C26.9407 68.9492 25.3007 61.3992 25.3607 60.2692C25.0407 58.8392 24.5607 57.4392 24.1707 56.0392Z" fill="#5B1106"/>
<path opacity="0.64" d="M23.18 68.0893L26.91 69.1093C26.94 68.9493 25.3 61.3993 25.36 60.2693C25.04 58.8393 24.56 57.4393 24.17 56.0393C23.43 53.2993 23.7 50.4793 23.13 47.7193C23.05 47.3493 22.01 47.5693 21.5 47.5693C21.79 48.5693 22.44 49.4293 22.67 50.4493C22.97 51.7593 23.03 53.0993 23.26 54.4193C23.5 55.7393 23.96 57.0193 24.12 58.3393C24.27 59.6093 24.18 60.9193 23.96 62.1693C23.66 63.8793 23.8 66.4993 23.16 68.0893H23.18Z" fill="#490E05"/>
<path opacity="0.64" d="M21.2407 47.5093C18.5007 49.4193 18.8107 49.9993 18.6807 50.2893C18.6807 50.5393 18.7007 50.7693 18.7207 50.9893C19.8307 50.2193 21.3107 49.6793 22.2907 50.9493C23.2007 52.1193 23.2507 53.8893 23.5907 55.2793C23.7507 55.9093 23.9107 56.5293 24.0707 57.1593C24.5407 58.3593 24.9807 59.5493 25.3407 60.7593C25.3407 60.5893 25.3407 60.4193 25.3407 60.2793C25.0207 58.8493 24.5407 57.4493 24.1507 56.0493C23.4107 53.3093 23.6807 50.4893 23.1107 47.7293C23.0207 47.2693 21.3807 47.7293 21.2207 47.5193L21.2407 47.5093Z" fill="#380801"/>
<path d="M59.64 47.9494C56.57 61.1694 54.04 64.8294 54.04 64.8294V66.9294C54.56 67.5894 55.02 67.8294 55.29 68.1694C55.92 69.0094 60.96 53.3194 62.85 47.7994C61.91 48.0294 59.85 47.0494 59.64 47.9494Z" fill="#68190B"/>
<path d="M33.3803 51.5493C32.9203 51.6693 31.9003 51.8293 31.7703 52.3893C31.6503 52.9293 31.8203 53.4693 32.0103 53.9793C32.6003 55.5393 33.3303 57.0693 34.2703 58.4493C34.7703 59.1793 35.5103 59.9393 36.0603 60.7693C36.2203 60.7893 36.3903 60.8793 36.5303 61.0393C36.8103 61.3493 37.0303 61.6793 37.2103 62.0293C38.2603 63.0593 38.4703 64.5193 38.7403 65.9193C39.7703 65.3693 40.0203 64.0693 40.1303 62.8893C40.2703 61.4793 40.5003 60.0793 40.6003 58.6693C40.7903 56.2293 41.1103 52.0493 37.9903 51.3393C36.4803 50.9993 34.8503 51.1293 33.3603 51.5293L33.3803 51.5493Z" fill="#68190B"/>
<path d="M38.2804 52.4493C37.5004 51.9293 36.6204 51.5993 35.6304 51.5793C34.6804 51.5593 33.3504 51.6693 32.5404 52.2293C31.8104 52.7393 32.7804 54.7293 32.9404 55.4893C33.0204 55.8593 33.0904 56.2293 33.1704 56.6093C33.5004 57.2493 33.8704 57.8793 34.2804 58.4693C34.7804 59.1993 35.5204 59.9593 36.0704 60.7893C36.2304 60.8093 36.4004 60.8993 36.5404 61.0593C36.7104 61.2493 36.8604 61.4493 36.9904 61.6593C36.9104 61.1293 37.0904 59.7993 36.9704 59.2693C36.6304 57.7393 35.7104 57.0493 35.5504 55.4793C35.3304 53.3793 36.6604 52.5793 38.2804 52.4493Z" fill="#380801"/>
<path d="M44.5399 68.4792C44.8499 68.0392 45.0799 67.5192 45.2599 67.0892C45.6999 66.0892 46.03 65.0592 46.33 64.0092C47.19 61.0592 48.4099 58.1692 49.0199 55.1492C49.1399 54.5592 50.14 51.2992 50.06 50.2692C49.85 50.2692 49.64 50.2492 49.39 50.1992C49.37 50.1992 49.35 50.1892 49.33 50.1792C48.4 50.6592 47.5799 51.3492 46.7599 51.9992C46.8099 52.0992 46.84 52.2092 46.86 52.3192C47.3 57.8292 44.3199 63.0192 44.5399 68.4592V68.4792Z" fill="#56251E"/>
<path opacity="0.64" d="M44.6 67.3392C44.88 65.8292 45.34 64.4092 45.76 62.9392C46.62 59.9392 47.18 56.7792 47.49 53.6792C47.49 53.6392 47.49 53.6092 47.5 53.5792C47.49 53.3692 47.56 53.1492 47.76 52.9592C48.41 52.3292 49.15 51.7792 49.96 51.3792C50.04 50.9192 50.09 50.5292 50.07 50.2792C49.86 50.2792 49.65 50.2592 49.4 50.2092C49.38 50.2092 49.36 50.1992 49.34 50.1892C48.41 50.6692 47.59 51.3592 46.77 52.0092C46.82 52.1092 46.85 52.2192 46.87 52.3292C47.29 57.5792 44.61 62.5392 44.54 67.7192C44.56 67.5992 44.58 67.4692 44.6 67.3392Z" fill="#380801"/>
<path d="M46.2104 68.9093C45.5804 70.1293 44.9104 71.3293 44.1604 72.4893C44.6204 72.4593 45.0704 72.0593 45.7604 70.8893C46.5804 69.4993 48.5804 69.0993 48.5804 69.0993C50.2704 68.6793 50.7004 70.0393 51.5304 68.8093C51.8604 68.3193 52.2804 66.8693 52.4704 66.2693C52.4104 66.3093 53.3804 63.1993 53.3204 63.2493C52.0104 64.1493 49.2204 66.4293 52.1304 58.5593C52.1504 58.5093 46.7604 68.0293 46.2104 68.8993V68.9093Z" fill="#56251E"/>
<path d="M48.1504 62.8392C49.1904 62.1292 52.2304 54.2592 54.4404 51.6092C53.6204 51.4092 52.8004 51.1492 52.0604 50.9592C50.0904 55.9992 47.3304 63.3992 48.1504 62.8392Z" fill="#56251E"/>
<path d="M51.81 51.5993C52.08 51.5593 52.34 51.4993 52.57 51.3793C52.62 51.3493 52.68 51.3293 52.73 51.3193C52.76 51.1993 52.82 51.0793 52.91 50.9693C54.05 49.4993 56.13 49.0293 57.91 48.8893C58.37 48.7593 58.83 48.6793 59.27 48.6093C59.29 48.2793 59.31 47.9593 59.32 47.6593C59.43 45.5893 59.25 44.2393 59.22 43.7493C58 44.2593 55.03 45.8493 53.85 46.4393C53.83 46.4393 52.91 48.7293 51.79 51.5993H51.81Z" fill="#562515"/>
<path d="M50.7903 53.6891C50.7903 53.6891 50.7903 53.6391 50.7803 53.6191L50.6104 53.8091C50.6804 53.7791 50.7403 53.7291 50.7903 53.6891Z" fill="#845242"/>
<path d="M29.6101 49.8191C28.8801 49.6791 27.6601 50.7591 27.1101 50.9391C27.0801 52.1991 26.5401 53.9891 26.9601 55.2391C27.2701 56.1591 28.5701 57.4891 29.2401 58.2391C29.9001 58.9691 31.5801 60.3691 32.5101 60.5291C33.9101 60.7691 35.2701 60.1791 36.6001 59.8491C36.0301 58.6291 35.1301 57.5891 34.4101 56.4091C33.7601 55.3491 33.6601 53.4491 33.9501 52.1991C32.6501 51.9791 30.9101 50.0691 29.6101 49.8191Z" fill="#A04D3D"/>
<path d="M29.4603 49.8093C28.7203 49.8093 27.9203 50.6293 27.4003 50.7993C27.3703 52.0593 26.7203 54.6893 26.9603 55.2393C27.1603 55.6993 27.6203 56.1993 28.0303 56.7393C30.3803 57.4593 32.7103 57.6193 35.1603 57.5393C35.0003 57.3093 34.8403 57.0793 34.6903 56.8493C33.6003 56.7693 32.5203 56.5693 31.4503 56.3593C30.4603 56.1593 29.3103 56.0693 28.5603 55.3093C27.0803 53.8093 29.0203 51.4593 29.4203 49.9293C29.4303 49.8893 29.4503 49.8493 29.4603 49.8093Z" fill="url(#paint10_linear_309_79767)"/>
<path d="M26.9405 55.1692C27.2405 54.4292 27.6204 53.7192 28.0504 53.0492C28.4704 51.9092 28.9105 50.7792 29.5705 49.8192C28.8405 49.7292 27.5805 48.6992 27.0405 48.8792C27.0105 50.1092 26.5605 53.9292 26.9505 55.1792L26.9405 55.1692Z" fill="url(#paint11_linear_309_79767)"/>
<path d="M27.0703 55.5093C27.4703 56.3993 28.4603 57.4793 29.0303 58.1893C30.5503 60.0793 31.9903 63.3393 31.9903 63.3393C33.8703 64.4193 35.1603 64.9593 36.4203 66.0693C36.4203 66.0693 37.1903 61.7493 36.6003 59.8393C36.1203 58.8193 35.4203 57.9293 34.7803 56.9793C32.1503 56.9093 29.4603 56.5693 27.0703 55.5093Z" fill="url(#paint12_linear_309_79767)"/>
<path d="M27.0703 55.5093C27.3103 56.0493 27.7703 56.6593 28.2203 57.2093C28.3803 57.1193 28.5903 57.0993 28.8303 57.1693C30.8203 57.7593 32.6203 58.8693 33.7603 60.6493C34.6803 62.0893 35.1803 63.6993 35.5103 65.3593C35.8203 65.5793 36.1303 65.8093 36.4303 66.0693C36.4303 66.0693 37.2003 61.7493 36.6103 59.8393C36.1303 58.8193 35.4303 57.9293 34.7903 56.9793C32.1603 56.9093 29.4703 56.5693 27.0803 55.5093H27.0703Z" fill="#5B1109"/>
<path d="M35.3503 58.6993C36.6803 60.6493 36.4303 63.2293 36.4903 65.6493C36.5403 64.2093 37.0403 61.2493 36.6003 59.8393C36.1203 58.8193 35.4203 57.9293 34.7803 56.9793C32.1503 56.9093 29.4603 56.5693 27.0703 55.5093C27.4703 56.3993 28.4603 57.4793 29.0303 58.1893C30.5503 60.0793 31.9903 63.3393 31.9903 63.3393C32.1203 63.4093 32.2503 63.4893 32.3803 63.5593C31.6403 62.0293 30.0103 59.4893 31.2303 58.0393C32.3703 56.6893 34.5103 57.4693 35.3503 58.6993Z" fill="#541509"/>
<path d="M49.5101 50.8494C49.5101 50.8494 49.6401 50.8494 49.8501 50.8494C47.9401 49.8894 45.8201 49.3894 43.5301 49.5794C42.1001 49.6994 40.6201 49.8494 39.2301 50.2294C38.2301 50.4894 37.2801 48.9594 37.3501 50.2994C37.3501 50.3794 36.3501 50.7194 36.3301 50.7894C37.6001 50.6994 38.7401 52.6994 38.8801 55.1094C38.8801 55.1094 38.0701 55.1494 37.7301 55.4094C37.7401 55.4094 37.7501 55.4294 37.7601 55.4394C38.4701 56.0994 39.9901 56.0194 40.8301 55.9794C41.6801 55.9394 42.5301 55.8494 43.3701 55.6994C42.7701 55.2694 42.1601 54.8794 42.1601 54.8794L46.5301 53.1394C47.4401 52.1994 49.3401 50.6294 49.4901 50.8594L49.5101 50.8494Z" fill="#A04D3D"/>
<path opacity="0.64" d="M36.6006 51.1294C37.6606 51.1094 38.6006 52.8094 38.8406 54.6194C39.2106 54.2694 39.4806 53.8094 39.9906 53.4994C40.7806 52.9994 41.7606 52.6894 42.6906 52.6194C43.9906 52.5094 45.3506 52.6594 46.6206 53.0594C46.8406 52.8394 48.5706 51.3994 48.8506 51.1494C47.6906 51.0394 45.4406 50.3794 44.2906 50.2694C42.0206 50.0494 38.6206 49.6894 36.6006 51.1394V51.1294Z" fill="#380801"/>
<path d="M49.6408 50.0793L49.5508 50.1393C49.5508 50.1393 49.6008 50.1393 49.6308 50.1493C49.6308 50.1293 49.6408 50.0993 49.6508 50.0693L49.6408 50.0793Z" fill="#84544C"/>
<path d="M49.6204 50.1592C49.0804 52.3292 48.3004 55.0992 47.7004 57.2792C47.1304 59.3792 46.3704 61.4493 45.8704 63.5693C45.1504 66.5693 43.8804 69.2792 43.9704 72.4492C45.7804 69.0792 46.8904 65.3392 48.5804 61.9092C50.1004 58.8292 52.2303 54.4792 53.3203 51.2792C53.3203 51.2792 52.4804 50.2292 51.6504 50.0492C50.3104 49.7592 50.4304 50.3092 49.6204 50.1592Z" fill="#75433B"/>
<path d="M49.91 57.9593C49.08 60.0093 48.19 62.0092 47.5 64.1092C47.4 64.3992 47.31 64.6992 47.21 64.9892C47.64 63.9492 48.09 62.9092 48.58 61.9092C50.1 58.8292 52.23 54.4792 53.32 51.2792C53.32 51.2792 52.48 50.2292 51.65 50.0492C50.31 49.7592 50.43 50.3092 49.62 50.1592C49.56 50.3992 49.5 50.6392 49.43 50.8892C50.24 50.9092 51.03 51.0292 51.81 51.2392C52.31 51.3692 52.85 51.1892 52.68 51.7692C51.45 55.8692 50.64 56.1193 49.89 57.9593H49.91Z" fill="#996256"/>
<path d="M60.2104 50.4792C59.1504 54.2992 57.3804 58.5992 56.6804 62.5992C56.4704 63.7992 54.8804 68.0792 54.4404 69.7192L55.5304 71.0692C56.6204 70.8792 59.0404 68.7092 59.3904 67.9692C61.6004 63.2892 65.4304 54.4292 67.9304 49.8492L67.8904 48.9492C67.4704 48.9892 64.2304 47.5292 62.7804 47.3892C59.6304 47.0792 60.9204 47.9592 60.2204 50.4892L60.2104 50.4792Z" fill="url(#paint13_linear_309_79767)"/>
<path opacity="0.64" d="M60.2104 50.4792C59.1504 54.2992 57.3804 58.5992 56.6804 62.5992C56.4704 63.7992 54.8804 68.0792 54.4404 69.7192L55.5304 71.0692C55.5904 71.0692 55.6604 71.0392 55.7304 71.0192C55.9104 70.5792 56.1004 70.1392 56.3004 69.7092C57.4104 67.0192 57.5904 64.8792 58.4604 62.1092C59.1904 59.7792 59.7504 55.7992 60.6004 53.5092C61.8004 50.2992 64.4604 49.2992 67.9304 49.6692L67.9004 48.9592C67.4804 48.9992 64.2404 47.5392 62.7904 47.3992C59.6404 47.0892 60.9304 47.9692 60.2304 50.4992L60.2104 50.4792Z" fill="#380801"/>
<path opacity="0.4" d="M60.6704 56.0692C60.2204 57.9092 59.4004 60.3292 59.0804 62.2092C58.7204 64.2892 58.3504 66.3591 57.9004 68.4191C58.7604 68.0691 59.5404 67.6292 59.7304 67.2392C61.3504 63.7992 63.6604 58.5092 65.7704 54.1292C65.6404 54.1492 65.5004 54.1691 65.3704 54.1991C64.2904 54.3891 63.8004 54.6192 62.7704 54.9892C61.9704 55.2792 60.6804 56.0891 60.6804 56.0891L60.6704 56.0692Z" fill="#380801"/>
<path d="M60.3603 48.6992C59.6403 51.4892 55.8803 65.0292 55.5303 66.3392C56.2903 64.2192 57.2703 61.7292 57.8303 59.5492C58.5903 56.5792 60.0803 49.7092 61.0103 49.4792C61.8403 49.2692 62.6903 49.2792 63.5303 49.3192C64.0203 48.8792 64.5203 48.4492 64.9903 47.9792C64.1603 47.6892 63.3303 47.4792 62.7703 47.3892C61.9803 47.2492 60.6103 47.6992 60.3503 48.6992H60.3603Z" fill="#541509"/>
<path opacity="0.64" d="M64.4599 54.8693C64.7699 54.8693 65.0799 54.8693 65.3899 54.8993C66.2799 53.0093 67.1499 51.2593 67.9299 49.8393L67.8899 48.9393C67.4699 48.9793 64.2299 47.5193 62.7799 47.3793C60.9699 47.1993 60.4099 47.5293 60.1299 48.3093C60.1799 48.3093 60.2299 48.3193 60.2799 48.3293C62.1599 48.7893 64.0799 49.0693 65.9199 49.6893C66.6099 49.9193 66.7899 50.5893 66.3899 51.1693C65.5999 52.2893 65.0199 53.5693 64.4799 54.8593L64.4599 54.8693Z" fill="#380801"/>
<path d="M4.2207 30.0991C4.2507 32.3191 7.3507 36.7591 7.9307 38.8691C8.2007 39.8491 8.64071 40.7291 8.84071 41.7791C9.04071 42.8491 8.81071 44.1191 9.16071 45.0591C13.4607 44.7191 15.0107 41.5691 13.9807 37.3091C12.9907 33.2091 7.36071 30.7491 4.23071 30.1091L4.2207 30.0991Z" fill="#7F3022"/>
<path opacity="0.64" d="M6.20036 30.0991C4.22036 30.0991 4.41036 30.5391 4.37036 31.0191C5.72036 32.8291 9.41036 38.2591 9.71036 40.3691C10.0204 40.2491 10.3204 40.0991 10.6004 39.9191C11.2004 39.3591 11.8004 38.7091 11.9704 37.9391C12.4504 35.8191 10.3804 34.1991 8.61036 33.0591C8.39036 33.0191 6.43036 30.1491 6.20036 30.0991Z" fill="#380801"/>
<path d="M78.8604 34.7892C78.8604 34.7892 78.1103 27.2392 68.8703 25.4892C68.5303 25.4292 64.9904 24.3192 65.0004 24.0492C65.0004 23.7592 57.9703 19.2192 46.7303 18.8292C43.8603 18.7292 35.9103 19.5692 31.6603 20.0292C30.1503 20.1992 29.1104 20.3092 28.9404 20.3192L24.8003 20.4092C21.0203 20.6592 17.8503 23.8792 17.8103 23.8792C16.2303 24.0792 16.0404 23.9692 11.4404 25.1592C7.41035 26.1992 4.76035 28.6292 4.22035 30.0992C3.76035 31.3692 7.85034 30.9892 7.89034 32.2292C7.89034 32.2292 2.90035 33.0592 2.05035 34.4992C2.05035 34.4992 1.06035 40.3592 7.86035 43.1992L7.69035 45.3092C10.4403 47.1792 17.7203 49.7992 19.0503 49.7492C19.0503 49.7492 22.6903 47.6192 23.1303 47.6992C25.4103 48.1192 30.4104 52.1592 31.4404 52.3692C33.5204 52.7892 36.0703 51.7992 37.9903 52.2492C39.4803 51.9292 40.9903 51.8292 42.5103 51.8592C47.0003 51.3792 51.5503 51.4592 55.8803 52.6792C57.7003 50.8392 60.4404 48.4992 60.6904 48.9092C60.6904 48.9092 66.2303 48.8792 67.8403 49.7692C68.2403 47.9192 66.4704 46.5092 66.4704 46.5092C66.4704 46.5092 73.6103 43.7092 76.2303 42.3992C76.7603 42.1292 79.2704 39.2392 78.8604 34.8092V34.7892Z" fill="#6D1818"/>
<path d="M66.3604 46.4892C66.5204 46.4392 66.6904 46.3892 66.8504 46.3492C68.3504 45.7592 73.9704 43.5192 76.2404 42.3892C76.4804 42.2692 77.1304 41.6092 77.7204 40.5092C76.1704 40.3992 74.6004 40.1892 73.0404 40.4092C72.7004 40.4592 72.2504 40.1892 72.4104 39.7792C72.6404 39.1592 72.8504 38.5492 73.0304 37.9192C72.0004 38.4292 70.9504 38.8692 69.8704 39.2892C69.5104 39.4292 69.1204 39.0092 69.2404 38.6592C69.5404 37.7792 69.8504 36.9992 70.2604 36.2292C69.6304 36.2792 69.0004 36.3292 68.3704 36.4992C67.9204 36.6192 67.5804 36.1392 67.7904 35.7492C68.2204 34.9392 68.6704 34.1492 69.1204 33.3592C66.2304 33.8992 63.3404 34.4092 60.3904 34.4692C59.8604 34.4792 59.7104 33.7792 60.1304 33.5092C60.5204 33.2592 60.8804 32.9592 61.2204 32.6592C59.7104 32.4892 58.2004 32.2992 56.7004 32.0192C56.4404 31.9692 56.2404 31.6292 56.3404 31.3892C56.5604 30.8292 56.7204 30.2692 56.9304 29.7192C54.7804 30.0892 52.8904 31.2592 50.7904 31.8392C51.3104 32.3592 51.8404 32.8692 52.4304 33.3192C52.6104 33.4492 52.7104 33.6492 52.6704 33.8592C52.7104 33.8592 52.7404 33.8392 52.7804 33.8292C53.4304 33.6892 53.7004 34.6792 53.0504 34.8192C51.5804 35.1392 50.1704 35.6292 48.7504 36.1192C49.3704 36.3192 49.9604 36.5592 50.5604 36.8692C50.9704 37.0792 50.8404 37.6792 50.4404 37.8092C48.9904 38.2592 47.5304 38.6192 46.1304 39.1892C46.9904 39.5892 47.8404 39.9992 48.6904 40.4192C49.2004 40.6692 48.8804 41.3192 48.4304 41.3792C45.5004 41.7392 42.5504 41.7992 39.6204 42.1292C42.7404 42.6392 45.8204 43.3492 48.9404 43.9092C49.3704 43.9892 49.4504 44.6592 49.0604 44.8492C47.5904 45.5792 46.0304 45.9992 44.4904 46.5292C45.2704 46.9192 46.0404 47.3092 46.8204 47.6992C47.0404 47.8092 47.1004 48.0492 47.0504 48.2692C47.0904 48.4992 46.9904 48.7492 46.7004 48.8292C45.2804 49.1992 43.8304 49.3992 42.3704 49.5892C42.5204 49.7392 42.6604 49.8992 42.8204 50.0492C43.8504 50.5292 44.8904 50.9792 45.9604 51.3892C46.0904 51.4392 46.1804 51.5292 46.2404 51.6292C49.5004 51.5392 52.7504 51.8192 55.8904 52.6992C56.4804 52.1092 57.1604 51.4592 57.8304 50.8692C57.5604 50.7692 58.3004 48.9392 58.7804 48.4292C57.7604 48.7292 55.0904 49.3392 54.0404 49.5692C53.4504 49.6992 57.2904 47.4292 57.9004 46.6192C57.5804 46.5492 54.8504 46.5592 54.4404 46.5592C55.9104 46.5592 58.6804 43.7692 58.6804 43.7692C57.2704 43.4992 55.6204 42.1992 55.0804 41.4392C54.8604 41.2592 54.7704 40.9492 55.0404 40.7192C56.0704 39.8392 57.5204 39.5792 58.4904 38.6592C59.1804 38.0192 60.0204 37.4692 61.1804 37.8392C61.4704 37.9392 58.8704 39.5292 58.6704 39.8192C58.2404 40.4292 60.6404 39.3692 60.5904 40.1592C60.6604 40.4392 58.7004 41.4792 58.9204 41.5992C59.7904 42.0592 61.1904 42.1692 61.9704 41.7692C62.3304 41.5892 62.2504 44.0592 61.9804 44.6292C62.5704 44.4292 63.4404 42.8292 64.0604 42.6792C64.5004 42.5792 64.3204 44.9892 64.2904 45.0492C64.9804 44.8292 68.1704 43.7092 67.9204 44.1092C67.6704 44.5192 66.5404 46.0692 66.3504 46.5092L66.3604 46.4892Z" fill="#510A07"/>
<path d="M30.8103 38.3392C32.1703 37.7592 33.5603 37.2392 34.9203 36.6592C34.9903 36.6292 35.0603 36.6192 35.1303 36.6192C34.0503 35.2792 32.6703 34.2092 31.3703 33.0792C31.2203 33.1192 31.0403 33.1092 30.8903 32.9892C27.9803 30.6492 23.9103 29.7492 20.2203 30.0892C20.2703 31.2092 20.0703 32.1992 19.5603 33.2492C19.4203 33.5292 19.1603 33.5592 18.9403 33.4492C18.8103 33.5192 18.6503 33.5292 18.4803 33.4292C17.9703 33.1292 17.4303 32.8892 16.8803 32.6692C16.9403 33.1092 17.0503 33.5392 17.1903 33.9692C17.3403 34.4192 16.8803 34.6792 16.5303 34.5692C16.4303 34.6192 16.3203 34.6392 16.1903 34.5992C15.1603 34.3192 14.1203 34.1592 13.0703 34.0892C13.2603 34.3092 13.4403 34.5292 13.6003 34.7792C13.9503 35.2992 13.1803 35.7792 12.7803 35.3692C10.9203 35.3692 9.04026 35.2792 7.19026 35.4692C8.82026 35.9792 10.4103 36.5992 11.9303 37.3992C12.4003 37.6492 12.1503 38.2692 11.7303 38.3392C11.6903 38.3892 11.6303 38.4392 11.5603 38.4792L10.8603 38.8292C11.8303 38.9192 12.8103 39.0592 13.6203 39.4592C14.0403 39.6692 13.9003 40.2692 13.5003 40.3992C10.9803 41.1892 8.36026 41.5592 5.77026 42.0692C6.38026 42.4792 7.08026 42.8692 7.89026 43.2092L7.72026 45.3192C10.4703 47.1892 17.7503 49.8092 19.0803 49.7592C19.0803 49.7592 22.7203 47.6292 23.1603 47.7092C24.4803 47.9492 26.7103 49.4092 28.5503 50.6292C29.8203 50.1592 31.1303 49.7992 32.4203 49.3892C31.9803 48.7892 31.6803 48.1092 31.5403 47.3492C31.1903 47.2492 31.0003 46.6692 31.4003 46.3792C32.1803 45.7992 33.0303 45.3392 33.9303 44.9892C32.0803 44.0592 30.3403 42.8792 28.3503 42.2792C28.0803 42.1992 27.9803 41.9692 28.0003 41.7392C27.9103 41.7392 27.8303 41.7392 27.7403 41.7392C27.0803 41.7392 27.0803 40.7092 27.7403 40.7092C29.1103 40.7192 30.4803 40.8392 31.8503 40.8792C31.5703 40.3292 31.2903 39.7692 30.9603 39.2492C30.5803 39.1092 30.3803 38.5492 30.8403 38.3492L30.8103 38.3392Z" fill="#510A07"/>
<path d="M13.1704 47.9692C12.0204 47.0492 10.8203 46.2192 9.38035 45.7192C8.64035 45.4592 8.05035 44.5092 8.59035 43.7692C9.32035 42.7692 9.08035 42.6992 7.97035 42.2092C7.04035 41.7992 6.22035 41.3592 5.38035 40.7992C4.31035 40.0892 3.62035 39.0792 3.02035 37.9692C2.31035 36.6592 2.08035 35.1492 2.66035 33.9092C2.39035 34.0892 2.17035 34.2892 2.05035 34.4992C2.05035 34.4992 1.06035 40.3592 7.86035 43.1992L7.69035 45.3092C8.93035 46.1492 11.0703 47.1392 13.1803 47.9692H13.1704Z" fill="#A55D55"/>
<path d="M7.69042 26.8292C8.36042 26.3092 9.13042 26.0092 9.89042 25.6492C6.74042 26.8392 4.69042 28.8292 4.22042 30.0992C3.78042 31.2992 7.42042 31.0292 7.84042 32.0392C7.96042 32.0092 8.09042 31.9692 8.20042 31.9192C9.45042 31.3992 7.27042 30.7392 7.03042 30.6892C6.54042 30.6092 6.06042 30.5592 5.56042 30.5492C5.09042 30.5492 4.91042 30.0092 5.20042 29.6692C6.01042 28.7092 6.67042 27.5892 7.69042 26.8092V26.8292Z" fill="#A55D55"/>
<path d="M78.8603 34.7893C78.8603 34.7893 78.6103 36.7193 78.3603 37.9793C78.1103 39.2393 76.9803 41.8893 74.7303 42.7793C72.9403 43.4893 67.2903 44.8993 65.7703 46.4993C66.5603 47.4393 67.2603 48.4393 67.6203 49.6593C67.7003 49.6893 67.7703 49.7293 67.8303 49.7593C68.2303 47.9093 66.4603 46.4993 66.4603 46.4993C66.4603 46.4993 73.6003 43.6993 76.2203 42.3893C76.7503 42.1193 79.2603 39.2293 78.8503 34.7993L78.8603 34.7893Z" fill="#A55D55"/>
<path d="M59.8104 48.6093C58.8504 49.3093 57.3704 50.7293 56.5004 51.5793C56.3004 51.9393 56.1104 52.2893 55.9004 52.6493C57.7204 50.8093 60.4404 48.4893 60.6904 48.8993C60.6904 48.8993 64.8404 48.8793 67.0004 49.4493C65.0304 48.5993 60.1304 48.3693 59.8104 48.6093Z" fill="#A55D55"/>
<path d="M67.7299 54.9693C67.4099 54.6993 67.0799 54.4593 66.7499 54.2493C66.5499 54.1593 66.3399 54.0693 66.1299 53.9893C64.3399 54.4693 62.2799 54.6493 60.9099 55.8493C60.6499 56.6793 60.5199 57.5593 60.3199 58.3793C60.0099 59.6693 59.6199 60.8993 59.4799 62.2193C59.3599 63.3093 59.1599 64.3893 58.9199 65.4593C59.1299 65.6693 59.3399 65.8892 59.5599 66.0892C60.0799 66.0492 60.6499 66.0893 61.0899 65.8493C61.5799 65.5793 62.0599 64.3093 62.4099 63.8693C63.2299 62.8493 64.0399 61.7493 65.3199 61.2993C66.3799 60.7793 67.6999 60.1293 67.6999 60.1293C67.6999 60.1293 68.9999 58.0592 69.1899 56.4492C68.8499 56.0692 68.4399 55.7593 68.0499 55.4293C67.8999 55.3093 67.7899 55.1493 67.7299 54.9893C67.7299 54.9893 67.7199 54.9792 67.7099 54.9792L67.7299 54.9693Z" fill="#5B1109"/>
<path d="M62.8399 56.1593C62.5099 55.9993 61.0099 56.2193 60.6699 56.0693C60.4499 56.8293 60.5099 57.6293 60.3199 58.3793C60.0099 59.6693 59.6199 60.8993 59.4799 62.2193C59.3599 63.3093 59.1599 64.3893 58.9199 65.4593C59.1299 65.6693 59.3399 65.8893 59.5599 66.0893C59.8499 66.0693 60.1599 66.0693 60.4499 66.0293C60.8499 64.7993 61.3999 63.6393 62.0999 62.5293C62.6199 61.6893 63.1799 60.8893 63.7299 60.0793C64.1499 59.4593 64.4399 58.7693 64.8199 58.1193C63.9299 57.4693 63.8299 56.6193 62.8499 56.1593H62.8399Z" fill="#8C493E"/>
<path d="M61.8108 58.5393C61.5608 59.5793 61.3808 60.6093 61.0908 61.0293C60.8008 61.4493 60.5908 62.8293 60.5908 62.8293C60.5908 62.8293 61.8108 60.3793 62.0708 59.6893C62.3308 58.9993 62.6808 57.3593 62.6808 57.3593L63.3608 56.7593C63.3608 56.7593 62.7408 56.5493 62.2108 56.9693C62.2108 56.9693 62.0608 57.4893 61.8208 58.5293L61.8108 58.5393Z" fill="#68190B"/>
<path d="M61.3008 57.3294C61.3608 57.0694 61.3808 56.7994 61.4508 56.5694C61.5108 56.3394 62.0008 56.1394 61.9308 55.8894C61.6608 55.7694 61.1708 56.0894 61.0208 56.3094V56.2494C61.0408 56.7694 61.0208 57.2694 61.0508 57.7794C61.0708 58.1994 60.9108 58.6094 60.9508 59.0094C61.0108 58.4594 61.1808 57.8694 61.3108 57.3294H61.3008Z" fill="#68190B"/>
<path d="M64.6904 58.4693C65.0704 58.3993 65.4604 58.3193 66.0404 58.1893C66.2804 58.1393 67.1204 57.9793 67.5704 57.7193C68.1704 57.3693 69.2204 56.6893 69.2004 56.4493C69.1404 55.8293 66.8504 54.5093 66.2604 54.1893C66.1704 54.1393 66.0804 54.0893 65.9804 54.0293C64.0804 54.5193 61.9704 54.6293 60.6604 56.0693C60.7204 56.1093 60.8404 56.1793 60.9904 56.2693C61.0704 56.3193 61.5104 56.0693 61.5904 56.1193C61.6804 56.1693 61.4204 56.5293 61.4204 56.5293C61.7304 56.7093 62.1104 56.9393 62.1804 56.9893L63.0004 56.8393L62.6504 57.3693C63.3104 57.7593 63.9604 58.1293 64.6704 58.4793L64.6904 58.4693Z" fill="url(#paint14_linear_309_79767)"/>
<path d="M62.6704 57.3592C63.3304 57.7492 63.9804 58.1192 64.6904 58.4692C65.0704 58.3992 65.4604 58.3192 66.0404 58.1892C66.2804 58.1392 67.1204 57.9792 67.5704 57.7192C68.1504 57.3792 69.1604 56.7292 69.1904 56.4692C67.5704 57.7192 64.6804 58.4792 62.8004 57.1592L62.6604 57.3592H62.6704Z" fill="#E08F89"/>
<path d="M41.24 67.7092C41.24 67.7092 41.31 67.7492 41.34 67.7692C42.11 65.3692 42.26 62.8592 42.86 60.4192C42.99 59.8792 43.64 58.1292 42.94 57.7892C42.46 57.5592 41.89 57.4692 41.44 57.1992C40.79 56.8192 40.12 56.4392 39.44 56.1092C39.02 55.9092 37.65 55.2092 37.24 55.7292C36.52 56.6592 37.43 58.6892 37.66 59.6792C38.14 61.7792 38.78 64.0492 38.39 66.1792C39.34 66.6892 40.28 67.2192 41.24 67.7092Z" fill="#75433B"/>
<path d="M42.8603 60.4193C42.9903 59.8793 43.6403 58.1293 42.9403 57.7893C42.4603 57.5593 41.8903 57.4692 41.4403 57.1992C40.7903 56.8192 40.1203 56.4393 39.4403 56.1093C39.0403 55.9193 37.8003 55.2893 37.3203 55.6593C38.8403 57.0993 41.3803 57.1393 41.5403 59.7093C41.6403 61.2493 41.6603 62.8092 41.7103 64.3392C41.7303 65.0292 41.7403 65.7293 41.7103 66.4293C42.1803 64.4393 42.3703 62.3993 42.8603 60.4193Z" fill="#996256"/>
<path d="M42.1698 54.8691C42.1698 54.8691 38.8797 55.0491 38.8797 55.1091C38.8797 55.1091 36.6298 55.2191 38.0798 56.2691C38.0698 56.3191 41.7498 57.6191 41.9998 57.7891C42.0298 57.8491 42.0498 57.9191 42.0698 58.0091C42.4198 57.7991 42.8098 57.6791 43.1998 57.5191C43.6598 57.3291 44.1198 57.1591 44.5898 56.9891C44.5898 56.9191 44.5898 56.8491 44.5898 56.7791C44.5698 56.4191 42.1798 54.8791 42.1798 54.8791L42.1698 54.8691Z" fill="url(#paint15_linear_309_79767)"/>
<path d="M37.9503 55.2891C37.4903 55.3991 37.2403 55.729 37.2403 55.729C37.2303 55.779 38.6803 56.9391 42.0103 57.7791C42.0403 57.8391 42.0603 57.9091 42.0803 57.9991C42.4303 57.7891 42.8203 57.6691 43.2103 57.5091C43.6703 57.3191 44.1303 57.149 44.6003 56.979C44.6003 56.909 44.6003 56.8391 44.6003 56.7691C44.6003 56.7291 44.5703 56.6791 44.5203 56.6191C41.7603 58.1591 40.0103 57.0091 38.3103 56.2191C37.6303 55.8991 37.3403 55.6491 37.9703 55.2891H37.9503Z" fill="#E08F89"/>
<path d="M44.5898 56.7789C44.5898 56.7789 44.5698 56.7189 44.5398 56.6689C43.7498 57.1789 42.8798 57.559 41.9698 57.759C41.9698 57.759 41.9898 57.819 41.9998 57.819C42.4698 58.909 41.7798 66.2289 41.2598 67.8089C42.1298 66.5789 44.7598 59.419 44.5898 56.769V56.7789Z" fill="#56251E"/>
<path d="M41.3195 67.7189C41.7495 66.3189 41.9395 64.9489 42.0695 63.4989C42.1495 62.6289 42.2895 61.779 42.3795 60.909C42.4295 60.379 42.4595 59.819 42.5995 59.299C42.8895 58.259 43.4495 57.549 44.4795 57.159C44.5195 57.149 44.5595 57.139 44.5995 57.119C44.5995 56.999 44.5995 56.8789 44.5995 56.7789C44.5995 56.7489 44.5795 56.7189 44.5495 56.6689C43.7595 57.1789 42.8895 57.559 41.9795 57.759C41.9795 57.759 41.9995 57.819 42.0095 57.819C42.4795 58.909 41.7895 66.2289 41.2695 67.8089C41.2895 67.7789 41.3095 67.749 41.3295 67.709L41.3195 67.7189Z" fill="#472419"/>
<path d="M35.7008 70.6493C35.9008 71.9493 36.0208 73.2193 36.3908 74.4893C36.6908 75.5393 36.9208 76.5992 37.1108 77.6692C37.3908 77.7892 37.6608 77.8993 37.9408 77.9993C38.4108 77.7593 38.9408 77.5892 39.2508 77.1992C39.6008 76.7692 39.5508 75.4193 39.7108 74.8793C40.0708 73.6393 40.3908 72.3093 41.4008 71.4093C41.4008 71.4093 41.4008 71.4093 41.4108 71.4093C42.1808 70.5293 43.1508 69.4293 43.1508 69.4293C43.1508 69.4293 43.5508 67.0392 43.1208 65.4792C42.6608 65.2692 42.1808 65.1392 41.6808 64.9792C41.5008 64.9192 41.3408 64.8193 41.2208 64.6893H41.2008C40.8008 64.5693 40.4108 64.4693 40.0308 64.3993C38.6808 64.3593 37.2508 64.5093 36.2208 65.2093C35.9008 65.5493 35.6108 65.9092 35.3308 66.2792C35.3508 66.3792 35.3508 66.4893 35.3308 66.6193C35.1008 67.9593 35.5108 69.3292 35.7108 70.6392L35.7008 70.6493Z" fill="#68190B"/>
<path d="M39.4708 70.9091C39.6208 70.1791 39.6308 69.4391 39.7208 68.6991C38.6608 68.4391 37.4808 68.3991 36.4008 68.3491C36.0308 68.3291 35.6708 68.3191 35.3008 68.3191C35.3908 69.0991 35.5808 69.8891 35.7008 70.6491C35.9008 71.9491 36.0208 73.2191 36.3908 74.4891C36.6908 75.5391 36.9208 76.5991 37.1108 77.6691C37.3908 77.7891 37.6608 77.8991 37.9408 77.9991C38.2008 77.8691 38.4908 77.7491 38.7408 77.6091C38.6408 76.3291 38.7008 75.0491 38.9108 73.7691C39.0708 72.8091 39.2808 71.8591 39.4708 70.8991V70.9091Z" fill="#8C493E"/>
<path opacity="0.75" d="M36.4008 68.3491C36.0308 68.3291 35.6708 68.3191 35.3008 68.3191C35.3908 69.0991 35.5808 69.8891 35.7008 70.6491C35.9008 71.9491 36.0208 73.2191 36.3908 74.4891C36.6908 75.5391 36.9208 76.5991 37.1108 77.6691C37.3908 77.7891 37.6608 77.8991 37.9408 77.9991C38.0708 77.9291 38.2208 77.8691 38.3608 77.7991C38.3108 77.3891 38.2708 76.9691 38.2308 76.5591C38.1308 75.5491 37.9008 74.5791 37.7008 73.5791C37.5408 72.7791 37.3808 71.9591 37.3408 71.1491C37.2008 70.2291 37.1608 69.2991 37.2508 68.3791C36.9608 68.3591 36.6808 68.3491 36.4108 68.3391L36.4008 68.3491Z" fill="#72352E"/>
<path d="M42.1105 67.2791C42.5205 66.7291 43.2305 65.7091 43.1205 65.4891C42.8305 64.9491 40.2205 64.5991 39.5605 64.5291C38.5705 64.4291 37.3405 64.0891 36.3305 64.2291C35.6605 65.6191 33.6705 66.6491 32.8205 67.9091L32.7205 68.0691C32.6705 68.1291 35.1605 68.4891 35.7605 68.5691C37.1205 68.7491 38.3805 68.9791 39.7505 69.0691C40.0705 68.8691 40.4005 68.6391 40.8805 68.2991C41.0805 68.1591 39.8005 68.3291 39.9205 68.1691C40.0405 68.0091 41.7905 67.6891 42.1005 67.2791H42.1105Z" fill="#A04D3D"/>
<path opacity="0.69" d="M32.8107 67.9091L32.7107 68.0691C32.6607 68.1291 35.1507 68.4891 35.7507 68.5691C36.2507 68.6391 36.7307 68.7091 37.2107 68.7791C37.2407 68.7791 37.4807 68.1491 38.8707 66.8391C39.3607 66.3791 35.6607 65.8791 34.9307 65.5491C34.0507 66.5191 33.4707 66.9291 32.8107 67.8991V67.9091Z" fill="#6B261E"/>
<path d="M42.1108 67.2792C42.2808 67.0492 42.5008 66.7492 42.6908 66.4492C42.1708 67.0192 41.6508 67.4292 40.9508 67.5792C40.7208 67.7192 39.4808 68.1992 39.3408 68.2692C39.0108 68.4292 40.7608 68.3292 40.4208 68.4492C40.2508 68.5092 39.9408 68.8692 39.6808 68.8792C39.6108 68.9192 38.9408 68.8792 38.8608 68.8992C38.7608 68.9292 38.6608 68.9392 38.5608 68.9592C38.9508 68.9992 39.3408 69.0392 39.7508 69.0692C40.0708 68.8692 40.4008 68.6392 40.8808 68.2992C41.0808 68.1592 39.8008 68.3292 39.9208 68.1692C40.0408 68.0092 41.7908 67.6892 42.1008 67.2792H42.1108Z" fill="#B26C64"/>
<path d="M30.9804 63.9492C30.0204 63.8992 29.0704 63.8492 28.1204 63.7192C28.4304 64.3992 28.7104 65.0992 28.9804 65.7992C29.2304 66.4692 29.5604 67.1192 29.7604 67.8092C29.7804 67.7992 29.7904 67.7892 29.7904 67.7892C30.1504 68.8192 31.0004 70.3892 31.5304 71.6592C31.8504 72.4392 32.0204 73.3092 32.2704 74.0892C32.7904 74.3792 33.3504 74.6092 33.8104 74.9892C33.8504 75.0192 33.8904 75.0492 33.9304 75.0792C34.0704 75.1592 34.1604 75.2392 34.1604 75.2392C34.4704 75.8792 35.0304 76.5092 35.5804 77.0392C36.3804 77.3292 37.1604 77.7092 37.9404 77.9992C38.0504 77.0692 38.0004 76.2292 37.7304 75.2392C37.4104 74.0892 37.0304 72.9492 36.7304 71.7992C36.5504 71.0792 36.3604 70.3092 36.4604 69.5592C36.2404 67.9092 36.3704 66.0492 36.3704 66.0492C35.4504 65.3892 32.0704 64.0092 30.9804 63.9492Z" fill="#7C2A1D"/>
<path opacity="0.64" d="M32.7804 65.6093C31.5404 65.0093 30.0704 64.6193 28.9204 63.8193C28.6504 63.7993 28.3904 63.7692 28.1204 63.7292C28.4304 64.4092 28.7104 65.1092 28.9804 65.8092C29.0704 66.0392 29.1604 66.2592 29.2504 66.4792C29.7604 66.4192 30.2304 66.5592 30.6504 66.8392C32.1504 67.6992 32.8604 69.9693 33.1404 71.5093C33.3504 72.6193 33.5204 73.7293 33.6204 74.8493C33.6704 74.8893 33.7204 74.9193 33.7704 74.9593C33.8204 74.9993 33.8804 75.0393 33.9204 75.0793C34.0604 75.1593 34.1404 75.2393 34.1404 75.2393C34.3004 75.5693 34.5304 75.9092 34.8004 76.2292C34.8104 74.2792 35.2204 72.3293 35.0304 70.3793C34.8504 68.5593 34.5804 66.4893 32.7704 65.6093H32.7804Z" fill="#490E05"/>
<path d="M36.1706 65.9192C34.9206 66.4892 33.5806 66.8392 32.4506 67.6392C32.4206 67.6592 32.3806 67.6792 32.3506 67.6992C32.3706 67.7592 32.3906 67.8192 32.4006 67.8892C33.1406 70.2892 33.8706 72.7192 34.1306 75.2192L34.1506 75.2392C34.4606 75.8792 35.0206 76.5092 35.5706 77.0392C36.3706 77.3292 37.1506 77.7092 37.9306 77.9992C38.0406 77.0692 37.9906 76.2292 37.7206 75.2392C37.4006 74.0892 37.0206 72.9492 36.7206 71.7992C36.5406 71.0792 36.3506 70.3092 36.4506 69.5592C36.2306 67.9092 36.3606 66.0492 36.3606 66.0492C36.3006 66.0092 36.2406 65.9592 36.1606 65.9192H36.1706Z" fill="#5B1109"/>
<path opacity="0.64" d="M36.2403 65.9592C36.2403 65.9592 36.2003 65.9292 36.1803 65.9192C34.9303 66.4892 33.5903 66.8392 32.4603 67.6392C32.4303 67.6592 32.3904 67.6792 32.3604 67.6992C32.3804 67.7592 32.4003 67.8192 32.4103 67.8892C33.1503 70.2892 33.8804 72.7192 34.1404 75.2192L34.1603 75.2392C34.3003 75.5292 34.4903 75.8092 34.7003 76.0892C34.7003 75.5092 34.7003 74.9192 34.6803 74.3392C34.6303 73.3192 34.4903 72.3692 34.1303 71.4092C33.8603 70.6692 33.6004 69.9392 33.4704 69.1692C33.2004 68.8592 33.1203 68.4092 33.4903 68.0192C34.2903 67.1792 35.2303 66.5192 36.2403 65.9692V65.9592Z" fill="#380801"/>
<path d="M30.9204 66.3092C31.5504 66.9792 32.2104 67.2992 32.5504 67.9692C33.8004 67.1492 35.1804 66.7692 36.3604 66.0592C35.7804 65.3192 32.4104 62.9992 31.9004 63.4292C31.0404 63.4692 28.9704 63.6392 28.1204 63.7292C28.3804 64.2792 29.2404 64.9292 29.9804 65.5092C30.1704 65.6592 30.4504 65.7292 31.4104 65.7092C31.4104 65.7092 30.8104 66.1992 30.9104 66.3092H30.9204Z" fill="url(#paint16_linear_309_79767)"/>
<path d="M30.9203 66.3092C31.5503 66.9792 32.2103 67.2992 32.5503 67.9692C33.8003 67.1492 35.1804 66.7692 36.3604 66.0592C36.3404 66.0292 36.3203 66.0092 36.2903 65.9792C35.1703 66.4292 34.0303 66.8192 32.9203 67.2792C32.2603 67.5492 31.6503 66.8492 31.7703 66.2292C31.8303 65.9392 31.9303 65.6592 32.0603 65.3992C32.0703 65.3792 32.0903 65.3592 32.1003 65.3392C31.6303 65.4092 31.1204 65.5592 30.6404 65.4592C29.6204 65.2492 28.9603 64.4792 28.3403 63.6992C28.2503 63.6992 28.1704 63.7192 28.1104 63.7192C28.3704 64.2692 29.2304 64.9192 29.9704 65.4992C30.1604 65.6492 30.4403 65.7192 31.4003 65.6992C31.4003 65.6992 30.8003 66.1892 30.9003 66.2992L30.9203 66.3092Z" fill="#E08F89"/>
<path d="M73.5604 27.6591C71.2004 25.3291 64.5204 27.9991 61.5504 27.6391C57.5804 27.1491 53.5704 27.3291 49.5604 27.1691C43.9904 26.9491 38.4104 26.9991 32.8504 26.7591C28.1704 26.5591 23.1804 25.9991 18.6404 25.3091C17.4704 25.1291 16.4404 24.9891 15.2304 25.1791C14.5204 25.2891 12.9704 25.2391 12.6004 25.5691L12.4704 25.8291C11.7904 25.6091 10.7704 25.5691 10.1204 25.8591C10.8704 26.4591 12.2904 26.4991 13.2604 26.9091C14.3304 27.3591 14.7204 27.9091 15.8004 28.3191C15.2304 28.3191 14.6904 28.5191 14.2904 28.8491C16.3404 29.1391 19.4704 30.2391 21.1504 31.2091C24.0204 32.8591 26.9104 31.4091 29.8904 32.7491C30.9604 33.2291 30.3204 33.1491 30.8404 33.8291C31.3504 34.4991 30.5704 34.4991 31.5204 34.3891C31.8704 34.3491 32.3204 33.8291 32.6804 33.6991C33.2404 33.4791 33.9404 33.4691 34.5504 33.4091C35.8404 33.2891 37.0804 32.9891 38.3204 32.8091C41.0604 32.4191 44.1104 33.4091 46.8204 33.7391C48.0204 33.8891 49.2504 33.9191 50.3904 34.0991C52.0604 34.3491 51.7304 34.1691 53.0304 33.2791C55.0904 31.8891 60.5504 32.4391 62.8404 31.7691C62.7204 31.9791 62.0504 32.5991 61.9604 32.7691C63.8204 31.6791 64.1904 32.1991 66.3904 32.2391C66.0504 32.3491 67.3804 32.1391 67.3804 32.1391C67.0404 31.8791 66.5104 31.8291 66.0504 31.7691C67.5004 31.5191 70.1504 31.0791 71.2804 30.1691C70.8904 29.8991 70.2904 29.7291 69.9404 29.3791C70.7904 28.4891 72.9004 28.6791 73.5604 27.6691V27.6591Z" fill="#510A07"/>
<path d="M22.8008 47.1692C21.3308 47.3492 20.3808 48.9692 19.0508 49.5392C19.2908 50.1592 19.0908 50.9092 19.4208 51.4992C19.8508 52.2592 20.3208 51.9892 20.9608 52.5492C22.0408 53.4892 21.5208 55.1992 21.6008 56.4892C21.7508 58.8592 21.5508 62.9592 23.5608 64.5592C24.5908 64.1892 23.8508 61.3192 24.1308 60.3892C24.4408 60.5292 24.8208 60.6592 25.0708 60.9492C26.6108 58.9992 22.8108 55.3092 25.4808 53.2492C26.1908 54.6092 26.6308 54.6492 26.5808 52.8492C26.5408 51.5992 26.6208 50.4192 27.3308 49.2892C26.3108 48.4192 24.2108 46.9792 22.8108 47.1592L22.8008 47.1692Z" fill="#E23A05"/>
<path d="M22.3306 48.9294C22.2106 48.8794 22.1406 48.8594 22.1406 48.8594C22.1906 48.8894 22.2606 48.9094 22.3306 48.9294Z" fill="#C91609"/>
<path d="M22.3301 48.9292C22.8701 49.1492 24.3501 49.8792 24.6001 51.1592C24.9701 53.0692 23.4901 54.4992 24.0501 56.4992C24.3401 57.5592 24.6801 58.5992 24.8501 59.6892C24.9001 59.9792 24.5701 59.9492 24.2101 59.8992C23.1001 59.7592 23.7201 62.4692 23.5401 63.3092C23.4601 63.6692 23.3601 63.9792 23.2501 64.2692C23.3501 64.3792 23.4601 64.4792 23.5701 64.5692C24.6001 64.1992 23.8601 61.3292 24.1401 60.3992C24.4501 60.5392 24.5301 61.2092 25.0801 60.9592C26.6201 59.0092 22.8201 55.3192 25.4901 53.2592C26.2001 54.6192 26.6401 54.6592 26.5901 52.8592C26.5501 51.6092 26.6301 50.4292 27.3401 49.2992C26.9001 48.9192 23.4201 49.2292 22.3501 48.9192L22.3301 48.9292Z" fill="#C91609"/>
<path d="M19.0508 49.5392C19.1708 49.8592 19.1808 50.2092 19.2008 50.5592C19.2208 50.5392 19.2408 50.5192 19.2608 50.5092C21.5308 48.7292 25.0108 48.7492 26.6808 50.9592C26.7908 50.3892 26.9808 49.8392 27.3208 49.2992C26.3008 48.4292 24.2008 46.9892 22.8008 47.1692C21.3308 47.3492 20.3808 48.9692 19.0508 49.5392Z" fill="#C91609"/>
<path d="M53.5506 62.0292C54.1606 61.6092 54.0506 59.9592 54.1206 59.3192C54.2406 58.0692 54.5306 56.9392 54.8606 55.7292C55.1506 54.6792 55.7906 52.4892 55.7906 52.4892C55.2306 51.6292 52.5806 51.0792 51.6706 51.0092C50.2306 50.8992 48.7106 51.8092 47.3906 51.9492C48.6306 55.1992 46.8906 58.0092 47.9506 59.4392C49.1306 61.0292 49.8906 57.1892 51.0106 56.4992C53.6206 54.8792 52.4506 59.6092 52.4206 60.4392C52.3906 61.2292 52.4806 62.7592 53.5506 62.0192V62.0292Z" fill="#E23A05"/>
<path d="M49.8203 56.3993C49.4003 56.9193 49.5303 57.9493 49.2203 58.5393C48.9003 59.1393 48.2903 59.3293 47.7803 59.1493C47.8303 59.2593 47.8803 59.3593 47.9503 59.4493C49.1303 61.0393 49.8903 57.1993 51.0103 56.5093C51.5403 56.1793 51.9203 56.1193 52.1803 56.2293C52.1903 56.0893 50.8003 55.1993 49.8203 56.4093V56.3993Z" fill="#C91609"/>
<path d="M52.9902 61.4293C52.8602 61.5393 52.6602 61.5893 52.4902 61.5493C52.6102 62.0893 52.9002 62.4593 53.5402 62.0193C54.1502 61.5993 54.0402 59.9493 54.1102 59.3093C54.2302 58.0593 54.5202 56.9293 54.8502 55.7193C55.1402 54.6693 55.7802 52.4793 55.7802 52.4793C55.4402 51.9593 54.3502 51.5593 53.3402 51.2993C54.1502 52.7193 54.3102 54.4993 54.2202 56.0993C54.1402 57.6293 54.2902 60.3093 52.9902 61.4193V61.4293Z" fill="#C91609"/>
<path d="M47.21 51.5793C47.43 52.1493 47.72 53.0793 47.78 53.6093C48.64 52.9693 50.04 52.6593 50.99 53.3193C51.22 53.4793 51.43 53.6493 51.62 53.8293C51.69 53.8093 51.76 53.7893 51.83 53.7693C52.42 53.6493 53.23 53.5493 53.81 53.7793C54.3 53.9693 54.77 54.2293 55.18 54.5593C55.47 53.5593 55.78 52.4993 55.78 52.4993C55.22 51.6393 52.57 51.0893 51.66 51.0193C50.22 50.9093 48.53 51.4393 47.21 51.5793Z" fill="#C91609"/>
<path d="M76.5104 42.2092C74.7904 42.5092 73.2104 43.3592 71.8204 44.0292L71.7704 44.0492C72.8804 45.3692 70.9604 48.7392 72.1604 48.7292C73.1804 48.7192 72.2904 46.4892 73.2404 46.5492C74.2304 46.5292 72.4204 51.9192 72.4904 54.5892C72.5304 56.3092 73.6704 56.8792 73.9604 54.9292C74.1604 53.5992 74.0404 50.9692 74.4204 50.7892C75.2904 50.3692 74.1104 52.6092 75.1704 52.6892C76.1904 52.7692 75.6304 50.8592 75.6204 49.9492C75.6204 49.0492 75.5504 47.9992 75.5804 47.0992C75.6404 45.4392 76.1604 43.7792 76.5104 42.2092Z" fill="#E23A05"/>
<path d="M76.0003 44.1892C76.1703 43.4292 76.3503 42.8992 76.5103 42.2092C74.7903 42.5092 73.2103 43.3592 71.8203 44.0292L71.7703 44.0492C72.1603 44.5092 72.1803 45.2292 72.0803 45.9592C73.0903 44.7892 74.5203 44.0192 76.0003 44.1792V44.1892Z" fill="#C91609"/>
<path d="M51.6908 47.0591L51.5908 47.1291C51.5908 47.1291 51.6408 47.1291 51.6708 47.1391C51.6708 47.1091 51.6808 47.0891 51.6908 47.0591Z" fill="#7A2105"/>
<path d="M20.72 51.7592C20.72 51.7592 20.72 51.7092 20.71 51.6792V51.7592H20.72Z" fill="#992A05"/>
<path d="M40.2603 4.59924C39.3403 3.20924 38.9903 1.88924 37.5103 1.20924C36.2603 0.63924 33.8203 0.629235 32.4303 0.649235C29.1903 0.699235 27.8603 3.51924 26.8103 6.22924C24.6403 12.1092 21.4103 18.2892 16.2103 21.7492C15.4203 22.2792 13.1603 23.4792 12.0203 24.4492C10.8403 25.4492 14.5503 27.2192 15.5503 27.6892C17.2803 28.5092 18.5403 28.3592 19.9203 29.8392C21.0203 31.0192 21.5103 32.3692 22.9803 33.1292C26.1403 34.7592 30.7203 33.9292 33.8103 32.5992C37.3003 31.0892 41.0203 32.2892 44.5403 32.7592C46.2603 32.9892 48.0603 33.3192 49.8303 33.3592C52.3803 33.4192 52.1503 32.4892 54.0203 31.3992C55.7503 30.3892 58.0503 31.1292 59.9403 31.0992C62.0503 31.0692 66.0503 30.8992 67.9503 30.0992C70.3903 29.0692 72.8203 26.7992 72.8303 26.7292C66.1903 24.1792 58.7603 20.9592 52.3403 17.4792C46.6403 14.3892 43.6703 9.74923 40.2603 4.60923V4.59924Z" fill="#AA0000"/>
<path d="M26.01 18.2991C24.57 20.5291 16.43 28.7091 12.44 24.1191C12.29 24.2291 12.15 24.3391 12.03 24.4391C10.85 25.4391 14.56 27.2091 15.56 27.6791C15.89 27.8391 16.21 27.9591 16.51 28.0591C17.54 27.7691 18.58 27.5491 19.67 27.3491C21.53 27.0191 23.55 26.6991 25.12 25.5691C28.59 23.0691 29.11 18.1991 30.51 14.3591C30.72 12.2791 29.08 13.5391 26.01 18.2891V18.2991Z" fill="#820202"/>
<path d="M51.6008 17.0394C51.3908 17.7494 50.7808 18.3594 49.5608 18.7194C47.5508 19.3194 44.9908 18.7594 43.3408 17.5194C41.4008 16.0594 41.0508 13.6894 39.6508 11.8294C37.8108 9.36938 36.7108 11.5594 36.0408 14.4694C35.9508 17.6794 35.4008 20.8594 34.5608 23.5494C33.3808 27.2994 31.4408 30.7394 27.7508 32.4694C26.6608 32.9794 25.3808 33.3994 24.0908 33.5694C27.1508 34.5594 31.0708 33.7794 33.8208 32.5894C37.3108 31.0794 41.0308 32.2794 44.5508 32.7494C46.2708 32.9794 48.0708 33.3094 49.8408 33.3494C52.3908 33.4094 52.1608 32.4794 54.0308 31.3894C55.7608 30.3794 58.0608 31.1194 59.9508 31.0894C62.0608 31.0594 66.0608 30.8894 67.9608 30.0894C70.4008 29.0594 72.8308 26.7894 72.8408 26.7194C66.2008 24.1694 58.7708 20.9494 52.3508 17.4694C52.0908 17.3294 51.8508 17.1794 51.6008 17.0394Z" fill="#820202"/>
<path d="M13.1904 26.4093C14.0604 26.9793 15.0904 27.4693 15.5504 27.6893C17.2804 28.5093 18.5404 28.3593 19.9204 29.8393C20.0204 29.9493 20.1104 30.0593 20.2004 30.1693C20.4804 29.8493 20.8704 29.5893 21.3904 29.4393C22.4204 29.1493 23.3604 28.7593 24.2104 28.2893C24.5104 27.8593 24.8104 27.4493 25.1004 27.0693C25.9304 25.9593 26.8504 24.9093 27.6204 23.7593C28.6904 22.1593 29.1304 20.1193 29.5304 18.2593C29.6704 17.5993 29.8004 16.9493 29.9204 16.2993C29.3604 17.7293 28.6504 19.0693 27.8104 20.2493C24.7304 24.5393 18.5404 28.1593 13.1904 26.4193V26.4093Z" fill="#680702"/>
<path d="M54.7603 29.5793C51.1003 31.1693 46.2703 32.8093 43.7103 28.5193C42.0903 25.8093 41.5303 22.5393 40.7903 19.5093C40.1303 16.8393 39.4603 14.1693 38.7303 11.5193C38.6403 15.2793 38.8103 18.9393 38.1703 22.4193C38.1203 23.5793 38.0503 24.7293 37.9203 25.8593C37.6203 28.5093 36.3603 30.6293 34.5603 32.3193C37.8303 31.2593 41.2703 32.3193 44.5403 32.7693C46.2603 32.9993 48.0603 33.3293 49.8303 33.3693C52.3803 33.4293 52.1503 32.4993 54.0203 31.4093C55.7503 30.3993 58.0503 31.1393 59.9403 31.1093C62.0503 31.0793 66.0503 30.9093 67.9503 30.1093C70.3903 29.0793 72.8203 26.8093 72.8303 26.7393C72.6403 26.6693 72.4403 26.5893 72.2503 26.5093C67.9903 26.8093 63.3203 25.8293 59.8603 24.9193C55.0903 23.6593 50.1703 21.1293 46.4003 17.5593C47.2103 18.7593 48.3503 19.8793 49.1503 20.6393C51.1503 22.5593 53.8603 23.4193 55.7803 25.4293C57.1803 26.8893 56.4503 28.8493 54.7503 29.5893L54.7603 29.5793Z" fill="#680702"/>
<path d="M61.6106 40.6993C64.1806 42.3593 68.9706 43.6293 71.9206 44.2693C73.4706 43.7193 75.3606 42.7293 76.5106 42.2093C72.9206 42.2893 62.8706 39.4693 66.3306 36.4693C67.6806 35.2993 61.0606 35.3993 59.5006 35.0193C57.0406 34.4193 58.1006 34.1693 56.1206 32.5993C53.4906 30.5093 51.0806 27.9993 49.1706 25.4193C47.2406 22.8193 44.5106 19.8493 43.4106 16.7793C42.8206 15.1193 40.9006 8.15926 42.0906 7.44926C42.1006 6.57926 39.2606 1.59926 38.4606 0.989261C36.3306 -0.640739 31.3906 0.119261 30.2006 0.629261C27.2006 1.74926 24.9306 8.19925 25.8706 8.58925C27.9806 8.96925 27.6606 6.61926 29.7706 6.99926C30.5306 7.09926 31.5506 10.9393 31.1806 13.1893C30.8306 15.2993 30.5606 16.5393 30.1806 18.6693C29.4006 22.9993 28.9806 26.4793 25.6206 29.7393C23.9906 31.3093 21.1206 31.0393 20.8206 32.9093C20.1606 37.0393 14.7306 35.4293 12.6306 36.6893C10.7206 37.8393 18.6806 39.3093 17.2106 40.7293C16.1406 41.7593 10.7606 41.8693 10.3006 43.3993C9.3706 46.5093 17.4806 46.8393 19.0306 49.7493C19.4606 49.5093 21.5006 48.5193 22.2806 48.2593C23.2006 47.9493 24.6306 48.4293 27.1906 49.7493C34.5906 45.8293 24.8606 43.2293 25.4106 40.4493C26.0806 37.0693 33.7006 37.2993 32.1306 35.0393C31.0706 33.5093 24.0906 34.6293 28.6506 29.4193C30.1006 27.7693 30.2706 25.4993 30.8206 23.4593C31.2006 22.0393 31.4706 17.8093 32.6106 16.8593C33.4906 16.1293 34.2206 17.7793 35.0306 16.9893C35.4906 16.5493 35.3306 14.4393 35.4606 13.7893C35.8206 11.9093 36.6806 9.22925 39.2906 10.1393C42.6206 11.2993 42.2506 19.1093 43.1906 21.8593C44.2906 25.0793 48.4706 25.4093 50.4006 28.4493C51.2106 29.7193 51.2606 30.2693 52.4106 31.5093C53.4806 32.6593 54.2906 32.6393 54.3606 34.0993C54.4706 36.6593 51.2206 39.2493 50.3106 41.4993C49.8206 42.6993 51.4706 44.7293 50.2506 45.8793C48.0306 47.9693 46.8906 49.7993 47.2006 51.5693C50.4306 51.5493 52.7906 52.0193 55.7706 52.4893C55.8906 51.6193 52.6806 50.1893 52.2606 48.5193C52.0306 47.6093 54.0206 46.9893 54.4306 45.6393C55.0006 43.7593 53.6706 41.9593 54.0206 41.0193C55.0806 38.2193 58.6706 39.9693 57.9306 36.5893C65.7606 35.8993 59.5006 39.3393 61.5906 40.6893L61.6106 40.6993Z" fill="#FC560D"/>
<path d="M30.3307 1.36908C30.3307 1.36908 30.3307 1.32908 30.3307 1.30908L30.2607 1.46908C30.2607 1.46908 30.3007 1.39908 30.3307 1.36908Z" fill="#E5300C"/>
<path d="M33.4402 0.63933C32.6702 0.64933 30.6802 1.05933 30.3302 1.36933C30.2602 2.34933 33.4602 3.38933 33.9802 3.38933C35.0102 3.37933 36.1002 3.24933 37.0202 2.78933C37.7402 2.41933 38.4802 2.01934 37.9302 1.27934C37.7802 1.06934 37.1802 0.57933 33.4402 0.63933Z" fill="#E5300C"/>
<path d="M37.1203 1.44917C37.2103 1.75917 36.2402 2.77917 35.9302 2.80917C34.7502 2.93917 33.3802 3.11916 32.3502 2.53916C31.5102 2.06916 31.5702 1.65917 31.3002 1.44917C31.0702 1.26917 30.3903 1.07916 30.2603 1.46916C30.0703 2.50916 32.1303 3.64916 34.2503 3.64916C36.6003 3.64916 39.2502 2.53917 37.9302 1.27917C37.7402 1.09917 37.0503 1.22917 37.1203 1.44917Z" fill="#D61D05"/>
<path d="M29.9403 21.8093L29.8303 22.2793C29.8303 22.2793 29.8303 22.3893 29.8103 22.4893C29.8503 22.2693 29.8903 22.0393 29.9403 21.8093Z" fill="#FFDA22"/>
<path d="M22.9799 32.1992C23.3499 32.0092 23.8899 31.9693 24.2799 31.8493C27.8899 30.7893 29.2599 26.8492 29.7299 23.5892C29.7699 23.2992 29.7899 22.7893 29.8099 22.4893C29.1799 25.7193 28.1899 28.1793 25.4099 30.4893C24.7399 31.0493 24.1399 31.5093 23.3299 31.8593C22.5899 32.1693 21.7299 32.0592 21.3199 32.9492C20.9199 33.8192 21.6099 34.2893 20.4999 35.0693C19.9399 35.4693 18.9199 35.9493 18.2699 36.1693C17.3699 36.4793 14.2099 36.4193 14.3099 37.7793C15.1399 38.0093 20.1799 39.1993 17.8899 41.0093C18.4999 40.5293 19.8499 39.6893 19.6499 38.8993C19.3699 37.7993 17.4099 37.9593 16.7599 37.2793C18.0299 36.2293 20.3399 36.4893 21.7199 35.2193C22.6299 34.3793 22.2099 33.9693 22.3999 32.9193C22.5399 32.1593 22.2199 32.5793 22.9799 32.1793V32.1992Z" fill="#FFDA22"/>
<path d="M14.7606 42.7893C15.6706 42.5293 16.9106 42.6693 17.6806 42.0293C16.5306 42.5993 14.4406 42.5593 13.1806 42.7693C12.2506 42.9193 9.5306 43.5493 11.8306 44.1493C14.4206 44.8293 18.6906 43.6493 19.9106 45.9293C21.9606 43.5393 15.6706 43.7293 14.7806 43.7493C13.0706 43.7993 13.5006 43.1593 14.7706 42.7993L14.7606 42.7893Z" fill="#FFDA22"/>
<path d="M26.6104 36.7993C27.9704 36.3493 29.6404 36.4493 30.9604 35.7593C30.5604 34.0393 26.5104 34.2093 26.7904 32.7593L26.5604 32.9993C25.9104 34.1693 28.6104 34.2493 28.9704 35.0993C27.9604 36.3393 24.4604 36.3493 22.9304 36.7293C22.4504 36.8493 20.7304 37.2093 20.5804 37.8293C20.3704 38.7093 22.1104 38.9593 22.6104 39.4893C22.2504 40.4993 20.6204 39.7493 20.0404 40.5993C19.3304 41.6393 21.1204 41.8693 21.8404 42.0893C23.6604 42.6293 25.0204 43.6293 26.5904 44.6493C28.7004 46.4393 27.6604 48.2993 27.3404 48.6393C30.6304 47.7293 28.7004 45.2693 26.9304 44.1193C25.7504 43.3593 22.2904 41.8093 22.4404 40.9293C22.5404 40.3093 24.7304 40.2293 25.1004 39.6893C20.2404 37.7393 26.0004 37.0293 26.6304 36.8093L26.6104 36.7993Z" fill="#FFDA22"/>
<path d="M56.0908 34.3092C55.7808 32.6492 54.0308 32.1492 52.9608 31.2192C54.3208 32.3792 55.9508 34.6992 54.9408 35.9892C53.9408 37.2792 52.0208 39.6692 51.1008 41.0792C49.9508 42.8492 51.9708 43.9092 51.2908 45.6492C50.6808 47.2092 45.5508 51.3792 48.8608 51.1592C50.2108 51.0692 53.5708 51.5792 54.8808 51.9492C54.7708 50.5892 49.8508 51.3692 49.6508 49.7692C49.4908 48.4892 52.4108 45.9192 52.7808 45.4492C53.4608 44.6092 53.2408 44.0992 52.8708 43.1992C52.1408 41.3992 52.2508 40.4092 53.6408 38.8492C54.8208 37.5292 56.4608 36.2892 56.0908 34.3192V34.3092Z" fill="#FFDA22"/>
<path d="M62.3303 40.0392C63.4603 40.8992 65.4403 41.6192 66.7803 42.0392C68.5803 42.5992 70.5603 43.3591 72.1703 43.5891C70.4803 43.0291 64.0303 40.3991 63.5003 39.1091C63.2103 38.4091 65.7503 36.7991 64.8603 35.9791C64.3903 35.5391 62.8903 35.7792 62.2503 35.7592C60.5503 35.7092 58.7503 35.4392 57.3203 34.6292C59.5303 36.5792 62.7403 35.6892 63.9503 36.3792C65.7803 37.4192 60.3503 38.5591 62.3303 40.0491V40.0392Z" fill="#FFDA22"/>
<path d="M37.9401 2.85931C37.2701 3.65931 38.51 3.29932 38.91 3.61932C39.4 4.00932 39.56 4.55932 39.8 5.08932C40.16 5.86932 40.7001 7.70932 41.5601 7.79932C41.0901 6.86932 39.5001 1.15931 37.9401 2.85931Z" fill="#FFDA22"/>
<path d="M26.6604 7.35916C28.4604 7.32916 28.8404 4.85916 28.3204 3.50916L28.1904 3.38916C27.4604 4.57916 26.6704 5.98916 26.6604 7.35916Z" fill="#FFDA22"/>
<path d="M31.4008 7.08921C31.3808 7.03921 31.3608 6.98921 31.3408 6.93921V7.05921C31.3408 7.05921 31.3808 7.07921 31.4008 7.08921Z" fill="#FFDA22"/>
<path d="M31.9307 15.8194C33.0207 14.7494 32.9907 15.9294 34.0507 16.0394C34.2307 15.3494 34.5907 14.6794 34.2707 13.9694C33.8307 13.8194 33.3308 13.8394 32.9408 13.9594C32.3408 12.2094 33.5307 7.93936 31.3907 7.08936C32.9907 10.6794 30.8307 14.8694 30.8807 18.5494C30.9707 17.7194 31.3007 16.4294 31.9207 15.8194H31.9307Z" fill="#FFDA22"/>
<path d="M44.0401 19.8694C42.2101 21.6994 47.3001 25.0294 48.5801 25.6294L48.4501 25.5094C47.7901 24.7794 46.9201 23.9694 46.3401 22.9094C45.7501 21.8394 45.0601 20.5994 44.0301 19.8594L44.0401 19.8694Z" fill="#FFDA22"/>
<path d="M31.1204 3.44929C30.6904 2.88929 29.8904 2.24929 29.2504 2.01929C27.7604 3.40929 30.0404 3.82929 31.1204 3.44929Z" fill="#FFDA22"/>
<path d="M24.4503 59.7493C24.9903 58.8193 23.9403 55.5993 23.0703 57.5993C22.4803 56.4993 22.8403 54.2593 22.7003 53.0093C22.6303 52.3893 22.4503 51.5892 21.9203 51.2292C21.3203 50.8092 20.5603 51.2293 20.0203 50.7393C20.2003 51.9993 21.6503 51.3893 22.0903 52.5293C22.4903 53.5693 22.2903 55.3693 22.2503 56.4893C22.2103 57.4893 22.0003 63.3092 23.3903 63.3392C23.5203 62.3092 22.7403 59.3893 23.4403 58.6893C23.8603 58.9793 24.0103 59.5093 24.4503 59.7493Z" fill="#FC7815"/>
<path d="M48.6099 58.7291C49.8499 58.2891 48.8799 54.5091 48.4299 53.8491C48.4499 54.4091 47.4399 59.1391 48.6099 58.7291Z" fill="#FC7815"/>
<path d="M53.0808 61.1492C53.6508 61.1692 53.7208 59.2292 53.6608 58.1992C53.6008 57.3092 53.6308 56.3792 52.8508 55.1392C53.0308 56.1092 52.9208 57.5692 52.8808 58.5792C52.8508 59.3692 52.6108 61.1892 53.0808 61.1492Z" fill="#FC7815"/>
<path d="M72.9403 55.3693C74.0203 54.2593 73.1203 49.9893 74.7703 49.7393C74.9803 50.1093 75.0403 50.6893 75.2303 51.0693C75.4003 50.6393 75.2303 48.9193 74.9903 48.5193C74.7703 49.0693 74.3303 49.8093 74.2403 48.7693C74.1803 48.0793 74.3103 46.8793 73.8603 46.2893C74.0103 47.9293 73.5103 49.6193 73.2003 50.9293C72.9703 51.9193 72.1703 54.5193 72.9403 55.3693Z" fill="#FC7815"/>
<path d="M34.2504 33.5892L34.6004 33.9392C35.3004 34.0192 36.9104 34.3693 37.8804 34.7893C37.2304 36.0393 34.7004 36.4692 33.5304 37.0592C34.1804 37.6092 35.5804 37.4992 36.4804 37.6092C36.4904 37.8292 36.4904 38.0292 36.4804 38.2492C35.4104 38.7692 33.6304 39.2793 32.8804 39.9893C33.8004 40.1093 34.7104 40.2393 35.6204 40.3993C35.3604 41.7493 32.4204 42.3792 31.1904 42.5892C32.4504 42.8192 36.2004 43.2592 36.2004 44.8592C37.1104 44.1192 38.3804 43.1992 39.5804 43.1392C38.1304 43.0892 36.7604 42.9592 35.3204 42.9392C35.7604 41.9392 37.3804 41.2592 38.3604 40.5792C37.9104 40.6392 37.3404 40.4792 36.8804 40.5192C37.7304 38.5592 43.3804 39.2593 44.9904 37.9893C44.2004 37.6093 43.2204 37.3992 42.6004 36.9492C43.9504 36.2492 45.4904 36.3293 46.8604 35.8693C45.9404 35.5393 44.9604 35.5792 44.0204 35.3092C45.6404 34.6592 47.6104 34.6692 49.3704 34.6592C45.1804 33.1992 39.0504 33.6193 34.2604 33.6193L34.2504 33.5892Z" fill="#931919"/>
<path d="M43.4507 47.4492C43.4507 47.4492 43.4307 47.4492 43.4307 47.4592H43.4507C43.5807 47.4592 43.5807 47.4492 43.4507 47.4392V47.4492Z" fill="#931919"/>
<path d="M45.5 44.4692C44.08 43.4892 41.13 43.4792 39.25 43.4692C39.3 43.5692 39.68 44.5192 39.91 44.9992C38.81 44.9692 37.38 45.6692 36.68 45.7192C35.23 46.5392 33.62 46.1292 32.19 46.8792C33.47 47.2792 34.74 47.6592 35.93 48.3192C34.97 48.3492 34.1 48.4492 33.28 48.8292C33.99 49.2392 34.82 49.1292 35.46 49.4792C34.3 49.8092 32.25 50.0992 31.5 50.9192C34.37 52.0092 39.26 50.3792 42.39 50.3592C41.55 49.8692 40 49.5092 39.53 48.4892C40.79 48.0492 42.21 48.1492 43.44 47.4592C42.28 47.1692 40.73 47.0392 39.78 46.2392C41.02 45.0092 43.88 45.1492 45.51 44.4692H45.5Z" fill="#931919"/>
<path d="M8.23988 40.8594C8.11988 40.9294 7.98988 40.9994 7.87988 41.0694C7.99988 41.0094 8.11988 40.9294 8.23988 40.8594Z" fill="#510A07"/>
<path d="M18.7804 31.3593C17.6004 30.8693 16.0004 30.7293 14.7304 30.3893C13.3004 29.9993 11.9004 29.5292 10.4304 29.4492C10.9004 28.7892 11.9204 28.3193 12.6104 28.0293C11.5804 27.5893 10.2404 28.0892 9.17042 28.0892C9.62042 27.4892 10.3604 27.0693 11.0104 26.7393C9.85042 27.1193 8.08042 27.1993 7.27042 28.2193L7.69042 27.7993C7.51042 27.8793 7.22041 28.1093 7.00041 28.2193C7.17041 28.2393 7.33042 28.3193 7.55042 28.3193C7.04042 28.6493 6.49042 28.8293 6.05042 29.2493C7.30042 29.3193 8.66041 28.9393 9.86041 29.2393C9.03041 29.6393 7.80041 29.7493 7.07041 30.3993C9.31041 30.6893 11.6704 30.9593 13.9504 30.9393C11.9504 31.7293 9.46041 31.8993 7.39041 32.6493C7.49041 32.7593 7.53042 32.9293 7.65042 33.0493C6.51042 33.4093 2.53042 34.1293 2.31042 35.5693C2.16042 36.5093 6.83041 37.3693 7.68041 37.0592C6.64041 38.1692 5.58042 39.1092 4.97042 40.5892C6.24042 40.7692 7.72042 40.2993 8.94042 40.1093C8.79042 40.4293 8.54042 40.6793 8.24042 40.8793C9.05042 40.4193 10.0804 39.9493 10.6204 39.2693C9.24042 39.1793 7.91041 39.4893 6.57041 39.5693C7.18041 39.1893 7.61042 38.6793 8.24042 38.2993C8.78042 37.9793 9.49041 37.7693 9.89041 37.2693C7.55041 36.6193 5.31042 35.6393 2.80042 35.6793C4.97042 34.0893 8.36042 33.8393 10.9204 33.3593C10.0804 33.2793 9.27042 33.1093 8.44042 33.0193C9.55042 32.5393 11.0904 32.4093 12.3304 32.1193C14.4304 31.6293 16.6604 31.4093 18.7904 31.3693L18.7804 31.3593Z" fill="#510A07"/>
<path d="M74.1304 39.1092C75.5104 38.8092 77.1104 37.7292 77.9904 36.6292C76.4104 35.7492 74.9404 35.6893 73.2904 35.3193C74.6104 34.6993 76.2604 34.3692 77.3904 33.2392C76.4604 32.5092 75.0504 32.5593 73.9004 32.3993C74.3904 32.1193 75.5404 31.6492 75.8704 30.9192C74.7204 30.9492 73.6104 30.7792 72.4804 30.8292C73.0304 30.4392 73.7104 30.0892 74.1404 29.5792C74.4404 29.5492 74.2204 29.6692 74.2204 29.6692L74.5304 29.5693C73.4704 29.0493 69.3704 31.2592 68.3704 32.0892C69.9204 32.0892 71.7304 32.1193 73.2304 31.7893C72.3804 32.1893 70.1904 33.0693 69.9304 33.9593C71.3204 33.4293 72.8504 33.1692 74.3104 33.0492C73.1904 34.1392 71.5204 34.8492 70.5504 36.1592C72.5404 35.8692 74.6904 36.2992 76.5804 36.8092C75.7204 37.2892 74.5504 38.2393 74.1104 39.0992L74.1304 39.1092Z" fill="#931919"/>
<path d="M19.7905 47.4293C16.0405 47.1493 13.7805 44.8393 13.3305 45.3893C12.8905 45.9193 18.2005 48.3892 20.1205 48.2292C21.4505 48.1192 21.9805 47.4092 23.5205 47.6992C24.1905 47.8292 26.2405 48.8592 26.2405 47.0892C26.2405 45.1792 21.1005 47.5192 19.7905 47.4193V47.4293Z" fill="#FFDA22"/>
<g filter="url(#filter0_d_309_79767)">
<circle cx="40.5" cy="82.5" r="27.5" fill="#FFE99E"/>
</g>
<path d="M40.1953 94.5273C34.834 94.5273 31.1572 92.0078 31.1572 88.2725C31.1572 85.416 33.3252 83.4238 36.2988 82.9111V82.8086C33.7207 82.2373 31.9189 80.4355 31.9189 78.0918C31.9189 74.752 35.3027 72.335 40.1953 72.335C45.1025 72.335 48.4717 74.752 48.4717 78.1064C48.4717 80.4062 46.6846 82.2373 44.1211 82.8086V82.9111C47.0947 83.4238 49.248 85.4307 49.248 88.2871C49.248 92.0078 45.542 94.5273 40.1953 94.5273ZM40.1953 81.2852C41.9385 81.2852 43.1836 80.2012 43.1836 78.6484C43.1836 77.0811 41.9238 76.0117 40.1953 76.0117C38.4814 76.0117 37.2363 77.0811 37.2363 78.6484C37.2363 80.2012 38.4668 81.2852 40.1953 81.2852ZM40.1953 90.8359C42.2168 90.8359 43.6084 89.5908 43.6084 87.877C43.6084 86.1924 42.2168 84.9766 40.1953 84.9766C38.1885 84.9766 36.7969 86.1924 36.7969 87.877C36.7969 89.5908 38.1885 90.8359 40.1953 90.8359Z" fill="black"/>
<defs>
<filter id="filter0_d_309_79767" x="0" y="42" width="81" height="81" filterUnits="userSpaceOnUse" color-interpolation-filters="sRGB">
<feFlood flood-opacity="0" result="BackgroundImageFix"/>
<feColorMatrix in="SourceAlpha" type="matrix" values="0 0 0 0 0 0 0 0 0 0 0 0 0 0 0 0 0 0 127 0" result="hardAlpha"/>
<feMorphology radius="3" operator="dilate" in="SourceAlpha" result="effect1_dropShadow_309_79767"/>
<feOffset/>
<feGaussianBlur stdDeviation="5"/>
<feComposite in2="hardAlpha" operator="out"/>
<feColorMatrix type="matrix" values="0 0 0 0 0 0 0 0 0 0 0 0 0 0 0 0 0 0 0.25 0"/>
<feBlend mode="normal" in2="BackgroundImageFix" result="effect1_dropShadow_309_79767"/>
<feBlend mode="normal" in="SourceGraphic" in2="effect1_dropShadow_309_79767" result="shape"/>
</filter>
<linearGradient id="paint0_linear_309_79767" x1="43.9807" y1="87.7193" x2="54.8907" y2="62.0093" gradientUnits="userSpaceOnUse">
<stop stop-color="#84210F"/>
<stop offset="1" stop-color="#4F0E02"/>
</linearGradient>
<linearGradient id="paint1_linear_309_79767" x1="63.7904" y1="65.7893" x2="63.8004" y2="65.7593" gradientUnits="userSpaceOnUse">
<stop stop-color="#84210F"/>
<stop offset="1" stop-color="#4F0E02"/>
</linearGradient>
<linearGradient id="paint2_linear_309_79767" x1="20.0303" y1="66.2193" x2="20.2503" y2="66.2193" gradientUnits="userSpaceOnUse">
<stop stop-color="#84210F"/>
<stop offset="1" stop-color="#4F0E02"/>
</linearGradient>
<linearGradient id="paint3_linear_309_79767" x1="20.3008" y1="74.1792" x2="34.1208" y2="74.1792" gradientUnits="userSpaceOnUse">
<stop stop-color="#84210F"/>
<stop offset="1" stop-color="#4F0E02"/>
</linearGradient>
<linearGradient id="paint4_linear_309_79767" x1="20.25" y1="65.9694" x2="20.3" y2="65.9694" gradientUnits="userSpaceOnUse">
<stop stop-color="#84210F"/>
<stop offset="1" stop-color="#4F0E02"/>
</linearGradient>
<linearGradient id="paint5_linear_309_79767" x1="18.6807" y1="60.2294" x2="56.8007" y2="60.2294" gradientUnits="userSpaceOnUse">
<stop stop-color="#84210F"/>
<stop offset="1" stop-color="#4F0E02"/>
</linearGradient>
<linearGradient id="paint6_linear_309_79767" x1="23.54" y1="57.4492" x2="33.98" y2="59.2892" gradientUnits="userSpaceOnUse">
<stop stop-color="#84210F"/>
<stop offset="1" stop-color="#4F0E02"/>
</linearGradient>
<linearGradient id="paint7_linear_309_79767" x1="2.17992" y1="53.4992" x2="25.9499" y2="53.4992" gradientUnits="userSpaceOnUse">
<stop stop-color="#84210F"/>
<stop offset="1" stop-color="#4F0E02"/>
</linearGradient>
<linearGradient id="paint8_linear_309_79767" x1="7.82001" y1="56.6193" x2="18.53" y2="56.6193" gradientUnits="userSpaceOnUse">
<stop stop-color="#843629"/>
<stop offset="1" stop-color="#93544E"/>
</linearGradient>
<linearGradient id="paint9_linear_309_79767" x1="57.9004" y1="52.4592" x2="78.7504" y2="52.4592" gradientUnits="userSpaceOnUse">
<stop stop-color="#84210F"/>
<stop offset="1" stop-color="#4F0E02"/>
</linearGradient>
<linearGradient id="paint10_linear_309_79767" x1="26.9103" y1="53.6893" x2="35.1703" y2="53.6893" gradientUnits="userSpaceOnUse">
<stop stop-color="#843629"/>
<stop offset="1" stop-color="#93544E"/>
</linearGradient>
<linearGradient id="paint11_linear_309_79767" x1="26.7905" y1="52.0092" x2="29.5705" y2="52.0092" gradientUnits="userSpaceOnUse">
<stop stop-color="#843629"/>
<stop offset="1" stop-color="#93544E"/>
</linearGradient>
<linearGradient id="paint12_linear_309_79767" x1="27.0703" y1="60.7893" x2="36.8303" y2="60.7893" gradientUnits="userSpaceOnUse">
<stop stop-color="#84210F"/>
<stop offset="1" stop-color="#4F0E02"/>
</linearGradient>
<linearGradient id="paint13_linear_309_79767" x1="54.4404" y1="59.1892" x2="67.9304" y2="59.1892" gradientUnits="userSpaceOnUse">
<stop stop-color="#84210F"/>
<stop offset="1" stop-color="#4F0E02"/>
</linearGradient>
<linearGradient id="paint14_linear_309_79767" x1="68.1804" y1="54.5293" x2="61.7904" y2="58.0693" gradientUnits="userSpaceOnUse">
<stop stop-color="#843629"/>
<stop offset="1" stop-color="#93544E"/>
</linearGradient>
<linearGradient id="paint15_linear_309_79767" x1="37.5898" y1="56.4391" x2="44.5898" y2="56.4391" gradientUnits="userSpaceOnUse">
<stop stop-color="#843629"/>
<stop offset="1" stop-color="#93544E"/>
</linearGradient>
<linearGradient id="paint16_linear_309_79767" x1="28.1204" y1="65.6692" x2="36.3704" y2="65.6692" gradientUnits="userSpaceOnUse">
<stop stop-color="#843629"/>
<stop offset="1" stop-color="#93544E"/>
</linearGradient>
</defs>
</svg>
