<svg width="81" height="139" viewBox="0 0 81 139" fill="none" xmlns="http://www.w3.org/2000/svg">
<path d="M38.3703 74.4999C37.3803 74.6799 34.9503 74.9299 34.3603 75.7599C33.8103 76.5299 34.0703 79.0099 34.0703 79.9799C34.0703 82.8199 34.0003 85.5899 34.5003 88.3399C34.8003 90.0099 34.5303 90.6499 35.8003 91.4999C36.5603 92.0099 37.3803 92.6199 37.9503 93.3099C38.3903 93.5799 41.2403 88.3199 41.8903 87.4599C42.7203 86.3399 43.4703 85.8899 43.4203 84.4199C43.3703 83.0799 43.1003 81.5599 42.9103 80.2099C42.6903 78.6799 42.0603 76.6599 41.2503 75.3399C40.5203 74.1299 39.7803 74.2499 38.3703 74.4999Z" fill="url(#paint0_linear_303_70684)"/>
<path d="M56.4703 72.4098C54.5503 72.1498 52.2403 71.4298 50.3803 71.9698C46.4903 73.0998 42.9003 75.8398 39.1403 77.2298C38.7903 80.0698 41.9503 82.6398 41.5303 85.2798C41.0603 88.2198 39.0603 90.6198 37.9503 93.3098C39.0003 92.9498 40.2403 92.6198 41.3103 92.3898C42.5603 92.1198 43.5003 92.2798 44.4203 91.4598C45.2503 90.7098 45.9603 89.5498 46.7303 88.7098C48.2303 87.0798 49.6603 85.4298 51.2403 83.8398C52.9903 82.0898 54.6303 80.1898 56.1903 78.2498C57.4603 76.6698 59.5103 74.2298 61.3403 73.4598L61.2003 73.0298C61.3903 73.0498 61.5503 73.0298 61.7203 73.0598C60.0903 72.5898 58.2203 72.6598 56.4803 72.4198L56.4703 72.4098Z" fill="url(#paint1_linear_303_70684)"/>
<path d="M61.7101 73.0498C61.7701 73.0698 61.8401 73.0798 61.9001 73.0998C61.8301 73.0698 61.7701 73.0598 61.7101 73.0498Z" fill="url(#paint2_linear_303_70684)"/>
<path d="M56.4703 72.4098C54.5503 72.1498 52.2403 71.4298 50.3803 71.9698C46.4903 73.0998 42.9003 75.8398 39.1403 77.2298C38.9203 79.0198 40.0904 80.6998 40.8804 82.3598C41.1504 82.1098 41.4404 81.8798 41.7404 81.6698C42.2604 81.2998 42.8804 80.8998 43.5204 80.6998C43.9704 80.4598 44.4403 80.2498 44.9703 80.0998C45.7703 79.8598 46.4303 80.7798 46.0303 81.4798C45.3003 82.7498 44.2503 83.8798 43.6103 85.1998C42.7403 86.9898 43.0803 88.4598 43.4703 90.2998C43.5903 90.8498 43.6803 91.3798 43.7503 91.9098C43.9803 91.8098 44.2003 91.6698 44.4303 91.4698C45.2603 90.7198 45.9704 89.5598 46.7404 88.7198C48.2404 87.0898 49.6703 85.4398 51.2503 83.8498C53.0003 82.0998 54.6403 80.1998 56.2003 78.2598C57.4703 76.6798 59.5203 74.2398 61.3503 73.4698L61.2104 73.0398C61.4004 73.0598 61.5603 73.0398 61.7303 73.0698C60.1003 72.5998 58.2304 72.6698 56.4904 72.4298L56.4703 72.4098Z" fill="#742204"/>
<path d="M56.4699 72.4098C54.5499 72.1498 52.2399 71.4298 50.3799 71.9698C48.3599 72.5598 46.4199 73.5798 44.4999 74.6198C46.1399 76.7998 48.0199 79.6798 47.0899 82.0698C46.4099 83.7998 45.1399 85.0098 44.2399 86.5898C44.1699 86.7198 44.0999 86.8498 44.0499 86.9798C44.3999 88.3698 44.6199 89.7698 44.6799 91.1798C45.3999 90.4398 46.0399 89.4498 46.7299 88.6998C48.2299 87.0698 49.6599 85.4198 51.2399 83.8298C52.9899 82.0798 54.6299 80.1798 56.1899 78.2398C57.4599 76.6598 59.5099 74.2198 61.3399 73.4498L61.1999 73.0198C61.3899 73.0398 61.5499 73.0198 61.7199 73.0498C60.0899 72.5798 58.2199 72.6498 56.4799 72.4098H56.4699Z" fill="#692106"/>
<path opacity="0.32" d="M48.2203 80.3101C48.2203 80.2501 48.2403 80.2 48.2403 80.14C47.1703 78.19 45.9503 76.3301 44.6003 74.5601C44.5703 74.5801 44.5303 74.6001 44.4903 74.6201C46.1303 76.8001 48.0103 79.6801 47.0803 82.0701C46.4003 83.8001 45.1303 85.0101 44.2303 86.5901C44.1603 86.7201 44.0903 86.8501 44.0403 86.9801C44.3903 88.3701 44.6103 89.7701 44.6703 91.1801C44.7303 91.1201 44.7903 91.0401 44.8503 90.9801C44.8303 90.9101 44.8103 90.85 44.8103 90.7701C44.7103 88.6101 44.2603 86.62 45.8903 84.91C47.2503 83.49 48.0303 82.3201 48.2203 80.3101Z" fill="#923714"/>
<path opacity="0.64" d="M38.3703 74.4999C37.3803 74.6799 34.9503 74.9299 34.3603 75.7599C33.8103 76.5299 34.0703 79.0099 34.0703 79.9799C34.0703 82.8199 34.0003 85.5899 34.5003 88.3399C34.8003 89.9899 34.5503 90.6299 35.7603 91.4599C36.9503 87.0999 39.1103 83.1599 43.0003 80.8499C42.9703 80.6299 42.9403 80.4099 42.9103 80.1999C42.6903 78.6699 42.0603 76.6499 41.2503 75.3299C40.5203 74.1199 39.7803 74.2399 38.3703 74.4899V74.4999Z" fill="#742204"/>
<path d="M35.0607 73.91C33.0707 73.05 30.3507 72.33 28.1607 73.16C26.9507 73.62 27.0807 74.36 27.3007 75.76C27.4907 76.92 27.7907 78.05 28.0207 79.22C28.4907 81.65 28.7607 84.23 29.4907 86.58C29.9007 87.9 31.3707 91.62 32.1307 92.36C32.9507 92.29 34.5407 91.56 35.3507 91.16C34.0407 85.61 36.9407 79.24 35.0607 73.91Z" fill="#692106"/>
<path d="M18.3206 73.2499V73.2C18.2906 73.25 18.2806 73.3 18.2706 73.34C18.2906 73.31 18.3006 73.2799 18.3206 73.2499Z" fill="url(#paint3_linear_303_70684)"/>
<path d="M18.2703 73.3398C18.1903 73.4598 18.1203 73.5898 18.0403 73.7198C18.2603 73.5998 18.2403 73.4998 18.2703 73.3398Z" fill="url(#paint4_linear_303_70684)"/>
<path d="M26.2503 74.18C24.7803 72.98 21.8003 70.34 19.7803 70.63C19.3403 71.47 18.8403 72.39 18.3203 73.26L18.4503 73.93C18.5803 75.29 20.9103 78.22 21.8003 79.56C23.0003 81.37 24.1403 83.12 25.1303 85.03C25.8503 86.44 26.4303 88.97 27.5703 90.06C28.4803 90.93 30.9303 92.02 32.1303 92.38C32.0303 90.17 30.7003 87.51 30.1703 85.33C29.6803 83.33 29.2903 81.31 28.5203 79.3C27.8003 77.42 27.7203 75.39 26.2503 74.19V74.18Z" fill="url(#paint5_linear_303_70684)"/>
<path opacity="0.64" d="M26.2503 74.18C24.7803 72.98 21.8003 70.34 19.7803 70.63C19.3403 71.47 18.8403 72.39 18.3203 73.26L18.4503 73.93C18.5303 74.7 19.3003 75.97 20.1203 77.17C24.3303 75.7 27.2703 78.18 29.3103 81.82C29.0803 80.98 28.8403 80.14 28.5203 79.3C27.8003 77.42 27.7203 75.39 26.2503 74.19V74.18Z" fill="#742204"/>
<path d="M56.4703 72.4098C54.5503 72.1498 52.2403 71.4298 50.3803 71.9698C48.3603 72.5598 46.4203 73.5798 44.5003 74.6198C46.1403 76.7998 48.0203 79.6798 47.0903 82.0698C46.9903 82.3398 46.8603 82.5898 46.7403 82.8298C49.3603 80.8998 52.4203 79.7098 55.6103 78.9498C55.8003 78.7098 56.0003 78.4798 56.1903 78.2498C57.4603 76.6698 59.5103 74.2298 61.3403 73.4598L61.2003 73.0298C61.3903 73.0498 61.5503 73.0298 61.7203 73.0598C60.0903 72.5898 58.2203 72.6598 56.4803 72.4198L56.4703 72.4098Z" fill="#601D05"/>
<path d="M41.2703 51.3599C26.1003 45.3999 17.0103 56.8499 16.7003 57.5899C16.8903 61.6799 18.0803 60.9999 18.5203 62.7699C19.1303 65.1899 19.1203 75.8299 19.1203 75.8299L23.6003 71.3499C24.3603 72.9499 25.5603 74.8099 26.6103 75.7499C27.2803 75.4699 27.8103 75.1299 27.8103 75.1299C28.1803 76.1699 29.0303 77.7499 29.5603 79.0299C29.8803 79.8199 30.0503 80.6999 30.3003 81.4799C30.8203 81.7799 31.3803 81.9999 31.8503 82.3799C31.8903 82.4099 31.9303 82.4399 31.9703 82.4699C32.1103 82.5499 32.2003 82.6299 32.2003 82.6299C32.5103 83.2799 33.0703 83.9099 33.6303 84.4499C34.4303 84.7499 35.2203 85.1199 36.0003 85.4199C36.4703 85.1799 37.0103 84.9999 37.3203 84.6099C37.6703 84.1699 37.6303 82.8199 37.7803 82.2699C38.1403 81.0199 38.4503 79.4099 39.4703 78.5099C41.8103 79.1499 42.1003 80.9999 43.7503 78.1999C44.5703 76.8099 45.4403 75.3799 46.6403 74.5499C47.7703 73.7599 49.3903 74.7899 50.2303 73.5599C50.6003 73.0099 51.0703 71.6699 51.0703 71.6699C51.2603 71.7099 51.4503 71.7899 51.6403 71.8799C52.5103 69.1299 53.3003 66.3199 53.8803 63.4899C54.1703 62.0699 54.4803 60.6299 54.5703 59.1699C54.6403 58.0199 54.4903 56.8799 54.4603 55.7299C54.4403 54.8499 54.4503 53.5699 54.8003 52.5499C49.9203 52.4199 43.7103 52.3299 41.2503 51.3599H41.2703Z" fill="url(#paint6_linear_303_70684)"/>
<path d="M50.2903 74.2198C50.6203 74.2998 51.2203 75.2398 51.2203 75.2398C51.7503 75.8998 52.7803 75.8898 53.1703 75.8398C54.2103 75.7098 58.9803 60.6098 60.8703 55.0898C59.9303 55.3198 58.8903 55.2598 57.9703 55.3898C56.0703 55.6598 54.6603 57.4598 53.4303 58.7998C53.4003 58.8298 53.3703 58.8498 53.3503 58.8798C53.6003 59.2098 53.8803 59.4498 53.9003 59.9598C53.9803 61.8698 53.1103 64.2398 52.6103 66.0598C52.0603 68.0698 50.2903 74.2098 50.2903 74.2098V74.2198Z" fill="#782706"/>
<path d="M50.2903 74.2198C50.4903 74.2698 51.0503 73.6399 51.3403 72.8799C51.9603 70.1499 53.2303 66.0198 54.2403 63.4398C54.6203 62.4499 55.1803 60.7198 55.8203 59.8898C56.5703 58.4798 57.8303 58.3799 59.3103 58.9299C59.3903 58.9199 59.4603 58.9098 59.5403 58.8898C60.0703 57.3998 60.5403 56.0799 60.8703 55.0999C59.9303 55.3299 58.8903 55.2699 57.9703 55.3999C56.0703 55.6699 54.6603 57.4699 53.4303 58.8099C53.4003 58.8399 53.3703 58.8598 53.3503 58.8898C53.6003 59.2198 53.8803 59.4598 53.9003 59.9698C53.9803 61.8798 53.2303 64.2899 52.6103 66.0699C52.0603 67.6299 50.2903 74.2198 50.2903 74.2198Z" fill="#692106"/>
<path d="M39.3507 78.64C39.4107 78.72 39.4607 78.81 39.5007 78.78C41.0707 79.21 41.7107 80.05 42.4607 79.73C42.9207 75.8 43.4407 71.77 41.6707 68.23C40.2807 70.41 39.1207 72.74 39.1007 75.39C39.1007 76.57 39.1807 77.49 39.3507 78.65V78.64Z" fill="#823112"/>
<path d="M28.8899 61.3999C28.7499 60.5399 28.8299 59.6299 28.5999 58.7899C28.2199 57.3599 27.2299 56.1699 26.1599 55.1599C24.9499 54.0199 23.2099 52.8699 21.4599 53.2599C21.3699 53.2799 21.2899 53.2899 21.2099 53.2799C20.8899 53.4999 20.5899 53.7199 20.2999 53.9399C20.7999 55.4699 20.7799 57.1899 20.8199 58.7699C20.8499 60.1599 20.9699 61.5399 21.1299 62.9199C21.9899 65.8699 22.7399 68.8599 23.0299 71.8999L24.9099 76.3999C24.9099 76.9199 26.3199 77.3199 27.2699 77.4199C27.9399 77.1399 30.3299 76.2399 31.0899 75.6399C32.5599 74.4899 31.0199 71.1799 30.5099 69.6199C29.8999 67.7699 29.8999 65.8499 29.4599 63.9799C29.2599 63.1199 29.0199 62.2699 28.8799 61.3899L28.8899 61.3999Z" fill="#923714"/>
<path d="M28.8903 61.3999C28.7503 60.5399 28.8303 59.6299 28.6003 58.7899C28.2203 57.3599 27.2303 56.1699 26.1603 55.1599C25.4403 54.4799 24.5303 53.7999 23.5403 53.4399C23.7703 56.3699 23.7203 58.14 23.8303 61.09C23.8903 62.6 23.9803 65.8199 24.1603 66.8299C24.2403 67.2899 26.3203 75.1099 26.3903 75.5499C26.4703 75.6199 27.2103 77.3799 27.2803 77.4399C27.9503 77.1599 29.0503 76.7199 29.0503 76.7199C29.0903 76.8399 29.2703 74.3799 30.0303 73.7799C31.5003 72.6299 31.0303 71.1999 30.5203 69.6399C29.9103 67.7899 29.9103 65.8699 29.4703 63.9999C29.2703 63.1399 29.0303 62.2899 28.8903 61.4099V61.3999Z" fill="url(#paint7_linear_303_70684)"/>
<path d="M26.39 75.5399C26.47 75.6099 27.21 77.3699 27.28 77.4299C27.95 77.1499 29.05 76.7099 29.05 76.7099C29.09 76.8299 29.27 74.3699 30.03 73.7699C31.5 72.6199 31.03 71.1899 30.52 69.6299C30.23 68.7599 30.08 67.8699 29.96 66.9699C28.81 65.7499 27.6 64.59 26.37 63.45C27.08 64.87 27.74 66.3299 28.01 67.8799C28.35 69.8199 26.84 71.7999 25.88 73.4999C26.16 74.5799 26.37 75.3999 26.39 75.5299V75.5399Z" fill="#802D0D"/>
<path d="M7.18031 65.3999C7.74031 66.0399 8.11032 66.7499 8.58032 67.4399C9.53032 68.8199 10.3003 70.1799 10.9403 71.5899C11.4703 72.7499 11.7503 74.2899 12.6003 75.2999C13.5003 76.3699 17.0903 77.4799 18.3803 77.4099L23.9703 72.0999C23.9303 71.4599 22.5603 67.7199 22.3903 64.1499C22.3903 64.0999 22.3803 64.0499 22.3703 64.0099C21.3903 60.5399 20.4203 57.0399 21.1003 53.4299C21.1003 53.3599 21.1003 53.2999 21.1203 53.2499C17.7903 53.4699 16.2503 53.0399 12.9003 53.4299C11.1103 53.6299 8.51032 48.5299 6.70032 48.6699C5.84032 48.7399 1.20032 43.7599 0.200317 44.1799C1.47032 49.6399 7.57032 61.0199 6.86032 63.4599C6.54032 64.5299 6.38032 64.4599 7.19032 65.3999H7.18031Z" fill="url(#paint8_linear_303_70684)"/>
<path opacity="0.64" d="M7.18034 65.3999C7.74034 66.0399 8.11035 66.7499 8.58035 67.4399C9.53035 68.8199 10.3004 70.1799 10.9404 71.5899C11.4704 72.7499 11.7504 74.2899 12.6004 75.2999C12.7104 75.4299 12.8604 75.5599 13.0504 75.6899C12.5904 73.4199 11.9203 71.2299 10.6503 69.0799C10.2403 68.3899 9.76035 67.2099 9.95035 66.4499C9.71035 66.0699 9.65036 65.7199 9.71036 65.3499C9.06036 65.0699 8.52035 64.6599 7.89035 64.3199C7.42035 64.0699 7.33035 63.4799 7.56035 63.0399C8.77035 60.6199 4.27035 57.2599 5.89035 54.8599C6.38035 54.1299 7.06034 53.7399 7.82034 53.5599C7.27034 52.7499 7.00036 51.7599 6.88036 50.7599C5.34036 49.1899 3.14035 48.0399 1.53035 46.7599C1.28035 46.5599 1.01036 46.3399 0.740356 46.1199C2.68036 51.9799 7.47035 61.2799 6.83035 63.4599C6.51035 64.5299 6.35035 64.4599 7.16035 65.3999H7.18034Z" fill="#742204"/>
<path d="M18.8303 66.1499C19.3803 67.6699 19.8003 69.2499 20.1103 70.8599C20.1103 70.2299 20.1103 69.5999 20.1303 68.9799C20.2603 65.3999 19.6003 61.6399 18.5003 58.2299C17.4803 55.0599 12.8303 54.7099 10.0603 53.8999C8.42033 53.4199 7.21033 52.6799 5.90033 51.8999C6.66033 55.5899 10.2303 55.5299 13.6603 56.7399C14.9903 57.2099 15.9503 59.0199 16.2603 59.7099C15.3603 57.3999 18.3803 63.7199 18.8203 66.1499H18.8303Z" fill="#AD3114"/>
<path opacity="0.36" d="M16.5406 63.5901C15.3706 63.8401 14.3706 64.5401 13.2106 64.8101C12.0706 65.0701 10.9106 65.1601 9.76058 64.8601C8.73058 64.5901 7.71058 64.2701 6.70058 63.9201C6.50058 64.5401 6.51057 64.6201 7.18057 65.4001C7.74057 66.0401 8.11058 66.7501 8.58058 67.4401C9.53058 68.8201 10.3006 70.1801 10.9406 71.5901C11.4706 72.7501 11.7506 74.2901 12.6006 75.3001C13.5006 76.3701 17.0906 77.4801 18.3806 77.4101L20.6706 75.2401C20.2806 74.1001 19.7706 72.0801 19.2606 70.9901C18.6606 69.7101 17.8806 68.5001 17.4006 67.1701C16.9706 66.0001 16.7206 64.8001 16.5406 63.5801V63.5901Z" fill="#742204"/>
<path opacity="0.36" d="M16.6503 64.2699C16.6103 64.0499 16.5703 63.8199 16.5403 63.5999C15.3703 63.8499 14.3703 64.5499 13.2103 64.8199C12.9703 64.8699 12.7403 64.9199 12.5003 64.9499C14.2003 68.7099 16.4503 73.7799 18.3703 77.4299C18.4303 77.3799 18.5003 77.2998 18.5903 77.2198C18.0703 75.0698 17.5303 72.9198 16.7503 70.8598C15.6803 68.0298 15.5003 67.3599 16.5603 64.4299C16.5803 64.3699 16.6103 64.3199 16.6403 64.2699H16.6503Z" fill="#742204"/>
<path d="M16.6306 64.1301C16.6006 63.9501 16.5706 63.7801 16.5406 63.6001C15.3706 63.8501 14.3706 64.5501 13.2106 64.8201C12.0706 65.0801 10.9106 65.1701 9.76058 64.8701C8.73058 64.6001 7.71058 64.2801 6.70058 63.9301C6.50058 64.5501 6.51057 64.6301 7.18057 65.4101C7.24057 65.4801 7.30059 65.5501 7.35059 65.6201C8.62059 66.3701 10.1306 66.4901 11.4506 67.1101C12.8506 67.7601 13.7306 68.9101 14.5106 70.2101C15.7006 72.1701 16.8106 75.1701 18.1606 77.0301C18.1806 77.0301 17.5506 75.2701 17.5706 75.2701C16.3806 73.6801 16.5106 72.4001 15.7206 70.6001C15.2606 69.5601 14.3306 68.1901 14.6406 67.0001C14.9606 65.7901 15.8906 65.1001 16.6206 64.1401L16.6306 64.1301Z" fill="#742204"/>
<path d="M11.9499 63.8798C10.5999 63.5098 9.3399 62.8898 8.0799 62.2598C7.7299 62.0998 7.37989 61.9298 7.03989 61.7498C6.92989 61.6998 6.7799 61.5998 6.6699 61.5498C6.6699 61.5498 5.9599 63.1098 5.8899 63.3398C5.6099 64.2998 6.1799 64.5698 6.9499 65.1598C7.4899 65.2898 8.02989 65.4498 8.56989 65.5998C9.93989 65.9998 11.4199 66.4798 12.8599 66.2398C14.3999 65.9798 15.4499 64.8298 16.5299 63.6098C16.4099 63.5498 13.5699 64.3398 11.9499 63.8898V63.8798Z" fill="url(#paint9_linear_303_70684)"/>
<path d="M10.7303 65.8298C9.40033 65.6398 7.36034 64.9398 6.16034 64.4998C6.35034 64.7098 6.96034 65.1398 6.96034 65.1398C7.50034 65.2698 8.04034 65.4298 8.58034 65.5798C9.95034 65.9798 11.4303 66.4598 12.8703 66.2198C14.4103 65.9598 15.4603 64.8098 16.5403 63.5898C16.5403 63.5898 16.4903 63.5898 16.4303 63.5898C14.9503 65.4098 13.0303 66.1498 10.7203 65.8198L10.7303 65.8298Z" fill="#F6743F"/>
<path d="M62.83 73.2999C63.49 72.5399 65.55 68.3999 65.55 68.3999L67.2101 68.9599C68.8001 68.3499 70.88 65.0799 71.2 63.6999C72.68 57.2999 75.2201 50.9999 76.7701 44.6699C74.5601 43.6999 65.48 46.0599 63.44 46.9999C60.23 48.4899 57.9501 49.8999 58.2701 53.6499C58.5401 56.8499 56.49 73.8999 55.92 75.0599C57.88 74.7499 61.5301 74.3999 62.8401 73.2899L62.83 73.2999Z" fill="url(#paint10_linear_303_70684)"/>
<path d="M69.53 61.8098C70.14 59.7598 70.6 57.6598 71.3 55.6398C72.02 53.5498 72.91 51.5298 73.82 49.5098C73.34 49.7598 72.86 49.9998 72.38 50.2398C72.23 50.3198 72.08 50.3998 71.92 50.4798C71.12 51.7398 70.68 53.3598 70.15 54.7298C69.8 55.9598 69.36 57.1598 68.95 58.3698C68.38 60.0498 68 61.6998 67.77 63.4498C67.53 65.2598 67.29 67.0698 66.88 68.8398L67.21 68.9498C67.58 68.8098 67.99 68.5198 68.38 68.1398C68.38 65.9698 68.91 63.8598 69.53 61.7998V61.8098Z" fill="#AD4922"/>
<path d="M64.0903 62.5599C64.5203 61.7999 64.9603 61.0499 65.4103 60.3099C65.7803 59.3199 66.1803 58.3499 66.7303 57.4399C66.8303 57.1499 66.9203 56.8699 67.0203 56.5799C67.0903 56.3799 67.1703 56.1699 67.2403 55.9599C67.2803 55.2499 67.2403 54.5499 67.6203 53.8899C68.0103 53.1999 68.5103 52.5899 69.1003 52.0499C69.2503 51.9099 69.4103 51.7799 69.5603 51.6399C68.5403 51.9299 67.4603 52.0799 66.5403 52.2399C66.0303 52.4999 65.5403 52.7699 65.0503 53.0499C64.9003 53.1399 64.7603 53.2299 64.6303 53.3199C64.7103 53.4499 64.7603 53.6099 64.7503 53.7999C64.7203 56.7899 64.1303 59.6499 63.3203 62.4599C63.5803 62.4999 63.8303 62.5399 64.0903 62.5699V62.5599Z" fill="#742204"/>
<path d="M65.3706 68.25C65.3706 68.25 65.3506 68.3 65.3406 68.33C65.3406 68.35 65.3306 68.36 65.3206 68.37C65.2906 68.45 65.2606 68.53 65.2306 68.62C65.4206 68.49 65.5506 68.41 65.5506 68.41L67.2106 68.97C67.2106 68.97 67.3006 68.93 67.3506 68.91C68.3506 64.91 69.1006 60.83 70.2706 56.88C71.1906 53.77 73.0806 51.62 75.3806 49.42C75.4106 49.39 75.4406 49.37 75.4706 49.35C75.9406 47.8 76.3806 46.24 76.7606 44.68C75.4306 44.09 71.5906 44.72 68.3006 45.52C68.5706 46.18 68.9106 46.81 69.1906 47.48C69.5606 48.34 69.7706 49.22 69.9206 50.15C70.2406 52.16 69.9206 54.09 69.3706 56.03C68.1906 60.15 66.8606 64.24 65.3706 68.26V68.25Z" fill="#8A310F"/>
<path opacity="0.64" d="M67.3503 68.8999C67.8603 66.8299 68.3103 64.7499 68.7903 62.6699C68.9103 60.3499 69.6803 58.0098 70.4303 55.8598C70.8603 54.6298 71.1603 53.1399 71.9003 52.0499C72.4603 51.2299 73.1503 50.7099 74.0003 50.4499C74.2803 50.2699 74.5503 50.0899 74.8403 49.9299C75.0203 49.7599 75.2003 49.5899 75.3803 49.4099C75.4103 49.3799 75.4403 49.3599 75.4703 49.3399C75.7003 48.5899 75.9203 47.8499 76.1203 47.0999C75.8703 47.2699 75.6103 47.4298 75.3403 47.5798C74.3103 48.8398 72.9803 49.7499 71.4603 50.5999C71.4303 50.6199 71.4003 50.6298 71.3703 50.6398C71.2903 52.0398 70.9503 53.3299 70.4303 54.6299C69.8503 56.0799 69.2203 57.4798 68.9603 59.0298C68.7203 60.4398 68.4303 61.8199 68.1703 63.2299C67.8403 65.0499 67.7203 67.2598 66.4103 68.6898L67.2103 68.9599C67.2103 68.9599 67.3003 68.9199 67.3503 68.8999Z" fill="#742204"/>
<path opacity="0.64" d="M26.1707 55.1599C24.9607 54.0199 23.2207 52.8699 21.4707 53.2599C21.3807 53.2799 21.3007 53.2899 21.2207 53.2799C20.9007 53.4999 20.6007 53.7199 20.3107 53.9399C20.6207 54.8999 20.7307 55.9399 20.7807 56.9699C22.5007 56.8199 23.7807 57.6299 24.5207 59.3399C24.8807 60.1699 25.0807 61.0699 25.4907 61.8699C25.5907 62.0699 25.6907 62.2699 25.7907 62.4799C26.7807 61.9599 27.8107 61.5699 28.8507 61.1999C28.7507 60.3999 28.8007 59.5599 28.5907 58.7799C28.2107 57.3499 27.2207 56.1599 26.1507 55.1499L26.1707 55.1599Z" fill="#742204"/>
<path d="M22.1903 63.34C21.4403 60.6 21.7103 57.78 21.1503 55.02C21.0603 54.56 19.4303 55.02 19.2603 54.81C16.5203 56.72 16.8303 57.3 16.7003 57.59C16.8903 61.68 18.0803 61 18.5203 62.77C19.1303 65.19 20.6803 75.25 20.6803 75.25L24.9303 76.41C24.9603 76.25 23.3203 68.7 23.3803 67.57C23.0603 66.14 22.5803 64.74 22.2003 63.34H22.1903Z" fill="#823112"/>
<path opacity="0.57" d="M21.1906 75.3901L24.9206 76.4101C24.9506 76.2501 23.3106 68.7001 23.3706 67.5701C23.0506 66.1401 22.5706 64.7401 22.1906 63.3401C21.4406 60.6001 21.7106 57.7801 21.1506 55.0201C21.0806 54.6501 20.0306 54.8701 19.5206 54.8701C19.8106 55.8701 20.4606 56.7301 20.6906 57.7501C20.9906 59.0601 21.0506 60.4001 21.2906 61.7201C21.5306 63.0401 21.9906 64.3201 22.1506 65.6401C22.3006 66.9101 22.2106 68.2201 21.9906 69.4701C21.6906 71.1801 21.8306 73.8001 21.1906 75.3901Z" fill="#78280A"/>
<path opacity="0.64" d="M19.2603 54.8101C16.5203 56.7201 16.8303 57.3001 16.7003 57.5901C16.7103 57.8401 16.7303 58.0701 16.7503 58.2901C17.8603 57.5201 19.3303 56.98 20.3203 58.25C21.2303 59.42 21.2803 61.19 21.6203 62.58C21.7803 63.21 21.9403 63.8301 22.1003 64.4601C22.5703 65.6601 23.0103 66.8501 23.3703 68.0601C23.3703 67.8901 23.3703 67.72 23.3703 67.58C23.0503 66.15 22.5703 64.7501 22.1903 63.3501C21.4403 60.6101 21.7103 57.79 21.1503 55.03C21.0603 54.57 19.4303 55.0301 19.2603 54.8201V54.8101Z" fill="#742204"/>
<path d="M57.6606 55.2499C54.5906 68.4699 52.0607 72.1299 52.0607 72.1299V74.2299C52.5807 74.8899 53.0407 75.1299 53.3107 75.4699C53.9507 76.3099 58.9907 60.6199 60.8707 55.0999C59.9307 55.3299 57.8706 54.3499 57.6606 55.2499Z" fill="#822B08"/>
<path d="M31.3903 58.8498C30.9303 58.9698 29.9103 59.1298 29.7903 59.6898C29.6703 60.2298 29.8403 60.7698 30.0303 61.2798C30.6203 62.8398 31.3503 64.3698 32.2903 65.7498C32.7903 66.4798 33.5303 67.2398 34.0803 68.0698C34.2403 68.0898 34.4103 68.1798 34.5503 68.3398C34.8303 68.6498 35.0503 68.9798 35.2303 69.3298C36.2703 70.3598 36.4903 71.8198 36.7603 73.2198C37.8003 72.6698 38.0403 71.3698 38.1603 70.1898C38.3003 68.7798 38.5203 67.3798 38.6303 65.9698C38.8203 63.5298 39.1403 59.3498 36.0203 58.6398C34.5103 58.2998 32.8803 58.4298 31.3903 58.8298V58.8498Z" fill="#822B08"/>
<path d="M36.3003 59.7499C35.5203 59.2299 34.6403 58.8999 33.6403 58.8799C32.6903 58.8599 31.3603 58.9699 30.5503 59.5299C29.8203 60.0399 30.7903 62.0299 30.9503 62.7899C31.0303 63.1599 31.1003 63.5299 31.1803 63.9099C31.5103 64.5499 31.8803 65.1799 32.2803 65.7699C32.7803 66.4999 33.5203 67.2599 34.0703 68.0899C34.2303 68.1099 34.4003 68.1999 34.5403 68.3599C34.7103 68.5499 34.8603 68.7499 34.9903 68.9599C34.9103 68.4299 35.0903 67.0999 34.9703 66.5699C34.6303 65.0399 33.7103 64.3499 33.5503 62.7799C33.3303 60.6799 34.6603 59.8799 36.2803 59.7499H36.3003Z" fill="#742204"/>
<path d="M42.5603 75.78C42.8703 75.34 43.1004 74.82 43.2804 74.39C43.7204 73.39 44.0504 72.36 44.3604 71.31C45.2204 68.36 46.4404 65.47 47.0504 62.45C47.1704 61.86 48.1703 58.6 48.0903 57.57C47.8803 57.57 47.6704 57.55 47.4204 57.5C47.4004 57.5 47.3804 57.49 47.3604 57.48C46.4304 57.96 45.6203 58.65 44.7903 59.3C44.8403 59.4 44.8804 59.51 44.8904 59.62C45.3304 65.13 42.3503 70.32 42.5703 75.76L42.5603 75.78Z" fill="#802D0D"/>
<path d="M42.6203 74.64C42.9003 73.13 43.3503 71.71 43.7803 70.24C44.6403 67.24 45.2003 64.08 45.5103 60.98C45.5103 60.94 45.5103 60.91 45.5303 60.88C45.5203 60.67 45.5903 60.45 45.7903 60.26C46.4403 59.63 47.1803 59.08 47.9903 58.68C48.0703 58.22 48.1203 57.83 48.1003 57.58C47.8903 57.58 47.6803 57.56 47.4303 57.51C47.4103 57.51 47.3903 57.5 47.3703 57.49C46.4403 57.97 45.6303 58.66 44.8003 59.31C44.8503 59.41 44.8903 59.52 44.9003 59.63C45.3203 64.88 42.6403 69.84 42.5703 75.02C42.5903 74.9 42.6103 74.77 42.6403 74.64H42.6203Z" fill="#78280A"/>
<path d="M44.2208 76.2101C43.5908 77.4301 42.9208 78.6301 42.1808 79.7901C42.6408 79.7601 43.0908 79.3601 43.7808 78.1901C44.6008 76.8001 46.6008 76.4001 46.6008 76.4001C48.2908 75.9801 48.7208 77.3401 49.5508 76.1101C49.8808 75.6201 50.3008 74.1701 50.4908 73.5701C50.4308 73.6101 51.4108 70.5001 51.3408 70.5501C50.0208 71.4501 47.2408 73.7301 50.1508 65.8601C50.1708 65.8101 44.7808 75.3301 44.2308 76.2001L44.2208 76.2101Z" fill="#802D0D"/>
<path d="M46.16 70.1398C47.2 69.4298 50.24 61.5598 52.45 58.9098C51.63 58.7098 50.81 58.4498 50.07 58.2598C48.1 63.2998 45.33 70.6998 46.16 70.1398Z" fill="#802D0D"/>
<path d="M27.6307 57.1199C26.9007 56.9799 25.6807 58.0599 25.1307 58.2399C25.1007 59.4999 24.5607 61.2899 24.9807 62.5399C25.2907 63.4599 26.5907 64.7899 27.2707 65.5399C27.9307 66.2699 29.6007 67.6699 30.5407 67.8299C31.9407 68.0699 33.3007 67.4799 34.6307 67.1499C34.0607 65.9299 33.1607 64.8899 32.4407 63.7099C31.7907 62.6499 31.6907 60.7499 31.9807 59.4999C30.6807 59.2799 28.9507 57.3699 27.6407 57.1199H27.6307Z" fill="#AD4922"/>
<path d="M27.48 57.1099C26.74 57.1099 25.94 57.9299 25.42 58.0999C25.39 59.3599 24.74 61.9899 24.98 62.5399C25.18 62.9999 25.64 63.4999 26.05 64.0399C28.4 64.7599 30.73 64.9199 33.19 64.8399C33.03 64.6099 32.87 64.3799 32.72 64.1499C31.63 64.0699 30.55 63.8699 29.48 63.6599C28.49 63.4599 27.34 63.3699 26.58 62.6099C25.1 61.1099 27.04 58.7599 27.44 57.2299C27.45 57.1899 27.47 57.1499 27.48 57.1099Z" fill="#D86331"/>
<path d="M24.9599 62.4698C25.2599 61.7298 25.6399 61.0198 26.0699 60.3498C26.4899 59.2098 26.9299 58.0798 27.5899 57.1198C26.8599 57.0298 25.5999 55.9998 25.0599 56.1798C25.0299 57.4098 24.5799 61.2298 24.9699 62.4798L24.9599 62.4698Z" fill="#9F4018"/>
<path d="M25.09 62.8101C25.49 63.7001 26.48 64.7801 27.05 65.4901C28.57 67.3801 30.01 70.64 30.01 70.64C31.88 71.72 33.18 72.2601 34.44 73.3701C34.44 73.3701 35.21 69.05 34.62 67.14C34.14 66.12 33.44 65.23 32.8 64.28C30.17 64.21 27.48 63.8701 25.09 62.8101Z" fill="url(#paint11_linear_303_70684)"/>
<path d="M25.09 62.8101C25.33 63.3501 25.79 63.9601 26.24 64.5101C26.41 64.4201 26.61 64.4 26.85 64.47C28.84 65.06 30.64 66.1701 31.78 67.9501C32.7 69.3901 33.2 71 33.53 72.66C33.84 72.88 34.15 73.1101 34.45 73.3701C34.45 73.3701 35.22 69.05 34.63 67.14C34.15 66.12 33.45 65.23 32.81 64.28C30.18 64.21 27.49 63.8701 25.1 62.8101H25.09Z" fill="#853113"/>
<path opacity="0.48" d="M33.37 66C34.7 67.95 34.45 70.5301 34.51 72.9501C34.56 71.5101 35.06 68.55 34.62 67.14C34.14 66.12 33.44 65.23 32.8 64.28C30.17 64.21 27.48 63.8701 25.09 62.8101C25.49 63.7001 26.48 64.7801 27.05 65.4901C28.57 67.3801 30.01 70.64 30.01 70.64C30.14 70.71 30.27 70.79 30.39 70.86C29.65 69.33 28.02 66.7901 29.25 65.3401C30.39 63.9901 32.53 64.77 33.37 66Z" fill="#7C3014"/>
<path d="M47.52 58.15C47.52 58.15 47.65 58.15 47.86 58.15C45.94 57.19 43.83 56.6899 41.54 56.8799C40.11 56.9999 38.63 57.1499 37.24 57.5299C36.24 57.7899 35.29 56.2599 35.36 57.5999C35.36 57.6799 34.35 58.02 34.34 58.09C35.61 58 36.75 59.9999 36.89 62.4099C36.89 62.4099 36.08 62.45 35.74 62.71C35.75 62.71 35.76 62.7299 35.77 62.7399C36.48 63.3999 38 63.3199 38.84 63.2799C39.69 63.2399 40.54 63.1499 41.38 62.9999C40.78 62.5699 40.18 62.18 40.18 62.18L44.55 60.4399C45.46 59.4999 47.36 57.9299 47.51 58.1599L47.52 58.15Z" fill="#B2360B"/>
<path d="M34.6104 58.4299C35.6704 58.4099 36.6104 60.1099 36.8504 61.9199C37.2204 61.5699 37.4904 61.1099 38.0004 60.7999C38.7904 60.2999 39.7703 59.9899 40.7003 59.9199C42.0003 59.8099 43.3604 59.9599 44.6304 60.3599C44.8504 60.1399 46.5804 58.6999 46.8604 58.4499C45.7004 58.3399 43.4504 57.6799 42.3004 57.5699C40.0304 57.3499 36.6304 56.9899 34.6104 58.4399V58.4299Z" fill="#992F0A"/>
<path d="M47.64 57.46C47.1 59.63 46.32 62.4 45.72 64.58C45.15 66.68 44.39 68.75 43.89 70.87C43.18 73.87 41.9 76.58 41.99 79.75C43.8 76.38 44.91 72.64 46.6 69.21C48.12 66.13 50.25 61.78 51.34 58.58C51.34 58.58 50.5 57.53 49.67 57.35C48.33 57.06 48.45 57.61 47.64 57.46Z" fill="#9B2F0E"/>
<path d="M47.9198 65.26C47.0898 67.31 46.1998 69.31 45.5098 71.41C45.4098 71.7 45.3198 72 45.2198 72.29C45.6498 71.25 46.0898 70.21 46.5898 69.21C48.1098 66.13 50.2398 61.78 51.3298 58.58C51.3298 58.58 50.4898 57.53 49.6598 57.35C48.3198 57.06 48.4399 57.61 47.6299 57.46C47.5699 57.7 47.5098 57.94 47.4398 58.19C48.2498 58.21 49.0398 58.33 49.8298 58.54C50.3298 58.67 50.8698 58.49 50.6998 59.07C49.4698 63.17 48.6598 63.42 47.9198 65.26Z" fill="#C14017"/>
<path d="M18.9007 61.31C18.9007 61.31 18.9007 61.26 18.8907 61.23V61.31H18.9007Z" fill="#AD4C23"/>
<path d="M58.2301 57.78C57.1701 61.6 55.4001 65.9 54.7001 69.9C54.4901 71.1 52.9001 75.38 52.4601 77.02L53.5501 78.37C54.6401 78.18 57.0601 76.01 57.4101 75.27C59.6201 70.59 63.4501 61.73 65.9501 57.15L65.9101 56.25C65.4901 56.29 62.2501 54.83 60.8001 54.69C57.6501 54.38 58.9401 55.26 58.2401 57.79L58.2301 57.78Z" fill="url(#paint12_linear_303_70684)"/>
<path d="M58.2301 57.78C57.1701 61.6 55.4001 65.9 54.7001 69.9C54.4901 71.1 52.9001 75.38 52.4601 77.02L53.5501 78.37C53.6101 78.37 53.6801 78.34 53.7501 78.32C53.9301 77.88 54.1201 77.44 54.3101 77.01C55.4201 74.32 55.6001 72.18 56.4701 69.41C57.2001 67.08 57.7601 63.1 58.6101 60.81C59.8101 57.6 62.4701 56.6 65.9401 56.97L65.9101 56.26C65.4901 56.3 62.2501 54.84 60.8001 54.7C57.6501 54.39 58.9401 55.27 58.2401 57.8L58.2301 57.78Z" fill="#9B401D"/>
<path opacity="0.4" d="M58.69 63.3699C58.24 65.2099 57.42 67.6299 57.1 69.5099C56.74 71.5899 56.37 73.6599 55.92 75.7199C56.78 75.3699 57.57 74.9299 57.75 74.5399C59.37 71.0999 61.68 65.8099 63.79 61.4299C63.66 61.4499 63.52 61.4699 63.39 61.4999C62.31 61.6899 61.82 61.9199 60.79 62.2899C59.99 62.5799 58.7 63.3899 58.7 63.3899L58.69 63.3699Z" fill="#742204"/>
<path d="M58.3703 56C57.6503 58.79 53.8903 72.33 53.5403 73.64C54.3003 71.52 55.2803 69.03 55.8403 66.85C56.6003 63.88 58.0903 57.01 59.0203 56.78C59.8503 56.57 60.7003 56.58 61.5503 56.62C62.0403 56.18 62.5403 55.75 63.0103 55.28C62.1803 54.99 61.3503 54.78 60.7903 54.69C60.0003 54.55 58.6303 55 58.3703 56Z" fill="#782706"/>
<path opacity="0.64" d="M62.4807 62.1698C62.7907 62.1698 63.1007 62.1698 63.4107 62.1998C64.3007 60.3098 65.1707 58.5598 65.9407 57.1398L65.9008 56.2398C65.4808 56.2798 62.2407 54.8198 60.7907 54.6798C58.9807 54.4998 58.4207 54.8298 58.1407 55.6098C58.1907 55.6098 58.2307 55.6198 58.2907 55.6298C60.1707 56.0898 62.0908 56.3698 63.9308 56.9898C64.6208 57.2198 64.8007 57.8898 64.3907 58.4698C63.6007 59.5898 63.0207 60.8698 62.4807 62.1598V62.1698Z" fill="#742204"/>
<path d="M56.9301 72.7598C57.1401 72.9698 57.35 73.1898 57.57 73.3898C58.09 73.3498 58.66 73.3898 59.1 73.1498C59.59 72.8798 60.07 71.6098 60.42 71.1698C61.23 70.1498 62.04 69.0498 63.33 68.5998C64.39 68.0798 65.72 67.4298 65.72 67.4298C65.72 67.4298 67.0201 65.3598 67.2101 63.7498C66.8701 63.3698 66.47 63.0598 66.07 62.7298C65.92 62.6098 65.81 62.4498 65.75 62.2898C65.75 62.2898 65.74 62.2798 65.73 62.2798C65.41 62.0098 65.08 61.7698 64.75 61.5598C64.55 61.4698 64.34 61.3798 64.13 61.2998C62.34 61.7798 60.28 61.9598 58.91 63.1598C58.65 63.9898 58.52 64.8698 58.32 65.6898C58 66.9798 57.62 68.2098 57.48 69.5298C57.36 70.6198 57.16 71.6998 56.92 72.7698L56.9301 72.7598Z" fill="url(#paint13_linear_303_70684)"/>
<path d="M60.8606 63.4601C60.5306 63.3001 59.0306 63.5201 58.6906 63.3701C58.4706 64.1301 58.5306 64.9301 58.3406 65.6801C58.0206 66.9701 57.6405 68.2001 57.5005 69.5201C57.3805 70.6101 57.1806 71.6901 56.9406 72.7601C57.1506 72.9701 57.3606 73.1901 57.5806 73.3901C57.8706 73.3701 58.1806 73.3701 58.4706 73.3301C58.8706 72.1001 59.4206 70.9401 60.1206 69.8301C60.6406 68.9901 61.2005 68.1901 61.7505 67.3801C62.1705 66.7601 62.4606 66.0701 62.8406 65.4201C61.9506 64.7701 61.8506 63.9201 60.8706 63.4601H60.8606Z" fill="#A8370F"/>
<path d="M59.8207 65.8398C59.5707 66.8798 59.3907 67.9098 59.1007 68.3298C58.8107 68.7498 58.6007 70.1298 58.6007 70.1298C58.6007 70.1298 59.8207 67.6798 60.0807 66.9898C60.3407 66.2998 60.6907 64.6598 60.6907 64.6598L61.3707 64.0598C61.3707 64.0598 60.7507 63.8498 60.2207 64.2698C60.2207 64.2698 60.0707 64.7898 59.8307 65.8298L59.8207 65.8398Z" fill="#822B08"/>
<path d="M59.3107 64.6299C59.3707 64.3699 59.3907 64.0999 59.4607 63.8699C59.5207 63.6399 60.0107 63.4399 59.9407 63.1899C59.6707 63.0699 59.1807 63.3899 59.0307 63.6099V63.5499C59.0507 64.0699 59.0307 64.5699 59.0607 65.0799C59.0807 65.4999 58.9207 65.91 58.9607 66.31C59.0207 65.76 59.1907 65.1699 59.3207 64.6299H59.3107Z" fill="#822B08"/>
<path d="M62.7108 65.7701C63.0808 65.7001 63.4808 65.6201 64.0608 65.4901C64.2908 65.4401 65.1508 65.2801 65.6008 65.0201C66.2008 64.6701 67.2508 63.9901 67.2208 63.7501C67.1608 63.1301 64.8708 61.8101 64.2808 61.4901C64.1908 61.4401 64.1008 61.3901 64.0008 61.3301C62.1008 61.8201 59.9908 61.9301 58.6808 63.3701C58.7408 63.4101 58.8608 63.4801 59.0108 63.5701C59.0908 63.6201 59.5308 63.3701 59.6208 63.4201C59.7108 63.4701 59.4508 63.8301 59.4508 63.8301C59.7608 64.0101 60.1408 64.2401 60.2108 64.2901L61.0408 64.1401L60.6908 64.6701C61.3508 65.0601 62.0008 65.4301 62.7108 65.7801V65.7701Z" fill="url(#paint14_linear_303_70684)"/>
<path d="M62.7103 65.77C63.0803 65.7 63.4803 65.62 64.0603 65.49C64.2903 65.44 65.1503 65.28 65.6003 65.02C66.1803 64.68 67.1903 64.03 67.2203 63.77C65.6003 65.02 62.7103 65.78 60.8303 64.46L60.7003 64.66C61.3603 65.05 62.0103 65.42 62.7203 65.77H62.7103Z" fill="#F6743F"/>
<path d="M39.2499 75.01C39.2499 75.01 39.3199 75.05 39.3499 75.07C40.1199 72.67 40.2699 70.16 40.8699 67.72C40.9999 67.18 41.6499 65.43 40.9499 65.09C40.4699 64.86 39.8999 64.77 39.4499 64.5C38.7999 64.12 38.1299 63.74 37.4499 63.41C37.0299 63.21 35.6599 62.51 35.2499 63.03C34.5299 63.96 35.4399 65.99 35.6699 66.98C36.1599 69.08 36.7899 71.35 36.3999 73.48C37.3499 73.99 38.2899 74.52 39.2499 75.01Z" fill="#9B2F0E"/>
<path d="M40.8702 67.72C41.0002 67.18 41.6502 65.43 40.9502 65.09C40.4702 64.86 39.9002 64.77 39.4502 64.5C38.8002 64.12 38.1302 63.74 37.4502 63.41C37.0502 63.22 35.8102 62.59 35.3302 62.96C36.8502 64.4 39.3902 64.44 39.5502 67.01C39.6502 68.55 39.6702 70.11 39.7302 71.64C39.7502 72.33 39.7602 73.03 39.7302 73.73C40.2002 71.74 40.3902 69.7 40.8802 67.72H40.8702Z" fill="#C14017"/>
<path d="M40.1904 62.1699C40.1904 62.1699 36.9004 62.3499 36.9004 62.4099C36.9004 62.4099 34.6504 62.5199 36.1004 63.5699C36.0904 63.6199 39.7704 64.9199 40.0304 65.0899C40.0504 65.1499 40.0704 65.2199 40.0904 65.3099C40.4404 65.0999 40.8304 64.9799 41.2204 64.8199C41.6804 64.6299 42.1404 64.4599 42.6104 64.2899C42.6104 64.2199 42.6104 64.1499 42.6104 64.0799C42.5904 63.7199 40.2004 62.1799 40.2004 62.1799L40.1904 62.1699Z" fill="#D86331"/>
<path d="M35.9602 62.5898C35.5002 62.6998 35.2502 63.0298 35.2502 63.0298C35.2402 63.0798 36.6902 64.2398 40.0202 65.0798C40.0402 65.1398 40.0602 65.2098 40.0802 65.2998C40.4302 65.0898 40.8202 64.9698 41.2102 64.8098C41.6702 64.6198 42.1302 64.4498 42.6002 64.2798C42.6002 64.2098 42.6002 64.1398 42.6002 64.0698C42.6002 64.0298 42.5702 63.9798 42.5102 63.9198C39.7502 65.4598 38.0002 64.3098 36.3002 63.5198C35.6202 63.1998 35.3302 62.9498 35.9602 62.5898Z" fill="#F6743F"/>
<path d="M42.5997 64.0797C42.5997 64.0797 42.5797 64.0197 42.5497 63.9697C41.7597 64.4797 40.8896 64.8597 39.9796 65.0597C39.9796 65.0597 39.9996 65.1197 40.0096 65.1197C40.4796 66.2097 39.7897 73.5297 39.2697 75.1097C40.1297 73.8797 42.7697 66.7197 42.5997 64.0697V64.0797Z" fill="#802D0D"/>
<path d="M39.3294 75.0197C39.7594 73.6197 39.9494 72.2497 40.0794 70.7997C40.1494 69.9297 40.2994 69.0797 40.3894 68.2097C40.4394 67.6797 40.4694 67.1197 40.6094 66.5997C40.8994 65.5597 41.4694 64.8497 42.4894 64.4597C42.5294 64.4497 42.5694 64.4397 42.6094 64.4197C42.6094 64.2997 42.6094 64.1797 42.6094 64.0797C42.6094 64.0497 42.5894 64.0197 42.5594 63.9697C41.7694 64.4797 40.8994 64.8597 39.9894 65.0597C39.9894 65.0597 40.0094 65.1197 40.0194 65.1197C40.4894 66.2097 39.7994 73.5297 39.2794 75.1097C39.2994 75.0797 39.3194 75.0497 39.3394 75.0097L39.3294 75.0197Z" fill="#6C2C14"/>
<path d="M33.7207 77.9498C33.9207 79.2498 34.0407 80.5198 34.4107 81.7898C34.7107 82.8398 34.9407 83.8998 35.1307 84.9698C35.4107 85.0898 35.6807 85.1998 35.9607 85.2998C36.4307 85.0598 36.9607 84.8898 37.2707 84.4998C37.6207 84.0698 37.5707 82.7198 37.7307 82.1798C38.0907 80.9398 38.4107 79.6098 39.4207 78.7098C40.1907 77.8298 41.1607 76.7298 41.1607 76.7298C41.1607 76.7298 41.5607 74.3398 41.1307 72.7798C40.6707 72.5698 40.1907 72.4398 39.6907 72.2798C39.5107 72.2198 39.3507 72.1198 39.2307 71.9898C39.2307 71.9898 39.2207 71.9898 39.2107 71.9898C38.8107 71.8698 38.4206 71.7698 38.0406 71.6998C36.6906 71.6598 35.2607 71.8098 34.2307 72.5098C33.9107 72.8498 33.6207 73.2098 33.3407 73.5798C33.3607 73.6798 33.3607 73.7898 33.3407 73.9198C33.1007 75.2598 33.5207 76.6298 33.7207 77.9398V77.9498Z" fill="#822B08"/>
<path d="M37.4806 78.2101C37.6306 77.4801 37.6406 76.7401 37.7306 76.0001C36.6706 75.7401 35.4906 75.7001 34.4106 75.6501C34.0506 75.6301 33.6806 75.6201 33.3106 75.6201C33.4006 76.4001 33.5906 77.1901 33.7106 77.9501C33.9106 79.2501 34.0306 80.5201 34.4006 81.7901C34.7006 82.8401 34.9306 83.9001 35.1206 84.9701C35.4006 85.0901 35.6706 85.2001 35.9506 85.3001C36.2106 85.1701 36.4906 85.0501 36.7506 84.9101C36.6506 83.6301 36.7106 82.3501 36.9206 81.0701C37.0806 80.1101 37.2906 79.1601 37.4806 78.2001V78.2101Z" fill="#A8370F"/>
<path opacity="0.75" d="M34.4203 75.6499C34.0603 75.6299 33.6903 75.6199 33.3203 75.6199C33.4103 76.3999 33.6003 77.1899 33.7203 77.9499C33.9203 79.2499 34.0403 80.5199 34.4103 81.7899C34.7103 82.8399 34.9403 83.8999 35.1303 84.9699C35.4103 85.0899 35.6803 85.1999 35.9603 85.2999C36.1003 85.2299 36.2403 85.1699 36.3703 85.0999C36.3203 84.6899 36.2803 84.2699 36.2403 83.8599C36.1403 82.8499 35.9103 81.8799 35.7103 80.8799C35.5503 80.0799 35.3903 79.2599 35.3503 78.4499C35.2103 77.5299 35.1703 76.5999 35.2603 75.6799C34.9703 75.6599 34.6903 75.6499 34.4103 75.6399L34.4203 75.6499Z" fill="#7A2907"/>
<path d="M40.1201 74.5799C40.5301 74.0299 41.2401 73.0099 41.1301 72.7899C40.8401 72.2499 38.2301 71.8999 37.5801 71.8299C36.5901 71.7299 35.3601 71.3899 34.3501 71.5299C33.6801 72.9199 31.6901 73.9499 30.8401 75.2099L30.7401 75.3699C30.6901 75.4299 33.1801 75.7899 33.7801 75.8699C35.1401 76.0499 36.4001 76.2799 37.7701 76.3699C38.0901 76.1699 38.4201 75.9399 38.9001 75.5999C39.09 75.4599 37.8201 75.6299 37.9401 75.4699C38.0601 75.3099 39.8101 74.9899 40.1201 74.5799Z" fill="#B75229"/>
<path opacity="0.69" d="M30.8303 75.2099L30.7303 75.3699C30.6803 75.4299 33.1703 75.7899 33.7703 75.8699C34.2703 75.9399 34.7503 76.0098 35.2303 76.0798C35.2603 76.0798 35.5003 75.4498 36.8903 74.1398C37.3803 73.6798 33.6803 73.1799 32.9503 72.8499C32.0703 73.8199 31.4803 74.2299 30.8303 75.1999V75.2099Z" fill="#893211"/>
<path d="M40.1203 74.58C40.2903 74.35 40.5103 74.05 40.7003 73.75C40.1803 74.32 39.6603 74.73 38.9603 74.88C38.7303 75.02 37.4903 75.5 37.3503 75.57C37.0203 75.73 38.7703 75.63 38.4303 75.75C38.2603 75.81 37.9503 76.17 37.6903 76.18C37.6303 76.22 36.9503 76.18 36.8703 76.2C36.7703 76.23 36.6703 76.24 36.5703 76.26C36.9603 76.3 37.3503 76.34 37.7603 76.37C38.0803 76.17 38.4103 75.94 38.8903 75.6C39.0803 75.46 37.8103 75.63 37.9303 75.47C38.0503 75.31 39.8003 74.99 40.1103 74.58H40.1203Z" fill="#D46336"/>
<path d="M28.9998 71.25C28.0398 71.2 27.0898 71.15 26.1398 71.02C26.4498 71.7 26.7298 72.4 26.9998 73.1C27.2498 73.77 27.5798 74.42 27.7798 75.11C27.7998 75.1 27.8098 75.09 27.8098 75.09C28.1698 76.12 29.0198 77.69 29.5498 78.96C29.8698 79.74 30.0398 80.61 30.2898 81.39C30.8098 81.68 31.3698 81.91 31.8298 82.29C31.8698 82.32 31.9098 82.35 31.9498 82.38C32.0898 82.46 32.1798 82.54 32.1798 82.54C32.4898 83.18 33.0498 83.81 33.5998 84.34C34.3998 84.63 35.1798 85.01 35.9598 85.3C36.0698 84.37 36.0198 83.53 35.7498 82.54C35.4298 81.39 35.0498 80.25 34.7498 79.1C34.5698 78.38 34.3798 77.61 34.4798 76.86C34.2598 75.21 34.3898 73.35 34.3898 73.35C33.4698 72.69 30.0798 71.31 28.9998 71.25Z" fill="#9B4020"/>
<path d="M30.7998 72.9098C29.5598 72.3098 28.0898 71.9198 26.9398 71.1198C26.6698 71.0998 26.3998 71.0698 26.1398 71.0298C26.4498 71.7098 26.7298 72.4098 26.9998 73.1098C27.0898 73.3398 27.1798 73.5598 27.2698 73.7798C27.7798 73.7198 28.2498 73.8598 28.6698 74.1398C30.1698 74.9998 30.8698 77.2698 31.1598 78.8098C31.3698 79.9198 31.5398 81.0298 31.6398 82.1498C31.6898 82.1898 31.7398 82.2198 31.7898 82.2598C31.8398 82.2998 31.8998 82.3398 31.9398 82.3798C32.0798 82.4598 32.1598 82.5398 32.1598 82.5398C32.3198 82.8698 32.5498 83.2098 32.8198 83.5298C32.8298 81.5798 33.2398 79.6298 33.0498 77.6798C32.8698 75.8598 32.5998 73.7898 30.7898 72.9098H30.7998Z" fill="#8E3615"/>
<path d="M34.1901 73.22C32.9401 73.79 31.6001 74.14 30.4801 74.94C30.4501 74.96 30.4101 74.98 30.3801 75C30.4001 75.06 30.4201 75.12 30.4301 75.19C31.1701 77.59 31.9001 80.02 32.1601 82.52L32.1801 82.54C32.4901 83.18 33.0501 83.81 33.6001 84.34C34.4001 84.63 35.1801 85.01 35.9601 85.3C36.0701 84.37 36.0201 83.53 35.7501 82.54C35.4301 81.39 35.0501 80.25 34.7501 79.1C34.5701 78.38 34.3801 77.61 34.4801 76.86C34.2601 75.21 34.3901 73.35 34.3901 73.35C34.3401 73.31 34.2701 73.26 34.1901 73.22Z" fill="#7A2C0E"/>
<path d="M34.2501 73.26C34.2501 73.26 34.2101 73.23 34.1901 73.22C32.9401 73.79 31.6001 74.14 30.4801 74.94C30.4501 74.96 30.4101 74.98 30.3801 75C30.4001 75.06 30.4201 75.12 30.4301 75.19C31.1701 77.59 31.9001 80.02 32.1601 82.52L32.1801 82.54C32.3201 82.83 32.5101 83.11 32.7201 83.39C32.7201 82.81 32.7201 82.22 32.7001 81.64C32.6501 80.62 32.5101 79.67 32.1501 78.71C31.8701 77.97 31.6201 77.24 31.4901 76.47C31.2201 76.16 31.1401 75.71 31.5101 75.32C32.3101 74.48 33.2501 73.82 34.2601 73.27L34.2501 73.26Z" fill="#691F03"/>
<path d="M28.9301 73.61C29.5601 74.28 30.2201 74.6 30.5601 75.27C31.8101 74.45 33.1901 74.07 34.3701 73.36C33.7901 72.62 30.4201 70.3 29.9101 70.73C29.0501 70.77 26.9801 70.9399 26.1301 71.0299C26.3901 71.5799 27.2501 72.23 27.9901 72.81C28.1801 72.96 28.4601 73.03 29.4201 73.01C29.4201 73.01 28.8201 73.5 28.9201 73.61H28.9301Z" fill="url(#paint15_linear_303_70684)"/>
<path d="M28.9303 73.61C29.5603 74.28 30.2203 74.6 30.5603 75.27C31.8103 74.45 33.1903 74.07 34.3703 73.36C34.3503 73.33 34.3303 73.31 34.3003 73.28C33.1803 73.73 32.0403 74.12 30.9303 74.58C30.2703 74.85 29.6603 74.15 29.7803 73.53C29.8303 73.24 29.9403 72.96 30.0703 72.7C30.0803 72.68 30.0903 72.66 30.1103 72.64C29.6303 72.71 29.1303 72.86 28.6503 72.76C27.6303 72.55 26.9703 71.78 26.3503 71C26.2703 71 26.1903 71.02 26.1203 71.02C26.3803 71.57 27.2403 72.22 27.9803 72.8C28.1703 72.95 28.4503 73.02 29.4103 73C29.4103 73 28.8103 73.49 28.9103 73.6L28.9303 73.61Z" fill="#F6743F"/>
<path d="M16.2704 59.71C16.4104 60.02 16.4204 60.1 16.2704 59.71V59.71Z" fill="#AD3114"/>
<path d="M49.8203 58.9001C50.0903 58.8601 50.3504 58.8001 50.5804 58.6801C50.6304 58.6501 50.6904 58.6301 50.7404 58.6201C50.7704 58.5001 50.8303 58.3801 50.9203 58.2701C52.0603 56.8 54.1504 56.33 55.9304 56.19C56.3904 56.06 56.8503 55.98 57.2903 55.91C57.3103 55.58 57.3304 55.2601 57.3404 54.9601C57.4504 52.8901 57.2704 51.54 57.2404 51.05C56.0204 51.56 53.0504 53.1501 51.8704 53.7401C51.8504 53.7401 50.9204 56.0301 49.8104 58.9001H49.8203Z" fill="#562F15"/>
<path d="M48.8001 60.9899C48.8001 60.9899 48.8001 60.9399 48.7901 60.9199L48.6201 61.1099C48.6901 61.0799 48.7501 61.0299 48.8001 60.9899Z" fill="#9D4828"/>
<path d="M47.6603 57.3801L47.5703 57.4401C47.5703 57.4401 47.6203 57.4401 47.6503 57.4501C47.6503 57.4301 47.6603 57.4001 47.6703 57.3701L47.6603 57.3801Z" fill="#7A5739"/>
<path d="M2.23035 37.3999C2.26035 39.6199 5.37035 44.0599 5.94035 46.1699C6.21035 47.1499 6.65036 48.0299 6.85036 49.0799C7.05036 50.1499 6.81035 51.4199 7.17035 52.3599C11.4603 52.0199 13.0204 48.8699 11.9904 44.6099C11.0004 40.5099 5.36036 38.0499 2.24036 37.4099L2.23035 37.3999Z" fill="#77481E"/>
<path opacity="0.64" d="M6.62036 40.3699C6.40036 40.3299 4.44037 37.4599 4.21037 37.4099C2.23037 37.4099 2.42036 37.8499 2.37036 38.3299C3.72036 40.1399 7.41037 45.5699 7.71037 47.6799C8.02037 47.5599 8.32037 47.4099 8.60037 47.2299C9.21037 46.6699 9.80037 46.0199 9.97037 45.2499C10.4504 43.1299 8.38037 41.5099 6.61037 40.3699H6.62036Z" fill="#742204"/>
<path d="M76.8803 42.09C76.8803 42.09 76.1304 34.54 66.8904 32.79C66.5504 32.73 63.0104 31.62 63.0204 31.35C63.0204 31.06 55.9904 26.52 44.7504 26.13C41.8804 26.03 33.9304 26.87 29.6804 27.33C28.1704 27.5 27.1304 27.61 26.9604 27.62L22.8204 27.71C19.0404 27.96 15.8704 31.18 15.8304 31.18C14.2504 31.38 14.0604 31.27 9.46037 32.46C5.43037 33.5 2.78037 35.93 2.24037 37.4C1.78037 38.67 5.87036 38.29 5.91036 39.53C5.91036 39.53 0.920357 40.36 0.0603574 41.8C0.0603574 41.8 -0.929645 47.66 5.87036 50.5L5.70036 52.61C8.45036 54.48 15.7304 57.1 17.0604 57.05C17.0604 57.05 20.7004 54.92 21.1404 55C23.4204 55.42 28.4204 59.46 29.4504 59.67C31.5304 60.09 34.0804 59.1 36.0004 59.55C37.4904 59.23 39.0004 59.13 40.5204 59.16C45.0104 58.68 49.5604 58.76 53.8904 59.98C55.7104 58.14 58.4504 55.8 58.7004 56.21C58.7004 56.21 64.2403 56.18 65.8503 57.07C66.2504 55.22 64.4804 53.81 64.4804 53.81C64.4804 53.81 71.6104 51.01 74.2404 49.7C74.7704 49.43 77.2804 46.54 76.8704 42.11L76.8803 42.09Z" fill="url(#paint16_linear_303_70684)"/>
<g opacity="0.64">
<path d="M36.6607 37.64C37.7007 36.69 38.9807 36.02 40.3407 35.66C40.3607 35.66 40.3707 35.64 40.3807 35.64C40.1707 35.07 39.5907 33.66 39.7507 33.56C43.3007 31.33 46.6407 28.77 50.2807 26.69C49.8907 26.63 49.5107 26.56 49.1007 26.51C48.5907 26.69 48.0707 26.83 47.5907 27.03C45.7107 27.81 43.9307 28.85 42.0607 29.66C40.9907 30.12 39.8207 30.43 38.8107 31.01C37.7307 31.64 37.4007 33.39 38.0707 34.57C38.1807 34.76 36.2507 35.4 35.5607 35.81C35.2707 35.98 33.4807 36.83 34.1707 37.15C34.9407 37.51 35.7507 37.69 36.5807 37.78C36.5907 37.73 36.6207 37.68 36.6607 37.64Z" fill="#742204"/>
</g>
<path d="M53.3007 7.72004C53.8407 9.11004 54.7407 10.72 55.3407 11.85C54.0607 6.86004 54.9407 6.34004 52.2707 2.54004C51.6207 3.81004 52.8607 6.49004 53.3007 7.72004Z" fill="#9A671C"/>
<path d="M51.9908 7.63017C50.2108 5.70017 47.3708 3.25018 44.8408 2.43018C45.0208 3.61018 46.8008 5.05018 47.5208 5.97018C48.3908 6.97018 49.3708 7.94017 50.2908 8.87017C51.6708 10.1702 52.7708 11.4102 55.0608 12.1702C55.2408 10.7102 52.9108 8.56017 52.0008 7.63017H51.9908Z" fill="#9E7819"/>
<path d="M41.6104 7.54011C42.9004 8.50011 52.9204 14.1201 53.7904 12.9801L54.3504 13.0201C52.7604 12.5701 51.0704 10.9901 49.6304 10.1301C47.9004 9.11011 43.5904 6.66011 41.6104 7.54011Z" fill="#9A671C"/>
<path d="M54.2404 12.6299C58.1404 14.9299 62.9504 17.1899 67.0604 19.6199C66.9004 17.5799 62.8604 15.1899 61.1504 14.2799C59.4504 13.3699 57.0704 12.4499 55.0404 12.4199L54.2404 12.6299Z" fill="#9E7819"/>
<path d="M54.0399 13.84C54.1199 13.81 54.2099 13.79 54.2899 13.78C54.0799 13.74 53.88 13.72 53.71 13.74L54.0399 13.84Z" fill="#81751F"/>
<path d="M54.3008 13.7801C56.0008 14.1501 58.6508 16.6001 59.6508 17.5501C62.1808 20.0201 64.2608 23.1001 66.3108 26.0601C67.3408 22.6701 64.0508 19.6601 61.7408 17.8001C60.3408 16.6901 56.3608 13.4301 54.3008 13.7801Z" fill="#81751F"/>
<path d="M53.4804 14.16L53.1904 13.99C54.4204 15.69 56.0204 17.61 57.4404 19.32C59.2804 21.48 61.9704 23.36 63.3804 25.75C64.0304 23.5 60.8704 19.79 59.4304 18.25C58.0004 16.72 55.5204 14.48 53.4804 14.15V14.16Z" fill="#9A671C"/>
<path d="M57.7307 22.81C57.4407 21.66 56.7807 20.79 56.2607 19.7C55.3907 18.21 53.3907 15.66 53.2007 14L52.9307 14.62C53.6407 15.72 53.8206 18.07 54.6606 19.44C55.5906 21.16 57.9107 23.51 57.9907 25.5C57.8707 24.55 58.1107 23.82 57.7307 22.81Z" fill="#9A671C"/>
<path d="M41.4004 12.6801C43.6004 13.4001 46.3504 13.3601 48.6304 13.6401C49.7804 13.8301 52.1204 13.6601 52.8904 14.5001L52.9504 14.2401C52.3504 13.1101 49.8704 13.0101 48.7704 12.7401C46.7304 12.4101 43.2704 11.3401 41.4104 12.6701L41.4004 12.6801Z" fill="#81751F"/>
<path d="M42.8904 16.0901C44.9204 16.1201 47.0604 16.1201 49.1004 15.9601C50.3104 15.8901 51.7704 14.9101 52.8504 15.0601L53.0604 14.7001C50.4004 14.5901 44.6704 13.7401 42.8904 16.0901Z" fill="#81751F"/>
<path d="M56.6404 10.47L57.0304 10.8C58.3504 8.56002 56.9304 4.21002 55.4504 2.27002C54.4404 4.31002 55.6404 8.71002 56.6404 10.48V10.47Z" fill="#9E7819"/>
<path d="M60.7404 2.37988C58.9404 4.43988 59.4204 7.73988 59.0304 10.2299L59.0604 10.3499C60.5804 7.93988 60.0004 4.95988 60.7504 2.37988H60.7404Z" fill="#9A671C"/>
<path d="M63.9609 2.53003C62.2609 4.74003 61.2909 7.38003 59.8809 9.77003L60.1709 9.94003C62.4609 9.54003 63.3109 4.30003 63.9609 2.53003Z" fill="#9E7819"/>
<path d="M58.2404 10.05C58.2404 10.05 58.2104 10.1101 58.2004 10.1301L58.2404 10.0601V10.05Z" fill="#9A671C"/>
<path d="M59.1804 5.84C59.4704 3.87 59.1504 1.93 59.0304 0C57.1704 2.99 58.6404 7.07 58.2504 10.05C58.8004 9.17 59.0004 6.96 59.1904 5.84H59.1804Z" fill="#9A671C"/>
<path d="M66.3704 3.56006C64.2604 4.65006 63.0004 7.61006 61.7704 9.71006V10.0101C63.6504 9.16006 65.3504 5.30006 66.3704 3.56006Z" fill="#9E7819"/>
<path d="M70.7304 7.40003C68.4804 5.78003 64.4904 8.39003 62.7804 9.81003L63.0004 9.94003C63.5704 9.79003 65.0604 8.92003 65.9604 8.56003C67.3504 8.02003 69.5904 8.18003 70.7404 7.39003L70.7304 7.40003Z" fill="#9E7819"/>
<path d="M73.5599 11.0201C72.1299 9.49012 69.2799 9.85012 67.4399 9.84012C66.3499 9.88012 64.4499 9.63012 63.6699 9.95012L64.0299 10.1601C64.8799 10.8601 66.8099 10.7301 67.8899 10.8801C69.4599 11.0301 72.1199 11.6301 73.5599 11.0101V11.0201Z" fill="#9E7819"/>
<path d="M79.2504 16.7201C78.5304 14.6401 75.0104 12.8501 72.9704 12.5201C70.8504 12.1501 68.8304 12.6101 66.8504 11.3401L67.6804 11.9301C69.1104 12.9701 70.9304 13.3601 72.5704 14.0401C74.7804 14.7601 77.0104 16.0801 79.2604 16.7301L79.2504 16.7201Z" fill="#9E7819"/>
<path d="M73.6204 16.5199C72.3504 15.3799 70.6304 14.6599 69.4004 13.4399C71.2404 16.7599 75.3404 19.8699 76.5604 23.8999C76.4404 21.2999 75.6004 18.2699 73.6204 16.5099V16.5199Z" fill="#81751F"/>
<path d="M74.8004 22.7701C74.2304 21.2601 73.4004 19.7 72.6704 18.3L72.6104 18.5601C72.0404 19.6901 73.3004 22.1801 73.8504 23.3801C74.8704 25.4501 75.7304 27.6101 76.6404 29.7001C78.0204 27.6901 75.5704 24.5901 74.8004 22.7701Z" fill="#81751F"/>
<path d="M71.2804 25.26C71.8204 22.36 71.3104 19.43 71.2104 16.64L70.9204 15.98C71.1104 16.48 70.0604 18.59 70.0704 19.57C70.2004 21.5 71.1604 23.33 71.2904 25.26H71.2804Z" fill="#9E7819"/>
<path d="M68.61 13.44C68.61 13.24 68.58 13.09 68.5 13L68.61 13.44Z" fill="#9A671C"/>
<path d="M68.6108 13.4599V13.4399C68.6108 14.2399 68.0508 15.7199 68.0708 16.3499C68.1408 18.0499 68.7308 19.8599 68.9808 21.5699C69.5208 19.1599 69.7708 15.6099 68.6108 13.4599Z" fill="#9A671C"/>
<path d="M65.2704 10.7L65.1604 10.7299C65.6504 12.87 66.2804 15.0899 67.1904 17.1899C68.0104 15.1399 66.8704 12.13 65.2804 10.7H65.2704Z" fill="#9A671C"/>
<path d="M61.8204 11.1001C61.9404 12.0501 62.5004 12.7601 63.0004 13.5501C63.8604 14.7401 65.0304 15.7201 66.0904 16.7401C65.0104 14.4501 63.8904 12.2201 62.7204 10.0701L61.8704 9.86011C61.9004 9.97011 61.7304 10.7501 61.8204 11.1001Z" fill="#9E7819"/>
<path d="M56.7304 10.82C57.0304 11.97 58.9904 12.94 60.3904 13.86C62.4404 15.17 65.0404 16.21 66.7304 17.8C65.2204 16.23 63.4704 14.9 61.8804 13.47C60.6104 12.33 59.2004 10.91 57.4504 10.75L56.7304 10.81V10.82Z" fill="#9A671C"/>
<path d="M55.2108 12.0698C55.1408 12.1398 55.2708 12.1098 55.2108 12.0698V12.0698Z" fill="#9E7819"/>
<path d="M54.9908 11.7801C53.7008 13.0901 52.5608 14.55 51.6408 16.14C50.7708 17.65 50.0407 19.42 49.5707 21.1101C49.5107 21.3301 50.6007 21.8001 50.6607 21.5801C51.1107 19.9701 51.4107 18.7601 52.0707 17.2101C52.8107 15.4901 53.9108 13.3901 55.2108 12.0701C56.2908 10.9901 58.0908 10.5401 59.5608 10.3101C61.1708 10.0701 62.9008 10.1101 64.4608 10.6001C68.3908 11.8601 70.7508 15.4001 72.7008 18.8001C72.8208 19.0001 73.1308 18.8301 73.0107 18.6301C70.9707 15.0601 68.5208 11.5301 64.4208 10.2101C62.8508 9.71006 61.0908 9.74006 59.4808 9.96006C57.9708 10.1701 56.1907 10.6101 55.0707 11.7101C55.0107 11.6701 55.0707 11.7101 55.0007 11.7801H54.9908Z" fill="#9E7819"/>
<path d="M36.79 6.28003C36.97 10.93 37.98 10.8 39.98 15.55C39.77 14.29 39.52 12.46 39.11 11.03C38.72 9.78003 38.08 6.89003 36.8 6.28003H36.79Z" fill="#E18525"/>
<path d="M40.39 15.64C41.75 13.65 41.88 11.99 42.19 10.13C42.36 8.83996 42.55 7.46996 42.64 6.14996C42.66 4.97996 43.21 2.75996 42.64 1.70996C41.11 3.88996 40.34 7.55996 40.08 10.18C39.91 11.47 39.36 14.6 40.38 15.65L40.39 15.64Z" fill="#E29520"/>
<path d="M41.4601 15.8998L41.8801 15.5298C43.2601 15.9098 47.8401 5.36984 48.2901 3.83984C46.1801 4.33984 44.2301 8.88985 43.4701 10.7498C42.8301 12.2998 42.4401 14.5898 41.4501 15.9098L41.4601 15.8998Z" fill="#E18525"/>
<path d="M36.8097 21.01C35.9997 22.77 34.2297 27.11 35.3297 28.84C37.1397 24.41 39.5997 19.71 41.3197 15.52L40.5497 15.84C38.9497 17.09 37.6097 19.26 36.7997 21.01H36.8097Z" fill="#E29520"/>
<path d="M42.2097 16.3601L42.4097 16.0801C42.2497 16.1701 42.1097 16.3001 41.9697 16.4601C42.0497 16.4201 42.1297 16.3801 42.2097 16.3601Z" fill="#DAAB2F"/>
<path d="M41.9704 16.47C40.1204 17.44 38.9204 22.44 38.4704 24.17C37.7504 27.05 36.9504 31.43 39.8204 33.51C39.6604 29.91 39.4504 26.2 39.9804 22.7C40.2104 21.34 40.8404 17.79 41.9704 16.46V16.47Z" fill="#DAAB2F"/>
<path d="M42.9705 15.97L42.8405 16.28C41.4105 17.78 40.7905 21.06 40.5805 23.14C40.3605 25.23 40.0905 30.1 41.9605 31.5C41.6405 28.74 42.6405 25.62 42.8105 22.78C42.9005 20.55 43.0205 18.06 42.9705 15.96V15.97Z" fill="#E18525"/>
<path d="M42.9697 15.97C43.8297 17.41 43.7697 20.65 43.9797 22.36C44.2197 23.54 44.2297 24.64 44.6897 25.73C44.9897 26.76 45.6297 27.2 46.1097 28.03C44.9697 26.39 45.3997 23.12 45.0997 21.19C44.9397 19.58 43.6597 17.61 43.5597 16.3L42.9697 15.97Z" fill="#E18525"/>
<path d="M43.3205 16.0198L43.5205 16.1898C43.6205 15.0498 45.5905 13.7798 46.3905 12.9298C48.0405 11.3398 50.2505 9.6998 51.5705 7.7998C49.2805 7.8598 47.1705 10.7998 45.7405 12.2998C45.0205 13.1798 43.1105 14.7598 43.3105 16.0198H43.3205Z" fill="#DAAB2F"/>
<path d="M43.8901 16.6199C44.6601 15.8499 46.4201 15.7499 47.4201 15.0799C49.1401 13.9699 50.8501 12.6799 52.4501 11.4299C49.6001 10.6299 45.5501 14.7699 43.5001 16.4699L43.8901 16.6299V16.6199Z" fill="#DAAB2F"/>
<path d="M37.99 15.75L38.1 15.25C37.84 13.24 36.12 8.99999 34.09 7.98999C34.09 10.44 35.58 14.76 37.99 15.75Z" fill="#E29520"/>
<path d="M29.9404 11.2798C32.0904 12.8898 33.4304 15.6098 36.1004 16.6098L36.0504 16.4998C34.2304 14.7598 32.6104 11.8298 29.9404 11.2798Z" fill="#E18525"/>
<path d="M34.9597 16.9499L35.0897 16.6398C32.5297 15.5898 30.1597 14.0798 27.4697 13.3398C29.0497 14.3498 32.8997 18.0099 34.9697 16.9499H34.9597Z" fill="#E29520"/>
<path d="M36.6503 15.9199C36.6503 15.9199 36.5903 15.8899 36.5703 15.8799L36.6503 15.9099V15.9199Z" fill="#E18525"/>
<path d="M33.2801 13.0898C34.1101 13.8698 35.6001 15.5198 36.5701 15.8798C34.4501 13.7398 33.1601 9.59984 29.8701 8.33984C30.9301 9.94984 31.8501 11.6898 33.2801 13.0898Z" fill="#E18525"/>
<path d="M26.17 15.6199C28.04 16.3799 31.73 18.4299 33.72 17.9799L33.55 17.7299C31.3 16.8099 28.51 15.2099 26.17 15.6199Z" fill="#E29520"/>
<path d="M25.0205 21.3199C26.4105 21.2499 28.1005 19.7699 29.5305 19.3599C30.4505 19.0999 32.1705 18.8999 32.7205 18.6699L32.8105 18.4399C30.5805 18.3499 25.8305 18.6699 25.0205 21.3299V21.3199Z" fill="#E29520"/>
<path d="M24.9601 25.9101C26.4701 25.5301 28.2401 23.4401 29.4001 22.3801C30.1701 21.6101 31.7801 20.5401 32.0401 19.4701L32.2001 19.0801C31.3901 19.2901 30.0201 20.6401 29.1301 21.2701C27.6701 22.4001 25.1901 23.8301 24.9701 25.9101H24.9601Z" fill="#E29520"/>
<path d="M23.87 33.8898C25.27 32.0198 26.25 29.6099 27.58 27.6999C28.48 26.1699 29.69 24.7599 30.2 23.0599L30.5 22.0999C29.69 24.3099 27.8 25.1599 26.34 26.7399C24.91 28.2399 23.19 31.7899 23.87 33.8799V33.8898Z" fill="#E29520"/>
<path d="M29.7301 25.3201C29.4801 27.0301 28.5501 28.6401 28.2301 30.3201C27.7101 32.9201 28.8701 35.8401 30.3501 37.9801C28.8801 34.0301 30.2801 29.0701 29.7301 25.3101V25.3201Z" fill="#DAAB2F"/>
<path d="M30.0596 28.27L30.2296 28.97C31.8296 31.26 33.1996 33.9 35.3796 35.88C34.3196 34.27 33.9796 32.22 32.9096 30.61C32.3296 29.83 30.2096 28.78 30.0596 28.27Z" fill="#E29520"/>
<path d="M30.1797 24.4199C30.1697 24.5399 30.2397 24.6799 30.3597 24.8399L30.1797 24.4199Z" fill="#E18525"/>
<path d="M30.3604 24.8501V24.8701C30.7404 27.2801 33.0904 29.9701 34.9704 31.5601C34.1404 30.0401 33.5104 28.2401 32.5504 26.8501C32.1804 26.3401 30.8404 25.4901 30.3604 24.8601V24.8501Z" fill="#E18525"/>
<path d="M33.7604 26.9701C33.2204 24.7601 32.3804 22.6001 31.4704 20.6001L31.3604 20.6401C30.9604 22.7401 31.8704 25.8301 33.7604 26.9701Z" fill="#E18525"/>
<path d="M33.0198 18.5999C33.3898 21.0199 33.8398 23.4599 34.3598 25.9499C34.5898 24.4999 34.9298 23.0099 34.8898 21.5499C34.8198 20.6199 34.8298 19.7099 34.3498 18.8799C34.2098 18.5499 33.6098 18.0299 33.5598 17.9199L33.0098 18.5999H33.0198Z" fill="#E29520"/>
<path d="M35.7401 20.8101C35.3301 22.9101 34.7401 25.0201 34.4901 27.1801C34.8801 24.8901 36.32 22.4901 37.16 20.2101C37.72 18.6301 38.7001 16.6701 38.2401 15.5801L37.6301 15.9601C36.3301 17.1501 36.0701 19.1201 35.7401 20.8101Z" fill="#E18525"/>
<path d="M40.21 15.6599C40.18 15.7299 40.3 15.6699 40.21 15.6599V15.6599Z" fill="#E29520"/>
<path d="M35.6796 16.8798C36.9896 16.1698 38.6897 15.4398 40.2097 15.6498C42.0397 15.9198 44.1896 16.9298 45.8196 17.8498C47.2796 18.6798 48.2497 19.4698 49.5797 20.4798C49.7597 20.6198 50.3496 19.5798 50.1696 19.4398C48.7696 18.3798 47.1196 17.4198 45.5096 16.7398C43.8196 16.0298 42.0297 15.5498 40.2097 15.2898C40.1097 15.2798 40.1397 15.1998 40.1097 15.2798C38.5597 15.0798 36.8696 15.7998 35.5396 16.5498C34.1196 17.3498 32.6996 18.3798 31.7596 19.7298C29.2796 23.2598 29.4696 27.5498 29.9996 31.6298C30.0296 31.8598 30.3797 31.8098 30.3597 31.5798C29.8497 27.6998 29.5897 23.4498 31.9697 20.0698C32.9097 18.7398 34.2597 17.6498 35.6897 16.8798H35.6796Z" fill="#E29520"/>
<path d="M30.0604 30.74L29.9404 31.16C30.0604 32.93 30.6104 34.46 31.0604 36.01C31.5404 37.93 31.4704 41.88 33.7804 42.65C33.2304 40.44 32.6204 38.19 32.1804 35.93C31.9004 34.63 31.1904 31.29 30.0604 30.74Z" fill="#DAAB2F"/>
<path d="M58.4201 33.04C58.2901 31.79 56.9601 31.04 55.5101 30.76C56.5401 30.02 57.2401 28.9 56.6901 27.49C56.3701 26.67 55.4701 26.3 54.4701 26.24C54.8601 25.65 55.0101 24.94 54.6901 24.12C54.4001 23.37 53.5801 23.03 52.6601 22.97C52.7001 22.77 52.7201 22.55 52.6901 22.31C52.6101 21.58 51.9101 21.11 51.0801 20.88C51.2501 20.68 51.3801 20.42 51.4301 20.09C51.5701 19.2 50.4901 18.48 49.5101 18.24C48.3801 17.76 46.3901 18.31 46.4901 19.69C46.5401 20.35 47.2001 20.84 47.8701 21.13C46.9901 21.62 46.3501 22.46 46.6901 23.41C46.9201 24.07 47.6501 24.43 48.4101 24.61C47.7701 25.4 47.5001 26.39 48.0901 27.25C48.4501 27.78 49.0901 28.01 49.7801 28.09C49.1101 28.95 48.8401 30 49.4701 30.93C49.7201 31.3 50.1001 31.54 50.5301 31.68C49.5701 32.42 48.9901 33.48 49.4101 34.66C49.5001 34.91 49.6401 35.13 49.8101 35.33C47.9201 36.04 46.3401 37.69 47.0201 39.59C47.7401 41.62 51.1701 42.01 52.8201 41.84C55.0601 41.61 57.5401 40.39 57.2501 37.7C57.1801 37.1 56.8701 36.59 56.4001 36.2C57.6301 35.66 58.5801 34.66 58.4101 33.06L58.4201 33.04Z" fill="#9A671C"/>
<path d="M58.4201 33.04C58.3901 32.75 58.2901 32.49 58.1501 32.25C58.1501 32.25 58.1501 32.26 58.1501 32.27C57.9901 33.22 56.96 33.63 56.16 33.92C55.54 34.14 51.3501 35.3 51.8401 33.37C52.1801 32.02 54.5501 30.69 55.9201 30.86C55.7901 30.82 55.6501 30.79 55.5101 30.76C56.5401 30.02 57.24 28.9 56.69 27.49C56.37 26.67 55.47 26.3 54.47 26.24C54.86 25.65 55.01 24.94 54.69 24.12C54.66 24.04 54.62 23.96 54.57 23.89C54.22 24.37 53.4401 24.86 53.2001 24.99C52.7001 25.25 52.1101 25.56 51.5301 25.57C51.1401 25.57 50.7301 25.3 50.8101 24.86C50.9701 23.9 52.4501 23.2 53.3301 23.12C53.4501 23.11 53.5401 23.16 53.6101 23.23C53.6301 23.22 53.66 23.21 53.69 23.19C53.38 23.07 53.0401 23 52.6701 22.98C52.7101 22.78 52.7301 22.56 52.7001 22.32C52.6701 21.99 52.5 21.71 52.25 21.49C52.25 21.52 52.26 21.54 52.25 21.57C52.58 21.9 52.3901 22.5 52.0601 22.84C51.5101 23.41 50.6701 23.84 49.8701 23.92C49.2701 23.98 48.54 23.55 48.6 22.86C48.7 21.71 50.5601 20.9 51.7101 21.14C51.5201 21.05 51.3101 20.97 51.0901 20.91C51.2601 20.71 51.39 20.45 51.44 20.12C51.44 20.08 51.44 20.05 51.44 20.01C51 20.53 50.1501 20.7 49.5301 20.75C48.8401 20.81 47.9601 20.79 47.4901 20.17C47.0301 19.55 47.3701 18.88 47.9801 18.52C48.3401 18.31 48.7501 18.19 49.1501 18.15C48.0001 17.9 46.4101 18.47 46.5001 19.71C46.5501 20.37 47.2101 20.86 47.8801 21.15C47.0001 21.64 46.3601 22.48 46.7001 23.43C46.9301 24.09 47.6601 24.45 48.4201 24.63C47.7801 25.42 47.5101 26.41 48.1001 27.27C48.4601 27.8 49.1 28.03 49.7901 28.11C49.12 28.97 48.8501 30.02 49.4801 30.95C49.7301 31.32 50.11 31.56 50.5401 31.7C49.58 32.44 49.0001 33.5 49.4201 34.68C49.5101 34.93 49.65 35.15 49.82 35.35C47.93 36.06 46.3501 37.71 47.0301 39.61C47.7501 41.64 51.1801 42.03 52.8301 41.86C55.0701 41.63 57.5501 40.41 57.2601 37.72C57.1901 37.12 56.88 36.61 56.41 36.22C57.64 35.68 58.5901 34.68 58.4201 33.08V33.04ZM52.0601 27.77C52.7901 27.33 53.6301 26.94 54.4901 26.96C54.6301 26.95 54.76 26.94 54.88 26.96C55.51 27.01 56.1601 27.43 56.1501 28.14C56.1501 28.85 55.5301 29.35 54.9501 29.67C54.0301 30.16 51.0101 31.37 50.5801 29.69C50.3701 28.89 51.5201 28.11 52.0601 27.78V27.77ZM56.8301 38.18C56.6101 39.88 52.7501 40 51.6101 39.92C50.7401 39.86 49.2001 39.69 48.8001 38.73C48.5201 38.07 48.7301 37.44 49.3901 37.08C51.0501 36.16 53.6001 35.55 55.4201 36.43C56.2901 36.63 56.9701 37.1 56.8301 38.18Z" fill="#77530A"/>
<path d="M52.66 36.91C51.95 37.06 50.3901 37.89 51.6201 38.49C52.4601 38.9 53.83 38.58 54.66 38.29C55.03 38.16 55.59 37.99 55.69 37.56C55.81 37.05 55.3401 36.89 54.7801 36.81C54.0101 36.69 53.37 36.77 52.66 36.91Z" fill="#B27728"/>
<path d="M53.6401 28.98C54.2301 29.02 55.0701 28.81 55.4901 28.33C55.9401 27.83 55.5901 27.33 54.8101 27.34C53.5901 27.32 51.8101 28.85 53.6401 28.97V28.98Z" fill="#B27728"/>
<path d="M48.6103 25.53C47.1403 28.76 43.4603 32.01 43.2003 36.11C44.4703 34.24 45.9003 32.48 46.8503 30.32C47.3703 29.08 48.5403 26.73 48.6203 25.53H48.6103Z" fill="#E19525"/>
<path d="M50.9404 30.1201C51.9404 31.9301 54.8204 34.64 57.0204 34.61C55.6504 32.71 53.6504 31.0601 52.2204 29.2301C51.0304 27.9101 50.0404 26.3401 48.5804 25.3401L48.5304 25.3C48.5304 25.31 48.5304 25.3301 48.5404 25.3401C48.5404 25.3401 48.5504 25.3901 48.5504 25.4201C48.5504 25.4401 48.5504 25.4601 48.5504 25.4801C49.7304 26.8301 50.0604 28.5301 50.9504 30.1001L50.9404 30.1201Z" fill="#E2AB20"/>
<path d="M50.9804 37.7701C48.9504 34.0801 49.6003 28.9701 48.5103 25.3301C48.5103 27.0601 47.8303 28.7901 47.7603 30.5001C47.6303 33.1501 49.2004 35.8601 50.9804 37.7701Z" fill="#DAC52F"/>
<path d="M39.6204 28.22C44.1704 27.26 43.8804 26.28 48.2204 23.51C47.0104 23.93 45.2604 24.49 43.9104 25.14C42.7504 25.74 40.0104 26.85 39.6204 28.23V28.22Z" fill="#DAC52F"/>
<path d="M38.4803 22.4701C37.3303 22.6501 35.0404 22.4801 34.1104 23.2201C36.5204 24.3601 40.2704 24.5001 42.8904 24.3001C44.1904 24.2501 47.3703 24.2601 48.2303 23.0701C46.0403 22.0701 44.3804 22.2201 42.4904 22.2301C41.1904 22.2901 39.8104 22.3201 38.4904 22.4601L38.4803 22.4701Z" fill="#E2AB20"/>
<path d="M35.25 17.29C36.1 19.28 40.91 20.43 42.88 20.87C44.52 21.23 46.84 21.23 48.3 21.98L47.86 21.63C48 20.2 36.84 17.48 35.25 17.3V17.29Z" fill="#DAC52F"/>
<path d="M48.3907 22.8902C49.9007 24.2502 52.2607 25.2002 54.1207 25.7002C55.9907 26.2002 60.5707 27.2102 62.0807 25.8202C57.4107 24.7902 52.3607 23.1602 47.9307 22.1802L48.3807 22.8802L48.3907 22.8902Z" fill="#E2AB20"/>
<path d="M48.7801 21.39C48.7301 21.32 48.6801 21.25 48.6401 21.17L48.3301 21.02C48.4401 21.16 48.5901 21.28 48.7801 21.39Z" fill="#DAC52F"/>
<path d="M56.9604 23.5201C59.9204 23.7401 64.3804 23.7801 65.9304 20.6101C62.4104 21.3801 58.7904 22.2101 55.2604 22.2901C53.8804 22.2901 50.2704 22.2701 48.7804 21.3901C50.0504 23.0501 55.1904 23.3801 56.9704 23.5301L56.9604 23.5201Z" fill="#DAC52F"/>
<path d="M48.1204 20.4801L48.4504 20.5501C50.1704 21.7001 53.5104 21.7601 55.6004 21.6101C57.6904 21.4701 62.5404 20.9101 63.6004 18.8301C60.9404 19.6101 57.6904 19.1601 54.8704 19.4801C52.6604 19.7701 50.1904 20.0801 48.1204 20.4801Z" fill="#E19525"/>
<path d="M53.8507 17.5199C52.2407 17.5299 50.1607 18.6299 48.8507 18.6099L48.4707 19.1699C49.9807 18.4399 53.2007 18.7899 54.9307 18.7299C56.1307 18.5999 57.2207 18.6899 58.3507 18.3299C59.4007 18.1199 59.9007 17.5299 60.7707 17.1299C59.0307 18.1199 55.8107 17.3999 53.8607 17.5199H53.8507Z" fill="#E19525"/>
<path d="M37.8604 15.1301C38.8004 17.2201 42.3303 18.0401 44.2603 18.7801C45.3503 19.1101 47.5403 20.2701 48.6303 19.5901L48.7104 19.3401C47.6204 19.6801 45.6803 18.3501 44.5903 17.9401C42.4903 17.0301 40.1304 15.6201 37.8604 15.1301Z" fill="#DAC52F"/>
<path d="M39.7003 13.8101C40.4303 16.6801 46.0403 18.1201 48.5303 19.0501L48.4803 18.6301C47.4203 18.3501 46.4703 16.8701 45.3803 16.3401C43.5603 15.4001 41.5803 14.5701 39.7003 13.8101Z" fill="#DAC52F"/>
<path d="M41.54 30.4901C43.95 30.0801 47.9601 27.87 48.5201 25.33L48.01 25.3C46.07 25.9 42.19 28.3101 41.54 30.4801V30.4901Z" fill="#E2AB20"/>
<path d="M49.1401 26.7202C49.1401 26.7202 49.1201 26.7802 49.1201 26.8102L49.1401 26.7302V26.7202Z" fill="#E19525"/>
<path d="M48.5204 25.3002L49.0004 25.8402C50.3904 26.9202 52.3804 26.8402 54.1004 26.8802C56.2304 26.9202 58.4204 27.1502 60.6004 27.0302C58.2804 27.0302 55.6704 26.0202 53.2704 25.5802C51.6204 25.3002 49.5204 24.6702 48.5204 25.3002Z" fill="#E19525"/>
<path d="M48.2803 23.2601C48.2803 23.1601 48.3503 23.2701 48.2803 23.2601V23.2601Z" fill="#E2AB20"/>
<path d="M48.3803 18.2102C48.0203 19.8802 47.8803 21.6102 47.9203 23.3202C47.9203 23.4202 47.8403 23.4102 47.9203 23.4202C47.9603 24.2402 48.2503 25.0602 48.6603 25.8202C48.5903 25.4002 48.5503 24.9802 48.5303 24.5602C48.3903 24.1302 48.2903 23.7002 48.2703 23.2602C48.2303 21.6802 48.6803 19.7902 49.2103 18.1702L48.3703 18.2102H48.3803Z" fill="#E2AB20"/>
<path opacity="0.64" d="M16.8603 36.78C16.7003 36.79 14.5503 36.88 13.8203 36.88L13.0003 35.89C12.5603 35.55 11.8603 35.4 11.0203 35.18C10.1203 34.94 9.02034 34.26 9.02034 34.26C8.99034 33.72 9.10033 33.07 9.34033 32.51C9.23033 32.54 9.12033 32.57 9.01033 32.61C8.71033 33.29 8.54033 34.2 8.53033 34.62C9.13033 34.82 10.0003 35.13 10.5303 35.5C11.0603 35.88 11.6003 36.63 12.0803 37.13C12.2903 37.35 12.5703 37.93 12.8203 38.08C13.0503 38.22 13.7103 38.15 13.9803 38.17C14.6903 38.2 15.6703 38.01 16.2703 38.39L16.3403 38.61C17.4203 38.72 18.5903 37.48 19.6503 37.33C19.6903 37 17.8503 36.62 16.8803 36.79L16.8603 36.78Z" fill="#742204"/>
<path opacity="0.64" d="M76.4104 46.22C75.3904 45.97 74.3504 45.77 73.4004 45.53C71.2104 44.98 69.0704 44.18 66.9804 43.31C64.7904 42.4 62.5204 43.31 60.3204 43.9C59.2104 44.19 58.0904 44.51 57.0104 44.79C55.9404 45.07 55.5304 44.89 54.3904 44.52C52.3204 43.85 50.2604 43.89 48.1004 43.9C47.8904 44.5 47.3104 43.76 46.8704 44.46C48.9704 44.63 49.9704 45.28 52.0604 44.98C54.1004 44.69 54.8704 46.14 56.9404 46.46C58.0804 46.64 60.9104 45.86 62.0404 46.16C63.0604 46.43 64.2504 44.72 65.2404 44.9C67.5804 45.32 69.6404 46.12 72.0204 46.77C73.0604 47.06 74.4704 47.39 75.6304 48.01C75.9204 47.51 76.1904 46.92 76.4204 46.23L76.4104 46.22Z" fill="#742204"/>
<path opacity="0.64" d="M42.9799 58.9602C41.9099 57.2302 38.7299 54.9602 37.1999 54.8302C37.0799 54.2502 36.7799 53.4802 36.4599 52.9302C36.2399 52.5402 35.4299 51.6102 35.4999 51.9102L35.3799 52.0302C35.8399 52.9102 35.8199 54.1102 35.8999 55.2202C37.6299 56.1302 39.8399 57.4702 41.3499 59.0802C41.8899 59.0302 42.4399 58.9902 42.9799 58.9602Z" fill="#742204"/>
<path d="M5.70037 34.1299C6.37037 33.6099 7.15036 33.31 7.90036 32.95C4.75036 34.14 2.70037 36.1299 2.23037 37.3999C1.79037 38.5999 5.43037 38.33 5.86037 39.34C5.98037 39.31 6.10037 39.2699 6.22037 39.2199C7.47037 38.6999 5.29037 38.0399 5.05037 37.9899C4.56037 37.9099 4.08037 37.8599 3.58037 37.8499C3.11037 37.8499 2.93037 37.3099 3.22037 36.9699C4.03037 36.0099 4.70037 34.8899 5.70037 34.1099V34.1299Z" fill="#FFA785"/>
<path d="M76.88 42.0898C76.88 42.0898 76.63 44.0198 76.38 45.2798C76.13 46.5398 75 49.1898 72.75 50.0798C70.96 50.7898 65.31 52.1998 63.79 53.7998C64.58 54.7398 65.28 55.7398 65.64 56.9598C65.72 56.9898 65.79 57.0298 65.85 57.0598C66.25 55.2098 64.48 53.7998 64.48 53.7998C64.48 53.7998 71.6101 50.9998 74.2401 49.6898C74.7701 49.4198 77.2801 46.5298 76.8701 42.0998L76.88 42.0898Z" fill="#FFA785"/>
<path d="M21.1403 55C23.4203 55.42 28.4203 59.46 29.4503 59.67C31.5303 60.09 34.0803 59.1 36.0003 59.55C37.4903 59.23 39.0003 59.13 40.5203 59.16C45.0103 58.68 49.5603 58.76 53.8903 59.98C54.0303 59.84 54.1703 59.69 54.3203 59.55C56.1103 57.8 58.4703 55.83 58.7003 56.21C58.7003 56.21 62.8503 56.19 65.0103 56.76C63.0403 55.91 58.1404 55.68 57.8104 55.92C56.8504 56.62 55.3703 58.04 54.5003 58.89C54.3903 59.1 54.2704 59.3 54.1504 59.51C52.8304 59.21 51.5003 58.91 50.1603 58.71C47.9203 58.37 45.1503 57.97 42.8903 58.04C38.4403 58.17 34.3903 59.05 29.9503 59.25C29.7803 59.25 24.9403 56.22 22.8804 54.87C21.5004 53.97 20.9603 54.48 19.4403 55.25C18.6603 55.65 17.6703 56.25 16.8303 56.51C16.7103 56.55 15.0003 56.17 14.4503 55.93C13.2603 55.71 8.74034 53.44 7.39034 53.03C6.21034 52.67 6.04035 51.94 6.21035 51.04C6.40035 50.06 7.09034 50.01 5.98034 49.52C5.05034 49.11 4.23034 48.67 3.39034 48.11C2.32034 47.4 1.63034 46.39 1.03034 45.28C0.320343 43.97 0.0903428 42.46 0.670343 41.22C0.400343 41.4 0.180348 41.6 0.0503477 41.81C0.0503477 41.81 -0.939655 47.67 5.86035 50.51L5.69035 52.62C6.81035 53.38 8.68035 54.27 10.6004 55.05C10.7503 55.11 11.1303 55.26 11.1803 55.28C13.7803 56.31 16.3303 57.1 17.0603 57.07C17.0603 57.07 20.7003 54.94 21.1403 55.02V55Z" fill="#FFA785"/>
<path opacity="0.64" d="M5.87033 50.5C5.87033 50.5 6.82034 50.42 7.30034 50.33C8.00034 50.2 9.65033 49.23 9.65033 49.23C9.95033 49.11 10.3403 48.76 10.9103 48.67C10.8203 48.36 11.0803 47.94 10.8303 47.75C9.91034 48.19 8.67034 49.24 7.80034 48.93C7.80034 48.93 6.90034 50.28 4.66034 49.93C5.03034 50.13 5.43033 50.33 5.87033 50.51V50.5Z" fill="#742204"/>
<path d="M41.5397 38.9599C41.5397 38.9599 36.9197 35.3999 28.1597 36.1499C26.5697 36.2899 24.9597 36.5499 23.3697 36.6599C20.2397 36.8899 19.0297 36.7199 18.2097 36.9399C16.7497 37.3399 16.5597 38.2099 15.0997 38.6199C14.2097 38.8699 13.1397 38.7399 12.2697 39.0399C10.8797 39.1599 8.41974 40.58 8.48974 41.81C9.82974 41.22 13.1297 40.2399 14.6297 40.1599C15.2197 39.9399 15.8097 39.7499 16.4097 39.5999C18.2597 39.1499 20.1197 38.7799 21.9997 38.4799C25.4697 37.9399 28.9397 37.8599 32.4197 38.3299C35.2997 38.7099 38.5597 39.2599 41.2497 40.3699C41.8597 40.6199 47.7997 43.32 47.4297 42.45C46.1197 39.33 43.6397 39.17 41.5497 38.95L41.5397 38.9599Z" fill="#FFA785"/>
<path d="M48.31 44C48.31 44 47.91 40.4901 42.98 39.6701C42.8 39.6401 40.9101 39.13 40.9101 39C40.9101 38.86 37.1601 36.7501 31.1601 36.5701C29.6301 36.5201 25.39 36.9101 23.12 37.1301C22.31 37.2101 21.76 37.2601 21.67 37.2601L19.4601 37.3001C17.4401 37.4101 15.76 38.9101 15.73 38.9101C14.89 39.0001 14.7901 38.95 12.3301 39.5C10.1801 39.98 8.77004 41.12 8.48004 41.8C8.23004 42.39 10.4201 42.2101 10.4401 42.7901C10.4401 42.7901 7.78004 43.1801 7.32004 43.8501C7.32004 43.8501 6.79005 46.5801 10.42 47.9001L10.3301 48.8801C11.8001 49.7501 15.68 50.9701 16.39 50.9501C16.39 50.9501 18.33 49.96 18.57 50C19.79 50.19 22.45 52.0701 23 52.1701C24.1101 52.3601 25.4701 51.9 26.4901 52.11C27.2801 51.96 28.09 51.9101 28.9 51.9301C31.29 51.7101 33.72 51.7401 36.03 52.3101C37 51.4501 38.4601 50.3601 38.6001 50.5601C38.6001 50.5601 41.5501 50.5501 42.4101 50.9601C42.6201 50.1001 41.68 49.44 41.68 49.44C41.68 49.44 45.49 48.14 46.89 47.53C47.18 47.41 48.51 46.06 48.29 44H48.31Z" fill="#7A2C0E"/>
<path d="M40.2998 38.6299C39.4898 41.1399 38.8098 43.6799 38.3498 46.2799C38.5898 46.3499 38.8398 46.4099 39.0798 46.4499C39.4898 46.5199 39.9098 46.5599 40.3198 46.5999C40.7498 44.1699 41.0898 41.7199 41.7198 39.3399C41.2798 39.1999 40.8998 39.0699 40.8998 39.0099C40.8998 38.9799 40.6898 38.8399 40.2898 38.6399L40.2998 38.6299Z" fill="#9B2F0E"/>
<path d="M46.91 47.5299C47.2 47.4099 48.53 46.0599 48.31 43.9999C48.31 43.9999 48.0001 41.3999 44.7701 40.1499C44.8001 40.2699 44.8301 40.3899 44.8501 40.5299C44.8901 40.7799 44.85 41.0399 44.75 41.2599C45.59 42.5399 44.72 44.9699 43.79 46.8499C44.86 46.9599 45.91 47.1399 46.9 47.5299H46.91Z" fill="#9B2F0E"/>
<path d="M33.9598 44.4798C34.3798 44.4298 34.8098 44.4998 35.2598 44.6398C35.3598 44.2398 35.4598 43.8398 35.5598 43.4398C35.8698 41.3998 35.8798 39.2898 36.4098 37.2798C35.6298 37.0898 34.7598 36.9198 33.7998 36.7998C33.6598 39.3298 32.9398 41.7098 31.9598 44.0198C32.6398 44.1298 33.3098 44.2698 33.9598 44.4898V44.4798Z" fill="#9B2F0E"/>
<path d="M26.81 43.7399C26.99 41.3199 27.5801 38.8099 28.7101 36.6699C26.8601 36.7899 24.59 36.9999 23.14 37.1399C22.67 37.1799 22.29 37.2199 22.04 37.2399C22.9 39.2999 22.85 41.8199 22.23 44.0199C23.77 43.8399 25.31 43.7599 26.81 43.7399Z" fill="#9B2F0E"/>
<path d="M12.4598 47C11.8298 44.63 11.3498 42.2 11.4898 39.76C9.81981 40.31 8.73981 41.23 8.48981 41.82C8.23981 42.41 10.4298 42.23 10.4498 42.81C10.4498 42.81 7.78981 43.2 7.32981 43.87C7.32981 43.87 6.7998 46.6 10.4298 47.92L10.3898 48.39C11.0398 47.88 11.7398 47.42 12.4598 47Z" fill="#9B2F0E"/>
<path d="M15.2098 45.1999C15.9998 44.7599 16.7898 44.5299 17.6298 44.5699C18.0598 42.1699 18.6298 39.7899 18.9698 37.3699C17.1798 37.6699 15.7598 38.9199 15.7398 38.9299C15.3598 38.9699 15.1298 38.9899 14.7698 39.0399C14.7398 41.0899 14.6298 43.2299 15.1998 45.2099L15.2098 45.1999Z" fill="#9B2F0E"/>
<path d="M45.5502 46.7598C45.7502 46.8498 45.9402 46.9598 46.1102 47.0898C46.4502 47.1698 46.7702 47.2697 47.0802 47.4097C47.5302 47.0197 48.5001 45.7797 48.3102 43.9997C48.3102 43.9997 47.9101 40.4898 42.9801 39.6698C42.8601 39.6498 42.0201 39.4297 41.4501 39.2397C40.3301 41.6897 40.0702 44.3797 39.6602 47.0197C40.5702 46.7297 41.5602 46.4697 42.5302 46.3597C42.2602 45.2797 42.5002 43.9597 42.9602 43.0497C43.3702 42.2297 44.2902 40.7398 45.4102 41.4798C46.2502 42.0398 46.2002 43.3397 46.1102 44.2197C46.0302 45.0597 45.8902 45.9497 45.5502 46.7397V46.7598Z" fill="url(#paint17_linear_303_70684)"/>
<path d="M35.4001 44.2297C35.5301 44.2897 35.6401 44.3597 35.7501 44.4197C36.0801 44.5897 36.4101 44.7497 36.7401 44.9197C36.8001 44.9497 36.8301 44.9897 36.8801 45.0297C36.9701 44.3497 37.1301 43.6897 37.3001 43.0797C37.7501 41.4397 38.3201 39.6497 39.2701 38.1697C38.2301 37.7597 36.7201 37.2797 34.8301 36.9497C35.1301 39.2797 35.3201 41.6497 35.0401 43.9697C35.1901 44.0297 35.3101 44.1197 35.4001 44.2297Z" fill="url(#paint18_linear_303_70684)"/>
<path d="M23.1298 37.1398C22.8498 37.1698 22.5998 37.1898 22.3898 37.2098C23.1098 39.3898 23.2998 41.7298 23.2698 44.0398C25.7598 43.6898 28.2698 43.3098 30.7598 43.3598C31.1998 41.0298 31.9598 38.7898 33.1398 36.7098C32.5098 36.6398 31.8498 36.5998 31.1598 36.5698C30.8898 36.5698 30.5198 36.5698 30.0998 36.5798C29.8698 38.5798 29.4498 41.7298 27.4598 41.5498C27.2898 41.5298 27.1398 41.4198 27.1398 41.2298C27.1498 39.6798 27.2898 38.1898 27.6298 36.7298C26.0298 36.8498 24.3098 37.0098 23.1198 37.1198L23.1298 37.1398Z" fill="url(#paint19_linear_303_70684)"/>
<path d="M13.1593 45.7997C13.8193 45.4897 14.5193 45.2597 15.2493 45.0797C15.2593 43.0497 15.5593 41.0097 15.4293 38.9697C14.8493 39.0297 14.4793 39.0597 12.5693 39.4797C12.9393 40.4197 13.0593 41.3697 13.0193 42.4897C12.9793 43.6097 13.0493 44.7097 13.1693 45.7997H13.1593Z" fill="url(#paint20_linear_303_70684)"/>
<path d="M16.6098 44.7998C17.3498 44.6798 18.0998 44.5998 18.8498 44.5398C19.0598 42.0298 19.8598 39.4698 20.9398 37.2898L19.4798 37.3198C18.4298 37.3798 17.4798 37.8098 16.7998 38.2098C16.3598 40.3698 16.6098 42.5898 16.6198 44.7998H16.6098Z" fill="url(#paint21_linear_303_70684)"/>
<path d="M11.3898 46.9398C11.2598 46.5598 11.1698 46.1598 11.0998 45.7598C10.9798 45.1098 10.9898 43.7098 10.4398 43.2698C10.3598 43.1998 10.3198 43.0598 10.3598 42.9598C10.3698 42.9198 10.3398 42.8798 10.2798 42.8398C9.69981 42.9398 7.71981 43.2998 7.32981 43.8698C7.32981 43.8698 6.7998 46.5998 10.4298 47.9198V48.0098C10.7098 47.6098 11.0398 47.2598 11.3898 46.9498V46.9398Z" fill="url(#paint22_linear_303_70684)"/>
<path d="M18.8996 40.2901C18.6196 39.1601 18.9696 38.2001 19.6296 37.3101H19.4696C18.1496 37.3901 16.9696 38.0501 16.3096 38.5101C16.5796 39.3701 16.9696 40.3101 17.1296 41.1801C17.3096 42.1501 16.9696 43.1901 16.8396 44.1301H16.7696C16.8996 44.4901 18.1396 44.35 18.5996 44.64C18.7096 43.15 19.2396 41.65 18.9096 40.3L18.8996 40.2901Z" fill="#491201"/>
<path d="M37.0405 37.4298C36.1705 37.1898 35.1705 36.9798 34.0405 36.8198C34.0105 38.5298 34.0405 42.8598 34.5005 44.1498C34.7605 44.1198 35.0605 43.7598 35.5805 43.9798C35.9905 41.4698 34.7405 39.0898 37.0305 37.4398L37.0405 37.4298Z" fill="#491201"/>
<path d="M47.5307 46.9101C47.2207 46.7101 46.9107 46.5201 46.5907 46.3301C44.4907 45.6001 42.4308 45.6501 39.9908 46.0401C39.8408 46.0601 39.7108 46.0301 39.6308 45.8901C38.2008 43.6401 35.1307 43.1401 32.6707 42.9501C30.3207 42.7701 27.9607 42.8601 25.6107 42.8701C25.5607 42.8701 25.5107 42.8501 25.4707 42.8301C23.5507 42.8701 21.5907 43.4401 19.7307 43.8701C17.9407 44.2801 16.3307 43.3601 14.5607 44.2001C12.8007 45.0401 11.0307 46.1201 9.76074 47.6301C9.97074 47.7301 10.1907 47.8301 10.4307 47.9101L10.3407 48.8901C11.8107 49.7601 15.6907 50.9801 16.4007 50.9601C16.4007 50.9601 18.3407 49.9701 18.5807 50.0101C19.8007 50.2001 22.4607 52.0801 23.0107 52.1801C24.1207 52.3701 25.4807 51.9101 26.5007 52.1201C27.2907 51.9701 28.1008 51.9201 28.9108 51.9401C31.3008 51.7201 33.7307 51.7501 36.0407 52.3201C37.0107 51.4601 38.4707 50.3701 38.6107 50.5701C38.6107 50.5701 41.5607 50.5601 42.4207 50.9701C42.6307 50.1101 41.6908 49.4501 41.6908 49.4501C41.6908 49.4501 45.5007 48.1501 46.9007 47.5401C47.0107 47.4901 47.2608 47.2801 47.5208 46.9201L47.5307 46.9101Z" fill="#067682"/>
<path d="M13.7108 50.28C14.9308 50.68 16.0608 50.97 16.4108 50.96C16.4108 50.96 17.0607 50.63 17.6507 50.36C17.2007 50.32 16.9807 50.23 16.5407 50.43C15.7307 50.79 13.7108 50.28 13.7108 50.28Z" fill="#025D66"/>
<path d="M29.361 51.2401C27.591 51.3001 25.831 51.7401 24.041 51.5201C22.641 51.3401 21.331 50.8501 19.991 50.5601C21.221 51.1801 22.641 52.1201 23.021 52.1801C24.131 52.3701 25.491 51.9101 26.511 52.1201C27.301 51.9701 28.111 51.92 28.921 51.94C31.311 51.72 33.741 51.7501 36.051 52.3201C36.711 51.7401 37.581 51.0601 38.131 50.7401C37.291 51.0201 36.461 51.3601 35.571 51.4601C33.491 51.6901 31.431 51.3801 29.361 51.2401Z" fill="#025D66"/>
<path d="M39.9908 46.0401C39.8408 46.0601 39.7108 46.0301 39.6308 45.8901C38.2008 43.6401 35.1307 43.1401 32.6707 42.9501C30.3207 42.7701 27.9607 42.8601 25.6107 42.8701C25.5607 42.8701 25.5107 42.8501 25.4707 42.8301C23.5507 42.8701 21.5907 43.4401 19.7307 43.8701C17.9407 44.2801 16.3307 43.3601 14.5607 44.2001C12.8007 45.0401 11.0307 46.1201 9.76074 47.6301C9.93074 47.7101 10.1108 47.7901 10.3008 47.8601C11.4808 46.6901 13.1908 45.9201 14.7108 45.5701C16.3408 45.1901 17.7207 45.4801 19.3607 45.5601C21.2307 45.6501 22.7708 44.7101 24.6908 44.9401C28.7308 45.4201 33.1507 42.9001 36.7007 45.7801C37.9207 46.7701 39.0007 47.7301 40.6908 47.4201C41.5208 47.2701 42.3507 47.0601 43.1908 46.9401C44.5308 46.7401 45.9808 46.5901 47.1608 47.3501C47.2708 47.2501 47.4007 47.1001 47.5307 46.9301C47.2207 46.7301 46.9107 46.5401 46.5907 46.3501C44.4907 45.6201 42.4308 45.6701 39.9908 46.0601V46.0401Z" fill="#025D66"/>
<path d="M37.7404 47.39C37.3904 47.14 37.0604 46.89 36.7404 46.65C36.4804 46.57 36.2204 46.48 35.9504 46.4C34.3704 45.92 32.5904 45.76 30.9004 45.97C31.9104 46.08 32.9004 46.29 33.8804 46.66C35.3504 47.21 36.4004 48.72 37.9804 49.03C39.5604 49.34 41.6604 48.16 43.1404 48.94C43.7704 48.72 44.5204 48.45 45.2204 48.19C44.3504 47.98 43.4704 47.81 42.6004 47.83C42.3004 47.83 42.0104 47.84 41.7404 47.83C40.3404 48.12 38.9604 48.27 37.7404 47.38V47.39Z" fill="#025D66"/>
<path d="M25.6504 45.63C24.4704 45.79 23.3004 45.96 22.1204 46.1C18.2404 46.58 14.5304 46.22 11.9404 49.64C12.0704 49.69 12.1904 49.74 12.3304 49.79C13.9404 48.1 15.6504 46.6 18.2504 46.64C20.4104 46.67 22.3004 46.85 24.4404 46.34C26.0004 45.97 27.7704 46.2 29.2504 45.64C29.2704 45.64 29.2804 45.64 29.3004 45.64C31.0204 45.15 32.9904 45.1 34.7204 45.44C34.7704 45.44 34.8104 45.46 34.8604 45.47C34.1504 45.15 33.3704 44.95 32.4004 44.98C30.3604 45.05 28.3604 45.63 26.3204 45.65C26.1004 45.65 25.8904 45.65 25.6704 45.63H25.6504Z" fill="#025D66"/>
<path d="M31.0407 47.27C30.0307 47.13 28.9807 47.1801 27.9307 47.2601C26.0207 47.6101 24.0607 47.52 22.1407 47.83C22.5807 48.16 23.1307 48.3601 23.7307 48.4801C25.6407 48.4801 27.5208 47.8801 29.4408 48.1001C29.8507 48.1501 30.2507 48.2401 30.6407 48.3701C31.6207 48.4501 32.6007 48.57 33.5907 48.69C33.3907 48.56 33.2207 48.4001 33.0907 48.2001C32.4307 47.8301 31.8007 47.38 31.0407 47.27Z" fill="#025D66"/>
<path d="M26.1008 49.2102C26.0608 49.2702 26.0008 49.3202 25.9108 49.3302C25.1508 49.4602 24.3908 49.5202 23.6508 49.5202C23.2408 49.5402 22.8308 49.5502 22.4308 49.5202C21.1208 49.6002 19.7908 49.4402 18.7308 48.6502C17.8708 48.4402 17.0008 48.3302 16.0908 48.6202C15.5908 48.7802 15.1208 48.9702 14.6508 49.1802C14.5508 49.3202 14.4408 49.4502 14.3508 49.5902C15.3708 49.0202 16.4708 48.9702 17.7308 49.3302C19.9708 49.9802 22.1808 50.4502 24.5308 50.4202C26.9108 50.3902 29.2808 49.8302 31.6508 49.9702C31.7908 49.9702 31.9408 49.9902 32.0808 49.9902C31.4308 49.7302 30.7708 49.4802 30.0908 49.2802C29.2008 49.1802 28.3108 49.1202 27.3508 49.1502C26.9608 49.1602 26.5308 49.1802 26.0908 49.1902L26.1008 49.2102Z" fill="#025D66"/>
<path opacity="0.39" d="M39.9908 46.0401C39.8408 46.0601 39.7108 46.0301 39.6308 45.8901C38.2008 43.6401 35.1307 43.1401 32.6707 42.9501C30.3207 42.7701 27.9607 42.8601 25.6107 42.8701C25.5607 42.8701 25.5107 42.8501 25.4707 42.8301C23.5507 42.8701 21.5907 43.4401 19.7307 43.8701C17.9407 44.2801 16.3307 43.3601 14.5607 44.2001C12.8007 45.0401 11.0307 46.1201 9.76074 47.6301C9.94074 47.7101 10.1307 47.7901 10.3307 47.8701C10.8807 46.9601 11.6107 46.1201 12.5707 45.7301C13.5507 45.3401 14.8307 44.7501 15.9007 44.7601C16.7107 44.7601 17.4507 45.1301 18.2607 45.1401C20.4407 45.1801 22.4707 44.2001 24.6407 44.2001C26.8407 44.2001 28.9707 44.2501 31.1807 44.1301C33.1107 44.0301 35.6107 44.2101 37.3107 45.2001C38.0707 45.6501 38.3107 46.4701 39.2907 46.7001C40.0607 46.8801 40.8307 46.9001 41.6207 46.8401C43.5307 46.7001 45.7008 46.2601 47.3508 47.1201C47.4108 47.0601 47.4608 46.9901 47.5208 46.9101C47.2108 46.7101 46.9007 46.5201 46.5807 46.3301C44.4808 45.6001 42.4207 45.6501 39.9807 46.0401H39.9908Z" fill="#39DAE2"/>
<path opacity="0.39" d="M17.9108 46.0101C16.5108 46.1701 15.2107 46.1501 13.9807 46.8201C12.4607 47.7401 11.6108 49.13 11.4608 49.44C11.8408 49.6 12.2507 49.7601 12.6807 49.9201C12.9907 48.9201 13.4808 47.9001 14.4408 47.4301C18.7408 45.3401 21.5708 47.6601 24.3808 45.5601C23.5308 45.6401 22.8807 46 22.0307 46.11C21.2107 46.22 18.2908 46.08 17.9108 46V46.0101Z" fill="#39DAE2"/>
<path opacity="0.39" d="M40.6208 47.9702C39.3008 47.9202 38.2608 47.4602 37.1708 46.7302C35.7408 45.7802 34.2908 45.3402 32.8008 45.1602C31.7408 45.2002 30.7008 45.3902 29.6708 45.6602C30.9908 45.5602 32.3608 45.6402 33.4708 45.9002C35.4508 46.3602 37.1408 47.4002 38.9008 48.3502C40.4008 48.6402 41.3608 48.1302 42.9408 48.1002C43.6208 48.0902 44.1108 48.1702 44.5608 48.4302C44.9408 48.2902 45.3008 48.1602 45.6508 48.0302C43.9908 47.5202 42.4408 48.0302 40.6208 47.9702Z" fill="#39DAE2"/>
<path opacity="0.39" d="M35.0408 48.63C34.0708 48.59 33.6608 48.21 33.2908 47.87C32.7908 47.41 32.3208 47.08 31.4408 47.01C29.6108 46.86 27.9108 47.25 26.2008 47.41C24.6408 47.56 22.3608 47.67 21.0608 47.43C21.5708 47.69 22.4308 48.08 23.1808 48.04C24.8108 48.04 27.8108 47.82 30.0608 47.83C31.2508 47.87 31.7908 48.38 32.5108 48.92C33.3108 49.51 34.5408 49.39 35.5308 49.21C37.5308 48.84 38.6908 49.21 40.7208 49.45C39.5008 48.43 36.0808 48.67 35.0408 48.63Z" fill="#39DAE2"/>
<path opacity="0.39" d="M26.9707 48.96C25.2307 49.06 23.5107 49.42 21.7607 49.41C21.1207 49.41 20.3907 49.43 19.7807 49.26C19.3107 49.13 19.2007 48.87 18.8807 48.55C18.0407 47.67 13.6407 48.29 14.5007 49.62C14.7507 48.74 16.6607 48.61 16.9907 48.57C17.9907 48.44 18.7107 49.27 19.6407 49.55C21.2307 50.02 22.9707 50.04 24.6307 49.87C25.5507 49.78 26.4207 49.56 27.3207 49.42C27.9507 49.32 31.7207 49.79 31.7407 50.25C31.7407 50.21 31.7407 50.17 31.7607 50.13C31.8007 50.21 31.8207 50.25 31.8407 50.33C31.7807 49.66 31.2607 49.6 30.6607 49.41C29.4607 49.04 28.2007 48.88 26.9507 48.95L26.9707 48.96Z" fill="#39DAE2"/>
<path opacity="0.73" d="M12.3008 49.1202C12.4708 49.1202 12.7608 48.1402 14.4708 47.0802C14.9508 46.7802 15.9008 46.4902 16.4708 46.4202C17.0208 46.3602 17.7508 46.3802 17.7508 46.2702C17.7508 46.0702 14.7408 46.1802 13.3708 47.5702C12.5408 48.3202 12.1508 49.1102 12.2908 49.1102L12.3008 49.1202Z" fill="#8FF9F9"/>
<path opacity="0.73" d="M21.4408 46.3302C21.3408 46.5702 22.1908 46.3502 22.3008 46.3302C22.5308 46.2902 22.9208 46.1902 22.8708 46.0902C22.7508 46.0702 21.4308 46.2002 21.4408 46.3302Z" fill="#8FF9F9"/>
<path opacity="0.73" d="M24.1011 49.5301C24.0011 49.7701 24.8511 49.5501 24.9611 49.5301C25.1911 49.4901 25.581 49.3901 25.531 49.2901C25.411 49.2701 24.0911 49.4001 24.1011 49.5301Z" fill="#8FF9F9"/>
<path opacity="0.73" d="M15.2612 48.5602C15.1612 48.8002 16.0112 48.5802 16.1212 48.5602C16.3512 48.5102 16.7412 48.4202 16.6912 48.3202C16.5712 48.3002 15.2512 48.4302 15.2612 48.5602Z" fill="#8FF9F9"/>
<path opacity="0.73" d="M30.2703 43.2001C29.6403 43.1801 25.7503 43.2101 24.5903 43.3601C22.6703 43.6001 20.0503 44.5301 18.6803 44.4501C18.1403 44.4201 17.1003 44.1501 16.6003 44.0801C16.3103 44.0401 14.9803 44.2301 14.9503 44.6001V44.6301C16.7003 43.9801 17.7903 45.0301 19.6103 44.6401C20.6403 44.4201 23.1103 43.9401 24.1403 43.7301C25.8703 43.3801 29.3803 43.5401 30.3903 43.5401C30.6303 43.5401 32.5303 43.8501 32.6703 43.5901C32.6703 43.5901 32.6803 43.5901 32.6903 43.5901C32.6603 43.1401 30.6203 43.2101 30.2803 43.2001H30.2703Z" fill="#8FF9F9"/>
<path opacity="0.73" d="M33.9512 48.85C33.2512 48.74 33.0212 48.4 32.5712 47.87C31.8112 46.96 30.2812 47.16 29.1812 47.27C28.5912 47.33 27.9112 47.39 27.3212 47.45C26.6912 47.51 25.4113 47.58 25.4113 47.75C25.4113 47.87 27.9512 47.67 29.1812 47.61C29.8412 47.57 30.5313 47.49 31.1613 47.58C31.8413 47.68 32.1212 48.16 32.6712 48.56C33.6412 49.26 35.1612 49.36 36.1512 48.85C35.8212 48.79 34.9613 49.02 33.9413 48.86L33.9512 48.85Z" fill="#8FF9F9"/>
<path opacity="0.73" d="M17.9408 48.3201C17.8008 48.3201 17.4908 48.3501 17.7008 48.5201C17.8508 48.6301 18.0308 48.6801 18.2108 48.7301C18.3008 48.7601 18.6208 48.8801 18.7008 48.8001C18.7808 48.7201 18.4508 48.4501 18.3808 48.4301C18.2608 48.3501 18.0708 48.3301 17.9308 48.3201H17.9408Z" fill="#8FF9F9"/>
<path opacity="0.73" d="M35.3808 46.1301C35.2408 46.1301 34.9308 46.1601 35.1508 46.3301C35.3008 46.4501 35.4808 46.4901 35.6608 46.5401C35.7508 46.5701 36.0708 46.6901 36.1508 46.6101C36.2308 46.5301 35.8908 46.2601 35.8308 46.2401C35.7108 46.1701 35.5308 46.1401 35.3808 46.1301Z" fill="#8FF9F9"/>
<path opacity="0.73" d="M38.9908 47.9902C38.8808 48.0002 38.6408 48.0702 38.8308 48.1802C38.9608 48.2502 39.1108 48.2602 39.2608 48.2802C39.3308 48.2802 39.6108 48.3402 39.6608 48.2702C39.7108 48.1902 39.4108 48.0302 39.3608 48.0202C39.2608 47.9802 39.1108 47.9802 38.9908 48.0002V47.9902Z" fill="#8FF9F9"/>
<path opacity="0.73" d="M18.3112 46.2001C18.2412 46.2301 18.0912 46.3101 18.2412 46.3601C18.3412 46.3901 18.4512 46.3801 18.5512 46.3601C18.6012 46.3601 18.8012 46.3601 18.8212 46.2901C18.8412 46.2301 18.6112 46.1501 18.5712 46.1601C18.4912 46.1501 18.3912 46.1601 18.3212 46.2001H18.3112Z" fill="#8FF9F9"/>
<path opacity="0.73" d="M34.8712 43.7902C34.9512 43.7902 35.0412 43.8002 35.1212 43.8102C34.9812 43.7802 34.8812 43.7702 34.8712 43.7902Z" fill="#8FF9F9"/>
<path opacity="0.73" d="M41.1212 46.2201C40.6312 46.3201 40.0512 46.6201 39.5512 46.3401C39.3212 46.2101 39.3012 46.0101 39.1712 45.8101C39.0512 45.6201 38.8612 45.4501 38.7112 45.2701C38.0012 44.4301 36.3912 43.9201 35.1212 43.8201C35.5912 43.9301 36.5912 44.2801 36.7912 44.3701C37.4212 44.6601 37.9712 45.1701 38.3512 45.7501C38.6012 46.1301 38.9012 46.4901 39.3612 46.6301C39.8212 46.7701 40.4312 46.6101 40.9012 46.5701C41.9512 46.4701 42.9912 46.4301 44.0612 46.3401C43.7012 46.1501 43.2112 46.1401 42.7912 46.1601C42.2512 46.1901 41.6412 46.1201 41.1212 46.2301V46.2201Z" fill="#8FF9F9"/>
<g filter="url(#filter0_d_303_70684)">
<circle cx="40.5" cy="98.5" r="27.5" fill="#FFE99E"/>
</g>
<path d="M39.5215 110.527C35.9473 110.527 33.208 109.033 32.2998 106.982C32.124 106.587 32.0361 106.221 32.0361 105.84C32.0361 104.697 32.7979 103.774 34.2041 103.774C35.2734 103.774 35.8594 104.243 36.6064 104.961C37.5732 105.942 38.4082 106.411 39.7559 106.411C42.6709 106.411 43.8281 103.496 43.7695 99.6289C43.7695 99.5703 43.7695 99.4971 43.7695 99.4092H43.6816C42.9785 101.416 41.0156 102.822 38.1885 102.822C34.3359 102.822 31.1719 100.142 31.1719 95.9668C31.1719 91.4844 34.7607 88.335 39.668 88.335C43.125 88.335 45.8789 89.7998 47.5488 92.9492C48.4131 94.5898 48.9111 96.7871 48.9111 99.3359C48.9111 106.323 45.3809 110.527 39.5215 110.527ZM39.6973 99.0283C41.6455 99.0283 43.1104 97.6953 43.1104 95.8203C43.1104 93.916 41.6309 92.4512 39.7412 92.4512C37.8369 92.4512 36.3428 93.8867 36.3428 95.7471C36.3428 97.6807 37.7783 99.0283 39.6973 99.0283Z" fill="black"/>
<defs>
<filter id="filter0_d_303_70684" x="0" y="58" width="81" height="81" filterUnits="userSpaceOnUse" color-interpolation-filters="sRGB">
<feFlood flood-opacity="0" result="BackgroundImageFix"/>
<feColorMatrix in="SourceAlpha" type="matrix" values="0 0 0 0 0 0 0 0 0 0 0 0 0 0 0 0 0 0 127 0" result="hardAlpha"/>
<feMorphology radius="3" operator="dilate" in="SourceAlpha" result="effect1_dropShadow_303_70684"/>
<feOffset/>
<feGaussianBlur stdDeviation="5"/>
<feComposite in2="hardAlpha" operator="out"/>
<feColorMatrix type="matrix" values="0 0 0 0 0 0 0 0 0 0 0 0 0 0 0 0 0 0 0.25 0"/>
<feBlend mode="normal" in2="BackgroundImageFix" result="effect1_dropShadow_303_70684"/>
<feBlend mode="normal" in="SourceGraphic" in2="effect1_dropShadow_303_70684" result="shape"/>
</filter>
<linearGradient id="paint0_linear_303_70684" x1="43.2003" y1="88.8499" x2="32.9003" y2="76.9899" gradientUnits="userSpaceOnUse">
<stop stop-color="#B75229"/>
<stop offset="0.64" stop-color="#7E2B09"/>
</linearGradient>
<linearGradient id="paint1_linear_303_70684" x1="41.9903" y1="95.0198" x2="52.9103" y2="69.3098" gradientUnits="userSpaceOnUse">
<stop offset="0.27" stop-color="#8F3A18"/>
<stop offset="0.72" stop-color="#682105"/>
</linearGradient>
<linearGradient id="paint2_linear_303_70684" x1="61.8001" y1="73.0898" x2="61.8201" y2="73.0598" gradientUnits="userSpaceOnUse">
<stop offset="0.27" stop-color="#8F3A18"/>
<stop offset="0.72" stop-color="#682105"/>
</linearGradient>
<linearGradient id="paint3_linear_303_70684" x1="18.2706" y1="73.27" x2="18.3206" y2="73.27" gradientUnits="userSpaceOnUse">
<stop stop-color="#CE5120"/>
<stop offset="1" stop-color="#A73508"/>
</linearGradient>
<linearGradient id="paint4_linear_303_70684" x1="18.0403" y1="73.5198" x2="18.2703" y2="73.5198" gradientUnits="userSpaceOnUse">
<stop stop-color="#CE5120"/>
<stop offset="1" stop-color="#A73508"/>
</linearGradient>
<linearGradient id="paint5_linear_303_70684" x1="18.3203" y1="81.48" x2="32.1303" y2="81.48" gradientUnits="userSpaceOnUse">
<stop stop-color="#CE5120"/>
<stop offset="1" stop-color="#A73508"/>
</linearGradient>
<linearGradient id="paint6_linear_303_70684" x1="41.3003" y1="47.0899" x2="27.2503" y2="81.8699" gradientUnits="userSpaceOnUse">
<stop stop-color="#CE5120"/>
<stop offset="1" stop-color="#A73508"/>
</linearGradient>
<linearGradient id="paint7_linear_303_70684" x1="21.5503" y1="64.7499" x2="31.9903" y2="66.5899" gradientUnits="userSpaceOnUse">
<stop stop-color="#AF4920"/>
<stop offset="1" stop-color="#792707"/>
</linearGradient>
<linearGradient id="paint8_linear_303_70684" x1="15.3103" y1="50.1599" x2="6.05032" y2="73.0599" gradientUnits="userSpaceOnUse">
<stop stop-color="#CE5120"/>
<stop offset="1" stop-color="#A73508"/>
</linearGradient>
<linearGradient id="paint9_linear_303_70684" x1="8.6299" y1="60.1798" x2="13.0799" y2="66.5498" gradientUnits="userSpaceOnUse">
<stop stop-color="#D86130"/>
<stop offset="1" stop-color="#E26B38"/>
</linearGradient>
<linearGradient id="paint10_linear_303_70684" x1="69.75" y1="42.3899" x2="58.82" y2="76.0199" gradientUnits="userSpaceOnUse">
<stop stop-color="#CE5120"/>
<stop offset="1" stop-color="#A73508"/>
</linearGradient>
<linearGradient id="paint11_linear_303_70684" x1="25.09" y1="68.0901" x2="34.84" y2="68.0901" gradientUnits="userSpaceOnUse">
<stop stop-color="#CE5120"/>
<stop offset="1" stop-color="#A73508"/>
</linearGradient>
<linearGradient id="paint12_linear_303_70684" x1="62.7401" y1="54.97" x2="53.3301" y2="78.27" gradientUnits="userSpaceOnUse">
<stop stop-color="#CE5120"/>
<stop offset="1" stop-color="#A73508"/>
</linearGradient>
<linearGradient id="paint13_linear_303_70684" x1="56.72" y1="72.7398" x2="65.03" y2="61.7198" gradientUnits="userSpaceOnUse">
<stop stop-color="#612007"/>
<stop offset="0.72" stop-color="#7E2B09"/>
</linearGradient>
<linearGradient id="paint14_linear_303_70684" x1="66.1908" y1="61.8301" x2="59.8008" y2="65.3701" gradientUnits="userSpaceOnUse">
<stop stop-color="#B75229"/>
<stop offset="0.81" stop-color="#C95F32"/>
</linearGradient>
<linearGradient id="paint15_linear_303_70684" x1="26.1401" y1="72.97" x2="34.3801" y2="72.97" gradientUnits="userSpaceOnUse">
<stop stop-color="#D86130"/>
<stop offset="1" stop-color="#E26B38"/>
</linearGradient>
<linearGradient id="paint16_linear_303_70684" x1="37.8704" y1="60.03" x2="39.0604" y2="25.93" gradientUnits="userSpaceOnUse">
<stop stop-color="#FF6B2A"/>
<stop offset="0.72" stop-color="#FF5D1C"/>
<stop offset="1" stop-color="#FF591C"/>
</linearGradient>
<linearGradient id="paint17_linear_303_70684" x1="44.9202" y1="48.1497" x2="41.8102" y2="39.1197" gradientUnits="userSpaceOnUse">
<stop stop-color="#CE5120"/>
<stop offset="1" stop-color="#A73508"/>
</linearGradient>
<linearGradient id="paint18_linear_303_70684" x1="38.3401" y1="44.5297" x2="35.6401" y2="36.6697" gradientUnits="userSpaceOnUse">
<stop stop-color="#CE5120"/>
<stop offset="1" stop-color="#A73508"/>
</linearGradient>
<linearGradient id="paint19_linear_303_70684" x1="29.3998" y1="43.8298" x2="26.6198" y2="35.7498" gradientUnits="userSpaceOnUse">
<stop stop-color="#CE5120"/>
<stop offset="1" stop-color="#A73508"/>
</linearGradient>
<linearGradient id="paint20_linear_303_70684" x1="15.2193" y1="45.0797" x2="13.2093" y2="39.2497" gradientUnits="userSpaceOnUse">
<stop stop-color="#CE5120"/>
<stop offset="1" stop-color="#A73508"/>
</linearGradient>
<linearGradient id="paint21_linear_303_70684" x1="19.8498" y1="44.1798" x2="17.6398" y2="37.7498" gradientUnits="userSpaceOnUse">
<stop stop-color="#CE5120"/>
<stop offset="1" stop-color="#A73508"/>
</linearGradient>
<linearGradient id="paint22_linear_303_70684" x1="10.3298" y1="48.0398" x2="8.65981" y2="43.1898" gradientUnits="userSpaceOnUse">
<stop stop-color="#CE5120"/>
<stop offset="1" stop-color="#A73508"/>
</linearGradient>
</defs>
</svg>
